<ttFont>
    <TTGlyph name="A" xMin="32" yMin="-15" xMax="792" yMax="760">
      <contour>
        <pt x="577" y="338" on="1"/>
        <pt x="482" y="646" on="0"/>
        <pt x="457" y="646" on="0"/>
        <pt x="385" y="418" on="1"/>
        <pt x="361" y="342" on="1"/>
        <pt x="405" y="349" on="0"/>
        <pt x="512" y="349" on="0"/>
      </contour>
      <contour>
        <pt x="266" y="259" on="1"/>
        <pt x="196" y="236" on="0"/>
        <pt x="97" y="138" on="0"/>
        <pt x="97" y="95" on="1"/>
        <pt x="97" y="74" on="0"/>
        <pt x="118" y="51" on="0"/>
        <pt x="135" y="51" on="1"/>
        <pt x="190" y="51" on="0"/>
      </contour>
      <contour>
        <pt x="792" y="52" on="1"/>
        <pt x="792" y="22" on="0"/>
        <pt x="760" y="-15" on="0"/>
        <pt x="736" y="-15" on="1"/>
        <pt x="692" y="-15" on="0"/>
        <pt x="669" y="50" on="1"/>
        <pt x="624" y="184" on="0"/>
        <pt x="597" y="272" on="1"/>
        <pt x="521" y="285" on="0"/>
        <pt x="396" y="285" on="0"/>
        <pt x="344" y="275" on="1"/>
        <pt x="279" y="112" on="0"/>
        <pt x="248" y="63" on="1"/>
        <pt x="198" y="-15" on="0"/>
        <pt x="132" y="-15" on="1"/>
        <pt x="86" y="-15" on="0"/>
        <pt x="32" y="47" on="0"/>
        <pt x="32" y="93" on="1"/>
        <pt x="32" y="162" on="0"/>
        <pt x="172" y="302" on="0"/>
        <pt x="284" y="328" on="1"/>
        <pt x="328" y="450" on="0"/>
        <pt x="405" y="688" on="0"/>
        <pt x="410" y="700" on="1"/>
        <pt x="431" y="760" on="0"/>
        <pt x="468" y="760" on="1"/>
        <pt x="509" y="760" on="0"/>
        <pt x="529" y="708" on="1"/>
        <pt x="534" y="694" on="0"/>
        <pt x="557" y="625" on="1"/>
        <pt x="656" y="325" on="1"/>
        <pt x="697" y="313" on="0"/>
        <pt x="749" y="275" on="0"/>
        <pt x="749" y="261" on="1"/>
        <pt x="749" y="238" on="0"/>
        <pt x="724" y="238" on="1"/>
        <pt x="715" y="238" on="0"/>
        <pt x="676" y="252" on="1"/>
        <pt x="719" y="113" on="0"/>
        <pt x="745" y="73" on="0"/>
        <pt x="761" y="65" on="0"/>
        <pt x="771" y="63" on="1"/>
        <pt x="792" y="59" on="0"/>
      </contour>
    </TTGlyph>
    <TTGlyph name="AE" xMin="25" yMin="-41" xMax="984" yMax="755">
      <contour>
        <pt x="782" y="0" on="1"/>
        <pt x="633" y="-5" on="1"/>
        <pt x="585" y="-5" on="0"/>
        <pt x="578" y="38" on="1"/>
        <pt x="565" y="112" on="0"/>
        <pt x="544" y="250" on="1"/>
        <pt x="490" y="259" on="0"/>
        <pt x="385" y="259" on="0"/>
        <pt x="337" y="249" on="1"/>
        <pt x="273" y="87" on="0"/>
        <pt x="241" y="37" on="1"/>
        <pt x="191" y="-41" on="0"/>
        <pt x="125" y="-41" on="1"/>
        <pt x="77" y="-41" on="0"/>
        <pt x="25" y="23" on="0"/>
        <pt x="25" y="67" on="1"/>
        <pt x="25" y="136" on="0"/>
        <pt x="164" y="277" on="0"/>
        <pt x="277" y="302" on="1"/>
        <pt x="288" y="331" on="0"/>
        <pt x="412" y="695" on="1"/>
        <pt x="433" y="755" on="0"/>
        <pt x="471" y="755" on="1"/>
        <pt x="683" y="750" on="1"/>
        <pt x="823" y="755" on="1"/>
        <pt x="873" y="755" on="0"/>
        <pt x="873" y="679" on="0"/>
        <pt x="823" y="679" on="1"/>
        <pt x="683" y="684" on="1"/>
        <pt x="577" y="684" on="0"/>
        <pt x="543" y="680" on="1"/>
        <pt x="563" y="554" on="0"/>
        <pt x="583" y="440" on="1"/>
        <pt x="627" y="438" on="0"/>
        <pt x="656" y="438" on="1"/>
        <pt x="656" y="438" on="0"/>
        <pt x="826" y="443" on="1"/>
        <pt x="849" y="443" on="0"/>
        <pt x="876" y="422" on="0"/>
        <pt x="876" y="404" on="1"/>
        <pt x="876" y="367" on="0"/>
        <pt x="826" y="367" on="1"/>
        <pt x="656" y="372" on="1"/>
        <pt x="632" y="372" on="0"/>
        <pt x="596" y="370" on="1"/>
        <pt x="647" y="95" on="0"/>
        <pt x="654" y="70" on="1"/>
        <pt x="718" y="66" on="0"/>
        <pt x="782" y="66" on="1"/>
        <pt x="934" y="71" on="1"/>
        <pt x="984" y="71" on="0"/>
        <pt x="984" y="-5" on="0"/>
        <pt x="934" y="-5" on="1"/>
      </contour>
      <contour>
        <pt x="451" y="322" on="1"/>
        <pt x="494" y="322" on="0"/>
        <pt x="537" y="313" on="1"/>
        <pt x="499" y="553" on="0"/>
        <pt x="473" y="646" on="1"/>
        <pt x="461" y="646" on="0"/>
        <pt x="380" y="398" on="1"/>
        <pt x="354" y="318" on="0"/>
        <pt x="354" y="316" on="1"/>
      </contour>
      <contour>
        <pt x="259" y="233" on="1"/>
        <pt x="189" y="210" on="0"/>
        <pt x="90" y="112" on="0"/>
        <pt x="90" y="69" on="1"/>
        <pt x="90" y="48" on="0"/>
        <pt x="111" y="25" on="0"/>
        <pt x="128" y="25" on="1"/>
        <pt x="183" y="25" on="0"/>
      </contour>
    </TTGlyph>
    <TTGlyph name="Aacute" xMin="32" yMin="-15" xMax="792" yMax="970">
      <component glyphName="A" x="0" y="0" flags="0x1004"/>
      <component glyphName="acute" x="352" y="210" flags="0x1004"/>
    </TTGlyph>
    <TTGlyph name="Acircumflex" xMin="32" yMin="-15" xMax="792" yMax="985">
      <contour>
        <pt x="577" y="338" on="1"/>
        <pt x="482" y="646" on="0"/>
        <pt x="457" y="646" on="0"/>
        <pt x="385" y="418" on="1"/>
        <pt x="361" y="342" on="1"/>
        <pt x="405" y="349" on="0"/>
        <pt x="512" y="349" on="0"/>
      </contour>
      <contour>
        <pt x="266" y="259" on="1"/>
        <pt x="196" y="236" on="0"/>
        <pt x="97" y="138" on="0"/>
        <pt x="97" y="95" on="1"/>
        <pt x="97" y="74" on="0"/>
        <pt x="118" y="51" on="0"/>
        <pt x="135" y="51" on="1"/>
        <pt x="190" y="51" on="0"/>
      </contour>
      <contour>
        <pt x="792" y="52" on="1"/>
        <pt x="792" y="22" on="0"/>
        <pt x="760" y="-15" on="0"/>
        <pt x="736" y="-15" on="1"/>
        <pt x="692" y="-15" on="0"/>
        <pt x="669" y="50" on="1"/>
        <pt x="624" y="184" on="0"/>
        <pt x="597" y="272" on="1"/>
        <pt x="521" y="285" on="0"/>
        <pt x="396" y="285" on="0"/>
        <pt x="344" y="275" on="1"/>
        <pt x="279" y="112" on="0"/>
        <pt x="248" y="63" on="1"/>
        <pt x="198" y="-15" on="0"/>
        <pt x="132" y="-15" on="1"/>
        <pt x="86" y="-15" on="0"/>
        <pt x="32" y="47" on="0"/>
        <pt x="32" y="93" on="1"/>
        <pt x="32" y="162" on="0"/>
        <pt x="172" y="302" on="0"/>
        <pt x="284" y="328" on="1"/>
        <pt x="328" y="450" on="0"/>
        <pt x="405" y="688" on="0"/>
        <pt x="410" y="700" on="1"/>
        <pt x="431" y="760" on="0"/>
        <pt x="468" y="760" on="1"/>
        <pt x="509" y="760" on="0"/>
        <pt x="529" y="708" on="1"/>
        <pt x="534" y="694" on="0"/>
        <pt x="557" y="625" on="1"/>
        <pt x="656" y="325" on="1"/>
        <pt x="697" y="313" on="0"/>
        <pt x="749" y="275" on="0"/>
        <pt x="749" y="261" on="1"/>
        <pt x="749" y="238" on="0"/>
        <pt x="724" y="238" on="1"/>
        <pt x="715" y="238" on="0"/>
        <pt x="676" y="252" on="1"/>
        <pt x="719" y="113" on="0"/>
        <pt x="745" y="73" on="0"/>
        <pt x="761" y="65" on="0"/>
        <pt x="771" y="63" on="1"/>
        <pt x="792" y="59" on="0"/>
      </contour>
      <contour>
        <pt x="524" y="863" on="1"/>
        <pt x="483" y="911" on="0"/>
        <pt x="454" y="911" on="0"/>
        <pt x="413" y="863" on="1"/>
        <pt x="410" y="861" on="0"/>
        <pt x="375" y="813" on="0"/>
        <pt x="342" y="813" on="0"/>
        <pt x="332" y="821" on="1"/>
        <pt x="322" y="832" on="0"/>
        <pt x="322" y="856" on="0"/>
        <pt x="340" y="874" on="0"/>
        <pt x="353" y="885" on="1"/>
        <pt x="390" y="916" on="0"/>
        <pt x="409" y="944" on="1"/>
        <pt x="427" y="967" on="0"/>
        <pt x="438" y="976" on="1"/>
        <pt x="450" y="985" on="0"/>
        <pt x="486" y="985" on="0"/>
        <pt x="509" y="968" on="0"/>
        <pt x="548" y="919" on="0"/>
        <pt x="568" y="899" on="0"/>
        <pt x="582" y="888" on="1"/>
        <pt x="606" y="868" on="0"/>
        <pt x="610" y="858" on="1"/>
        <pt x="614" y="853" on="0"/>
        <pt x="614" y="839" on="0"/>
        <pt x="611" y="830" on="1"/>
        <pt x="604" y="813" on="0"/>
        <pt x="583" y="813" on="1"/>
        <pt x="581" y="813" on="0"/>
        <pt x="571" y="813" on="0"/>
        <pt x="549" y="831" on="0"/>
        <pt x="526" y="862" on="0"/>
      </contour>
    </TTGlyph>
    <TTGlyph name="Adieresis" xMin="32" yMin="-15" xMax="792" yMax="954">
      <component glyphName="A" x="0" y="0" flags="0x1004"/>
      <component glyphName="dieresis" x="273" y="229" flags="0x1004"/>
    </TTGlyph>
    <TTGlyph name="Agrave" xMin="39" yMin="-10" xMax="604" yMax="970">
      <contour>
        <pt x="510" y="318" on="1"/>
        <pt x="554" y="319" on="1"/>
        <pt x="576" y="319" on="0"/>
        <pt x="604" y="297" on="0"/>
        <pt x="604" y="280" on="1"/>
        <pt x="604" y="242" on="0"/>
        <pt x="534" y="242" on="1"/>
        <pt x="557" y="170" on="1"/>
        <pt x="567" y="141" on="0"/>
        <pt x="604" y="39" on="0"/>
        <pt x="604" y="11" on="0"/>
        <pt x="585" y="-10" on="0"/>
        <pt x="570" y="-10" on="1"/>
        <pt x="541" y="-10" on="0"/>
        <pt x="526" y="25" on="1"/>
        <pt x="511" y="66" on="0"/>
        <pt x="473" y="193" on="0"/>
        <pt x="456" y="246" on="1"/>
        <pt x="336" y="249" on="0"/>
        <pt x="242" y="249" on="0"/>
        <pt x="177" y="246" on="1"/>
        <pt x="116" y="38" on="0"/>
        <pt x="111" y="27" on="1"/>
        <pt x="98" y="-10" on="0"/>
        <pt x="72" y="-10" on="1"/>
        <pt x="57" y="-10" on="0"/>
        <pt x="39" y="9" on="0"/>
        <pt x="39" y="24" on="1"/>
        <pt x="39" y="46" on="0"/>
        <pt x="94" y="208" on="0"/>
        <pt x="105" y="244" on="1"/>
        <pt x="87" y="244" on="1"/>
        <pt x="39" y="244" on="0"/>
        <pt x="39" y="318" on="0"/>
        <pt x="87" y="318" on="1"/>
        <pt x="116" y="318" on="0"/>
        <pt x="128" y="317" on="1"/>
        <pt x="259" y="700" on="1"/>
        <pt x="280" y="760" on="0"/>
        <pt x="317" y="760" on="1"/>
        <pt x="342" y="760" on="0"/>
        <pt x="369" y="731" on="0"/>
        <pt x="389" y="681" on="0"/>
        <pt x="471" y="430" on="0"/>
      </contour>
      <contour>
        <pt x="226" y="398" on="1"/>
        <pt x="199" y="315" on="1"/>
        <pt x="260" y="312" on="0"/>
        <pt x="378" y="312" on="0"/>
        <pt x="434" y="315" on="1"/>
        <pt x="331" y="646" on="0"/>
        <pt x="306" y="646" on="0"/>
      </contour>
      <contour>
        <pt x="374" y="824" on="1"/>
        <pt x="374" y="803" on="0"/>
        <pt x="320" y="803" on="0"/>
        <pt x="274" y="846" on="1"/>
        <pt x="229" y="890" on="0"/>
        <pt x="229" y="932" on="1"/>
        <pt x="228" y="935" on="0"/>
        <pt x="228" y="938" on="1"/>
        <pt x="228" y="957" on="0"/>
        <pt x="250" y="966" on="1"/>
        <pt x="258" y="970" on="0"/>
        <pt x="270" y="970" on="1"/>
        <pt x="293" y="970" on="0"/>
        <pt x="316" y="916" on="1"/>
        <pt x="331" y="884" on="0"/>
        <pt x="374" y="836" on="0"/>
      </contour>
    </TTGlyph>
    <TTGlyph name="Aring" xMin="32" yMin="-15" xMax="792" yMax="986">
      <contour>
        <pt x="577" y="338" on="1"/>
        <pt x="482" y="646" on="0"/>
        <pt x="457" y="646" on="0"/>
        <pt x="385" y="418" on="1"/>
        <pt x="361" y="342" on="1"/>
        <pt x="405" y="349" on="0"/>
        <pt x="512" y="349" on="0"/>
      </contour>
      <contour>
        <pt x="266" y="259" on="1"/>
        <pt x="196" y="236" on="0"/>
        <pt x="97" y="138" on="0"/>
        <pt x="97" y="95" on="1"/>
        <pt x="97" y="74" on="0"/>
        <pt x="118" y="51" on="0"/>
        <pt x="135" y="51" on="1"/>
        <pt x="190" y="51" on="0"/>
      </contour>
      <contour>
        <pt x="792" y="52" on="1"/>
        <pt x="792" y="22" on="0"/>
        <pt x="760" y="-15" on="0"/>
        <pt x="736" y="-15" on="1"/>
        <pt x="692" y="-15" on="0"/>
        <pt x="669" y="50" on="1"/>
        <pt x="624" y="184" on="0"/>
        <pt x="597" y="272" on="1"/>
        <pt x="521" y="285" on="0"/>
        <pt x="396" y="285" on="0"/>
        <pt x="344" y="275" on="1"/>
        <pt x="279" y="112" on="0"/>
        <pt x="248" y="63" on="1"/>
        <pt x="198" y="-15" on="0"/>
        <pt x="132" y="-15" on="1"/>
        <pt x="86" y="-15" on="0"/>
        <pt x="32" y="47" on="0"/>
        <pt x="32" y="93" on="1"/>
        <pt x="32" y="162" on="0"/>
        <pt x="172" y="302" on="0"/>
        <pt x="284" y="328" on="1"/>
        <pt x="328" y="450" on="0"/>
        <pt x="405" y="688" on="0"/>
        <pt x="410" y="700" on="1"/>
        <pt x="431" y="760" on="0"/>
        <pt x="468" y="760" on="1"/>
        <pt x="509" y="760" on="0"/>
        <pt x="529" y="708" on="1"/>
        <pt x="534" y="694" on="0"/>
        <pt x="557" y="625" on="1"/>
        <pt x="656" y="325" on="1"/>
        <pt x="697" y="313" on="0"/>
        <pt x="749" y="275" on="0"/>
        <pt x="749" y="261" on="1"/>
        <pt x="749" y="238" on="0"/>
        <pt x="724" y="238" on="1"/>
        <pt x="715" y="238" on="0"/>
        <pt x="676" y="252" on="1"/>
        <pt x="719" y="113" on="0"/>
        <pt x="745" y="73" on="0"/>
        <pt x="761" y="65" on="0"/>
        <pt x="771" y="63" on="1"/>
        <pt x="792" y="59" on="0"/>
      </contour>
      <contour>
        <pt x="428" y="986" on="0"/>
        <pt x="506" y="986" on="0"/>
        <pt x="558" y="931" on="0"/>
        <pt x="558" y="851" on="0"/>
        <pt x="508" y="797" on="0"/>
        <pt x="427" y="797" on="0"/>
        <pt x="401" y="823" on="1"/>
        <pt x="376" y="850" on="0"/>
        <pt x="376" y="931" on="0"/>
      </contour>
      <contour>
        <pt x="449" y="844" on="0"/>
        <pt x="485" y="844" on="0"/>
        <pt x="511" y="873" on="0"/>
        <pt x="511" y="910" on="0"/>
        <pt x="484" y="939" on="0"/>
        <pt x="450" y="939" on="0"/>
        <pt x="423" y="910" on="0"/>
        <pt x="423" y="873" on="0"/>
      </contour>
    </TTGlyph>
    <TTGlyph name="Atilde" xMin="32" yMin="-15" xMax="792" yMax="935">
      <contour>
        <pt x="577" y="338" on="1"/>
        <pt x="482" y="646" on="0"/>
        <pt x="457" y="646" on="0"/>
        <pt x="385" y="418" on="1"/>
        <pt x="361" y="342" on="1"/>
        <pt x="405" y="349" on="0"/>
        <pt x="512" y="349" on="0"/>
      </contour>
      <contour>
        <pt x="266" y="259" on="1"/>
        <pt x="196" y="236" on="0"/>
        <pt x="97" y="138" on="0"/>
        <pt x="97" y="95" on="1"/>
        <pt x="97" y="74" on="0"/>
        <pt x="118" y="51" on="0"/>
        <pt x="135" y="51" on="1"/>
        <pt x="190" y="51" on="0"/>
      </contour>
      <contour>
        <pt x="792" y="52" on="1"/>
        <pt x="792" y="22" on="0"/>
        <pt x="760" y="-15" on="0"/>
        <pt x="736" y="-15" on="1"/>
        <pt x="692" y="-15" on="0"/>
        <pt x="669" y="50" on="1"/>
        <pt x="624" y="184" on="0"/>
        <pt x="597" y="272" on="1"/>
        <pt x="521" y="285" on="0"/>
        <pt x="396" y="285" on="0"/>
        <pt x="344" y="275" on="1"/>
        <pt x="279" y="112" on="0"/>
        <pt x="248" y="63" on="1"/>
        <pt x="198" y="-15" on="0"/>
        <pt x="132" y="-15" on="1"/>
        <pt x="86" y="-15" on="0"/>
        <pt x="32" y="47" on="0"/>
        <pt x="32" y="93" on="1"/>
        <pt x="32" y="162" on="0"/>
        <pt x="172" y="302" on="0"/>
        <pt x="284" y="328" on="1"/>
        <pt x="328" y="450" on="0"/>
        <pt x="405" y="688" on="0"/>
        <pt x="410" y="700" on="1"/>
        <pt x="431" y="760" on="0"/>
        <pt x="468" y="760" on="1"/>
        <pt x="509" y="760" on="0"/>
        <pt x="529" y="708" on="1"/>
        <pt x="534" y="694" on="0"/>
        <pt x="557" y="625" on="1"/>
        <pt x="656" y="325" on="1"/>
        <pt x="697" y="313" on="0"/>
        <pt x="749" y="275" on="0"/>
        <pt x="749" y="261" on="1"/>
        <pt x="749" y="238" on="0"/>
        <pt x="724" y="238" on="1"/>
        <pt x="715" y="238" on="0"/>
        <pt x="676" y="252" on="1"/>
        <pt x="719" y="113" on="0"/>
        <pt x="745" y="73" on="0"/>
        <pt x="761" y="65" on="0"/>
        <pt x="771" y="63" on="1"/>
        <pt x="792" y="59" on="0"/>
      </contour>
      <contour>
        <pt x="655" y="902" on="1"/>
        <pt x="655" y="868" on="0"/>
        <pt x="604" y="817" on="0"/>
        <pt x="535" y="817" on="0"/>
        <pt x="440" y="872" on="0"/>
        <pt x="406" y="872" on="0"/>
        <pt x="380" y="854" on="0"/>
        <pt x="373" y="845" on="0"/>
        <pt x="359" y="826" on="1"/>
        <pt x="346" y="811" on="0"/>
        <pt x="326" y="811" on="0"/>
        <pt x="319" y="814" on="1"/>
        <pt x="298" y="824" on="0"/>
        <pt x="298" y="882" on="0"/>
        <pt x="362" y="935" on="0"/>
        <pt x="446" y="935" on="0"/>
        <pt x="548" y="879" on="0"/>
        <pt x="592" y="879" on="0"/>
        <pt x="625" y="930" on="0"/>
        <pt x="643" y="930" on="0"/>
        <pt x="655" y="913" on="0"/>
      </contour>
    </TTGlyph>
    <TTGlyph name="B" xMin="44" yMin="-16" xMax="689" yMax="765">
      <contour>
        <pt x="187" y="165" on="1"/>
        <pt x="192" y="295" on="1"/>
        <pt x="126" y="298" on="0"/>
        <pt x="53" y="355" on="0"/>
        <pt x="53" y="431" on="0"/>
        <pt x="126" y="487" on="0"/>
        <pt x="192" y="497" on="1"/>
        <pt x="183" y="650" on="0"/>
        <pt x="183" y="671" on="1"/>
        <pt x="183" y="765" on="0"/>
        <pt x="365" y="765" on="1"/>
        <pt x="493" y="765" on="0"/>
        <pt x="634" y="660" on="0"/>
        <pt x="634" y="504" on="0"/>
        <pt x="556" y="437" on="1"/>
        <pt x="689" y="364" on="0"/>
        <pt x="689" y="243" on="1"/>
        <pt x="689" y="164" on="0"/>
        <pt x="591" y="43" on="0"/>
        <pt x="435" y="-15" on="0"/>
        <pt x="356" y="-15" on="1"/>
        <pt x="268" y="-15" on="0"/>
        <pt x="122" y="28" on="0"/>
        <pt x="44" y="86" on="0"/>
        <pt x="44" y="125" on="0"/>
        <pt x="64" y="146" on="0"/>
        <pt x="78" y="146" on="1"/>
        <pt x="78" y="146" on="0"/>
        <pt x="87" y="146" on="0"/>
        <pt x="132" y="119" on="0"/>
        <pt x="189" y="83" on="0"/>
        <pt x="282" y="55" on="0"/>
        <pt x="328" y="55" on="1"/>
        <pt x="331" y="55" on="0"/>
        <pt x="334" y="55" on="1"/>
        <pt x="453" y="55" on="0"/>
        <pt x="609" y="159" on="0"/>
        <pt x="609" y="241" on="1"/>
        <pt x="609" y="288" on="0"/>
        <pt x="553" y="368" on="0"/>
        <pt x="505" y="392" on="1"/>
        <pt x="402" y="316" on="0"/>
        <pt x="264" y="298" on="1"/>
        <pt x="268" y="170" on="1"/>
        <pt x="268" y="166" on="0"/>
        <pt x="268" y="163" on="1"/>
        <pt x="268" y="137" on="0"/>
        <pt x="250" y="126" on="1"/>
        <pt x="239" y="119" on="0"/>
        <pt x="228" y="119" on="1"/>
        <pt x="206" y="126" on="1"/>
        <pt x="187" y="138" on="0"/>
      </contour>
      <contour>
        <pt x="262" y="672" on="1"/>
        <pt x="262" y="637" on="0"/>
        <pt x="264" y="503" on="1"/>
        <pt x="385" y="503" on="0"/>
        <pt x="493" y="465" on="1"/>
        <pt x="560" y="516" on="0"/>
        <pt x="560" y="638" on="0"/>
        <pt x="460" y="695" on="0"/>
        <pt x="311" y="695" on="0"/>
      </contour>
      <contour>
        <pt x="262" y="435" on="1"/>
        <pt x="262" y="366" on="1"/>
        <pt x="306" y="368" on="0"/>
        <pt x="413" y="399" on="0"/>
        <pt x="443" y="419" on="1"/>
        <pt x="388" y="437" on="0"/>
        <pt x="290" y="437" on="1"/>
        <pt x="272" y="437" on="0"/>
      </contour>
      <contour>
        <pt x="193" y="362" on="1"/>
        <pt x="193" y="430" on="1"/>
        <pt x="122" y="422" on="0"/>
        <pt x="122" y="397" on="1"/>
        <pt x="122" y="364" on="0"/>
      </contour>
    </TTGlyph>
    <TTGlyph name="C" xMin="57" yMin="-15" xMax="640" yMax="765">
      <contour>
        <pt x="383" y="765" on="1"/>
        <pt x="494" y="765" on="0"/>
        <pt x="636" y="641" on="0"/>
        <pt x="636" y="558" on="1"/>
        <pt x="636" y="493" on="0"/>
        <pt x="554" y="408" on="0"/>
        <pt x="442" y="408" on="0"/>
        <pt x="404" y="444" on="1"/>
        <pt x="366" y="482" on="0"/>
        <pt x="366" y="569" on="0"/>
        <pt x="404" y="627" on="0"/>
        <pt x="431" y="627" on="1"/>
        <pt x="446" y="627" on="0"/>
        <pt x="466" y="610" on="0"/>
        <pt x="466" y="585" on="0"/>
        <pt x="438" y="546" on="0"/>
        <pt x="438" y="503" on="0"/>
        <pt x="472" y="474" on="0"/>
        <pt x="527" y="474" on="0"/>
        <pt x="564" y="517" on="0"/>
        <pt x="564" y="553" on="1"/>
        <pt x="564" y="606" on="0"/>
        <pt x="516" y="650" on="1"/>
        <pt x="470" y="695" on="0"/>
        <pt x="383" y="695" on="1"/>
        <pt x="276" y="695" on="0"/>
        <pt x="138" y="506" on="0"/>
        <pt x="138" y="250" on="0"/>
        <pt x="282" y="55" on="0"/>
        <pt x="392" y="55" on="1"/>
        <pt x="441" y="55" on="0"/>
        <pt x="526" y="81" on="0"/>
        <pt x="548" y="99" on="1"/>
        <pt x="601" y="143" on="0"/>
        <pt x="624" y="143" on="0"/>
        <pt x="640" y="128" on="0"/>
        <pt x="640" y="117" on="1"/>
        <pt x="640" y="78" on="0"/>
        <pt x="491" y="-15" on="0"/>
        <pt x="391" y="-15" on="1"/>
        <pt x="247" y="-15" on="0"/>
        <pt x="152" y="98" on="1"/>
        <pt x="57" y="213" on="0"/>
        <pt x="57" y="540" on="0"/>
        <pt x="243" y="765" on="0"/>
      </contour>
    </TTGlyph>
    <TTGlyph name="Ccedilla" xMin="57" yMin="-230" xMax="640" yMax="765">
      <contour>
        <pt x="387" y="-15" on="1"/>
        <pt x="392" y="-43" on="0"/>
        <pt x="492" y="-97" on="0"/>
        <pt x="492" y="-176" on="0"/>
        <pt x="422" y="-230" on="0"/>
        <pt x="327" y="-230" on="0"/>
        <pt x="264" y="-186" on="0"/>
        <pt x="264" y="-160" on="1"/>
        <pt x="264" y="-153" on="0"/>
        <pt x="274" y="-141" on="0"/>
        <pt x="291" y="-141" on="0"/>
        <pt x="344" y="-167" on="0"/>
        <pt x="387" y="-167" on="0"/>
        <pt x="420" y="-147" on="0"/>
        <pt x="420" y="-125" on="0"/>
        <pt x="389" y="-102" on="0"/>
        <pt x="371" y="-91" on="1"/>
        <pt x="323" y="-67" on="0"/>
        <pt x="323" y="-16" on="1"/>
        <pt x="323" y="-12" on="0"/>
        <pt x="323" y="-8" on="1"/>
        <pt x="222" y="13" on="0"/>
        <pt x="152" y="98" on="1"/>
        <pt x="57" y="213" on="0"/>
        <pt x="57" y="540" on="0"/>
        <pt x="243" y="765" on="0"/>
        <pt x="383" y="765" on="1"/>
        <pt x="494" y="765" on="0"/>
        <pt x="636" y="641" on="0"/>
        <pt x="636" y="558" on="1"/>
        <pt x="636" y="493" on="0"/>
        <pt x="554" y="408" on="0"/>
        <pt x="442" y="408" on="0"/>
        <pt x="404" y="444" on="1"/>
        <pt x="366" y="482" on="0"/>
        <pt x="366" y="569" on="0"/>
        <pt x="404" y="627" on="0"/>
        <pt x="431" y="627" on="1"/>
        <pt x="446" y="627" on="0"/>
        <pt x="466" y="610" on="0"/>
        <pt x="466" y="585" on="0"/>
        <pt x="438" y="546" on="0"/>
        <pt x="438" y="503" on="0"/>
        <pt x="472" y="474" on="0"/>
        <pt x="527" y="474" on="0"/>
        <pt x="564" y="517" on="0"/>
        <pt x="564" y="553" on="1"/>
        <pt x="564" y="606" on="0"/>
        <pt x="516" y="650" on="1"/>
        <pt x="470" y="695" on="0"/>
        <pt x="383" y="695" on="1"/>
        <pt x="276" y="695" on="0"/>
        <pt x="138" y="506" on="0"/>
        <pt x="138" y="250" on="0"/>
        <pt x="282" y="55" on="0"/>
        <pt x="392" y="55" on="1"/>
        <pt x="441" y="55" on="0"/>
        <pt x="526" y="81" on="0"/>
        <pt x="548" y="99" on="1"/>
        <pt x="601" y="143" on="0"/>
        <pt x="624" y="143" on="0"/>
        <pt x="640" y="128" on="0"/>
        <pt x="640" y="117" on="1"/>
        <pt x="640" y="78" on="0"/>
        <pt x="491" y="-15" on="0"/>
      </contour>
    </TTGlyph>
    <TTGlyph name="D" xMin="50" yMin="-15" xMax="767" yMax="760">
      <contour>
        <pt x="767" y="373" on="1"/>
        <pt x="767" y="269" on="0"/>
        <pt x="672" y="97" on="0"/>
        <pt x="483" y="-15" on="0"/>
        <pt x="224" y="-15" on="0"/>
        <pt x="50" y="135" on="0"/>
        <pt x="50" y="246" on="1"/>
        <pt x="50" y="327" on="0"/>
        <pt x="153" y="442" on="0"/>
        <pt x="228" y="456" on="1"/>
        <pt x="228" y="541" on="0"/>
        <pt x="224" y="658" on="1"/>
        <pt x="176" y="658" on="0"/>
        <pt x="176" y="726" on="0"/>
        <pt x="310" y="760" on="0"/>
        <pt x="474" y="760" on="0"/>
        <pt x="624" y="694" on="0"/>
        <pt x="670" y="638" on="1"/>
        <pt x="767" y="523" on="0"/>
      </contour>
      <contour>
        <pt x="225" y="215" on="1"/>
        <pt x="229" y="338" on="1"/>
        <pt x="229" y="386" on="1"/>
        <pt x="183" y="373" on="0"/>
        <pt x="128" y="296" on="0"/>
        <pt x="128" y="246" on="1"/>
        <pt x="128" y="168" on="0"/>
        <pt x="191" y="111" on="1"/>
        <pt x="256" y="55" on="0"/>
        <pt x="357" y="55" on="1"/>
        <pt x="496" y="55" on="0"/>
        <pt x="685" y="238" on="0"/>
        <pt x="685" y="488" on="0"/>
        <pt x="611" y="586" on="1"/>
        <pt x="574" y="634" on="0"/>
        <pt x="454" y="690" on="0"/>
        <pt x="381" y="690" on="1"/>
        <pt x="346" y="690" on="0"/>
        <pt x="306" y="681" on="1"/>
        <pt x="301" y="461" on="1"/>
        <pt x="368" y="457" on="0"/>
        <pt x="476" y="382" on="0"/>
        <pt x="476" y="341" on="1"/>
        <pt x="476" y="317" on="0"/>
        <pt x="456" y="310" on="1"/>
        <pt x="451" y="307" on="0"/>
        <pt x="431" y="307" on="0"/>
        <pt x="413" y="322" on="0"/>
        <pt x="379" y="360" on="0"/>
        <pt x="370" y="368" on="1"/>
        <pt x="336" y="394" on="0"/>
        <pt x="300" y="394" on="1"/>
        <pt x="301" y="322" on="1"/>
        <pt x="304" y="262" on="1"/>
        <pt x="306" y="236" on="0"/>
        <pt x="306" y="215" on="0"/>
        <pt x="305" y="193" on="0"/>
        <pt x="283" y="166" on="0"/>
        <pt x="260" y="166" on="0"/>
        <pt x="251" y="170" on="1"/>
        <pt x="225" y="183" on="0"/>
      </contour>
    </TTGlyph>
    <TTGlyph name="E" xMin="53" yMin="-15" xMax="607" yMax="765">
      <contour>
        <pt x="233" y="473" on="1"/>
        <pt x="306" y="508" on="0"/>
        <pt x="432" y="508" on="0"/>
        <pt x="458" y="483" on="1"/>
        <pt x="488" y="461" on="0"/>
        <pt x="488" y="428" on="1"/>
        <pt x="488" y="402" on="0"/>
        <pt x="471" y="382" on="1"/>
        <pt x="434" y="342" on="0"/>
        <pt x="356" y="342" on="1"/>
        <pt x="324" y="342" on="0"/>
        <pt x="246" y="371" on="0"/>
        <pt x="218" y="392" on="1"/>
        <pt x="133" y="334" on="0"/>
        <pt x="133" y="235" on="1"/>
        <pt x="133" y="168" on="0"/>
        <pt x="251" y="55" on="0"/>
        <pt x="454" y="55" on="0"/>
        <pt x="564" y="141" on="0"/>
        <pt x="579" y="141" on="1"/>
        <pt x="607" y="141" on="0"/>
        <pt x="607" y="115" on="1"/>
        <pt x="607" y="93" on="0"/>
        <pt x="543" y="33" on="0"/>
        <pt x="422" y="-15" on="0"/>
        <pt x="358" y="-15" on="1"/>
        <pt x="217" y="-15" on="0"/>
        <pt x="134" y="59" on="1"/>
        <pt x="53" y="134" on="0"/>
        <pt x="53" y="226" on="1"/>
        <pt x="53" y="360" on="0"/>
        <pt x="170" y="437" on="1"/>
        <pt x="115" y="493" on="0"/>
        <pt x="115" y="663" on="0"/>
        <pt x="182" y="714" on="1"/>
        <pt x="250" y="765" on="0"/>
        <pt x="420" y="765" on="0"/>
        <pt x="548" y="702" on="0"/>
        <pt x="548" y="664" on="1"/>
        <pt x="548" y="640" on="0"/>
        <pt x="528" y="632" on="1"/>
        <pt x="522" y="631" on="0"/>
        <pt x="499" y="631" on="0"/>
        <pt x="476" y="646" on="1"/>
        <pt x="411" y="695" on="0"/>
        <pt x="280" y="695" on="0"/>
        <pt x="237" y="664" on="1"/>
        <pt x="189" y="634" on="0"/>
        <pt x="189" y="509" on="0"/>
      </contour>
      <contour>
        <pt x="284" y="433" on="1"/>
        <pt x="273" y="428" on="1"/>
        <pt x="308" y="402" on="0"/>
        <pt x="414" y="402" on="0"/>
        <pt x="414" y="427" on="1"/>
        <pt x="414" y="448" on="0"/>
        <pt x="316" y="448" on="0"/>
      </contour>
    </TTGlyph>
    <TTGlyph name="Eacute" xMin="53" yMin="-15" xMax="607" yMax="970">
      <component glyphName="E" x="0" y="0" flags="0x1004"/>
      <component glyphName="acute" x="232" y="210" flags="0x1004"/>
    </TTGlyph>
    <TTGlyph name="Ecircumflex" xMin="53" yMin="-15" xMax="607" yMax="985">
      <component glyphName="E" x="0" y="0" flags="0x1004"/>
      <component glyphName="circumflex" x="143" y="225" flags="0x1004"/>
    </TTGlyph>
    <TTGlyph name="Edieresis" xMin="53" yMin="-15" xMax="607" yMax="953">
      <contour>
        <pt x="233" y="473" on="1"/>
        <pt x="306" y="508" on="0"/>
        <pt x="432" y="508" on="0"/>
        <pt x="458" y="483" on="1"/>
        <pt x="488" y="461" on="0"/>
        <pt x="488" y="428" on="1"/>
        <pt x="488" y="402" on="0"/>
        <pt x="471" y="382" on="1"/>
        <pt x="434" y="342" on="0"/>
        <pt x="356" y="342" on="1"/>
        <pt x="324" y="342" on="0"/>
        <pt x="246" y="371" on="0"/>
        <pt x="218" y="392" on="1"/>
        <pt x="133" y="334" on="0"/>
        <pt x="133" y="235" on="1"/>
        <pt x="133" y="168" on="0"/>
        <pt x="251" y="55" on="0"/>
        <pt x="454" y="55" on="0"/>
        <pt x="564" y="141" on="0"/>
        <pt x="579" y="141" on="1"/>
        <pt x="607" y="141" on="0"/>
        <pt x="607" y="115" on="1"/>
        <pt x="607" y="93" on="0"/>
        <pt x="543" y="33" on="0"/>
        <pt x="422" y="-15" on="0"/>
        <pt x="358" y="-15" on="1"/>
        <pt x="217" y="-15" on="0"/>
        <pt x="134" y="59" on="1"/>
        <pt x="53" y="134" on="0"/>
        <pt x="53" y="226" on="1"/>
        <pt x="53" y="360" on="0"/>
        <pt x="170" y="437" on="1"/>
        <pt x="115" y="493" on="0"/>
        <pt x="115" y="663" on="0"/>
        <pt x="182" y="714" on="1"/>
        <pt x="250" y="765" on="0"/>
        <pt x="420" y="765" on="0"/>
        <pt x="548" y="702" on="0"/>
        <pt x="548" y="664" on="1"/>
        <pt x="548" y="640" on="0"/>
        <pt x="528" y="632" on="1"/>
        <pt x="522" y="631" on="0"/>
        <pt x="499" y="631" on="0"/>
        <pt x="476" y="646" on="1"/>
        <pt x="411" y="695" on="0"/>
        <pt x="280" y="695" on="0"/>
        <pt x="237" y="664" on="1"/>
        <pt x="189" y="634" on="0"/>
        <pt x="189" y="509" on="0"/>
      </contour>
      <contour>
        <pt x="284" y="433" on="1"/>
        <pt x="273" y="428" on="1"/>
        <pt x="308" y="402" on="0"/>
        <pt x="414" y="402" on="0"/>
        <pt x="414" y="427" on="1"/>
        <pt x="414" y="448" on="0"/>
        <pt x="316" y="448" on="0"/>
      </contour>
      <contour>
        <pt x="278" y="953" on="1"/>
        <pt x="319" y="953" on="0"/>
        <pt x="319" y="905" on="1"/>
        <pt x="319" y="883" on="0"/>
        <pt x="290" y="844" on="0"/>
        <pt x="270" y="844" on="1"/>
        <pt x="228" y="844" on="0"/>
        <pt x="228" y="895" on="1"/>
        <pt x="228" y="919" on="0"/>
        <pt x="257" y="953" on="0"/>
      </contour>
      <contour>
        <pt x="438" y="953" on="1"/>
        <pt x="479" y="953" on="0"/>
        <pt x="479" y="905" on="1"/>
        <pt x="479" y="883" on="0"/>
        <pt x="450" y="844" on="0"/>
        <pt x="430" y="844" on="1"/>
        <pt x="388" y="844" on="0"/>
        <pt x="388" y="895" on="1"/>
        <pt x="388" y="919" on="0"/>
        <pt x="417" y="953" on="0"/>
      </contour>
    </TTGlyph>
    <TTGlyph name="Egrave" xMin="53" yMin="-15" xMax="607" yMax="971">
      <component glyphName="E" x="0" y="0" flags="0x1004"/>
      <component glyphName="grave" x="163" y="211" flags="0x1004"/>
    </TTGlyph>
    <TTGlyph name="Eth" xMin="7" yMin="-15" xMax="672" yMax="760">
      <contour>
        <pt x="134" y="340" on="1"/>
        <pt x="42" y="338" on="1"/>
        <pt x="29" y="338" on="0"/>
        <pt x="7" y="357" on="0"/>
        <pt x="7" y="386" on="0"/>
        <pt x="18" y="395" on="1"/>
        <pt x="30" y="404" on="0"/>
        <pt x="71" y="404" on="0"/>
        <pt x="134" y="401" on="1"/>
        <pt x="129" y="654" on="1"/>
        <pt x="81" y="654" on="0"/>
        <pt x="81" y="692" on="1"/>
        <pt x="81" y="726" on="0"/>
        <pt x="215" y="760" on="0"/>
        <pt x="378" y="760" on="0"/>
        <pt x="528" y="693" on="0"/>
        <pt x="576" y="636" on="1"/>
        <pt x="672" y="521" on="0"/>
        <pt x="672" y="214" on="0"/>
        <pt x="579" y="104" on="1"/>
        <pt x="533" y="48" on="0"/>
        <pt x="386" y="-15" on="0"/>
        <pt x="202" y="-15" on="0"/>
        <pt x="139" y="6" on="1"/>
        <pt x="77" y="29" on="0"/>
        <pt x="77" y="62" on="1"/>
        <pt x="77" y="81" on="0"/>
        <pt x="94" y="88" on="1"/>
        <pt x="100" y="90" on="0"/>
        <pt x="118" y="90" on="0"/>
        <pt x="131" y="83" on="1"/>
      </contour>
      <contour>
        <pt x="373" y="371" on="1"/>
        <pt x="373" y="338" on="0"/>
        <pt x="321" y="338" on="1"/>
        <pt x="293" y="338" on="0"/>
        <pt x="206" y="341" on="1"/>
        <pt x="206" y="172" on="0"/>
        <pt x="212" y="62" on="1"/>
        <pt x="240" y="56" on="0"/>
        <pt x="296" y="56" on="1"/>
        <pt x="438" y="56" on="0"/>
        <pt x="594" y="238" on="0"/>
        <pt x="594" y="498" on="0"/>
        <pt x="518" y="589" on="1"/>
        <pt x="480" y="635" on="0"/>
        <pt x="359" y="688" on="0"/>
        <pt x="286" y="688" on="1"/>
        <pt x="248" y="688" on="0"/>
        <pt x="211" y="679" on="1"/>
        <pt x="206" y="601" on="0"/>
        <pt x="206" y="401" on="1"/>
        <pt x="332" y="404" on="1"/>
        <pt x="350" y="404" on="0"/>
        <pt x="373" y="386" on="0"/>
      </contour>
    </TTGlyph>
    <TTGlyph name="Euro" xMin="49" yMin="-15" xMax="582" yMax="715">
      <contour>
        <pt x="92" y="318" on="1"/>
        <pt x="269" y="315" on="1"/>
        <pt x="446" y="318" on="1"/>
        <pt x="449" y="318" on="0"/>
        <pt x="451" y="318" on="1"/>
        <pt x="472" y="318" on="0"/>
        <pt x="487" y="294" on="0"/>
        <pt x="487" y="276" on="0"/>
        <pt x="472" y="252" on="0"/>
        <pt x="451" y="252" on="1"/>
        <pt x="449" y="252" on="0"/>
        <pt x="446" y="252" on="1"/>
        <pt x="269" y="255" on="1"/>
        <pt x="222" y="255" on="0"/>
        <pt x="209" y="254" on="1"/>
        <pt x="227" y="159" on="0"/>
        <pt x="323" y="49" on="0"/>
        <pt x="457" y="49" on="0"/>
        <pt x="538" y="115" on="0"/>
        <pt x="566" y="115" on="0"/>
        <pt x="582" y="98" on="0"/>
        <pt x="582" y="85" on="1"/>
        <pt x="582" y="54" on="0"/>
        <pt x="471" y="-15" on="0"/>
        <pt x="396" y="-15" on="1"/>
        <pt x="296" y="-15" on="0"/>
        <pt x="228" y="59" on="1"/>
        <pt x="160" y="135" on="0"/>
        <pt x="139" y="253" on="1"/>
        <pt x="128" y="253" on="0"/>
        <pt x="74" y="253" on="0"/>
        <pt x="50" y="271" on="0"/>
        <pt x="50" y="290" on="0"/>
        <pt x="54" y="298" on="1"/>
        <pt x="65" y="318" on="0"/>
      </contour>
      <contour>
        <pt x="207" y="439" on="1"/>
        <pt x="269" y="439" on="1"/>
        <pt x="446" y="442" on="1"/>
        <pt x="449" y="442" on="0"/>
        <pt x="451" y="442" on="1"/>
        <pt x="472" y="442" on="0"/>
        <pt x="487" y="418" on="0"/>
        <pt x="487" y="400" on="0"/>
        <pt x="472" y="376" on="0"/>
        <pt x="451" y="376" on="1"/>
        <pt x="449" y="376" on="0"/>
        <pt x="446" y="376" on="1"/>
        <pt x="269" y="379" on="1"/>
        <pt x="92" y="376" on="1"/>
        <pt x="89" y="376" on="0"/>
        <pt x="87" y="376" on="1"/>
        <pt x="66" y="376" on="0"/>
        <pt x="51" y="400" on="0"/>
        <pt x="51" y="418" on="0"/>
        <pt x="66" y="442" on="0"/>
        <pt x="87" y="442" on="1"/>
        <pt x="89" y="442" on="0"/>
        <pt x="92" y="442" on="1"/>
        <pt x="138" y="441" on="1"/>
        <pt x="158" y="562" on="0"/>
        <pt x="225" y="639" on="1"/>
        <pt x="294" y="715" on="0"/>
        <pt x="396" y="715" on="1"/>
        <pt x="467" y="715" on="0"/>
        <pt x="568" y="652" on="0"/>
        <pt x="568" y="617" on="1"/>
        <pt x="568" y="597" on="0"/>
        <pt x="551" y="590" on="1"/>
        <pt x="545" y="587" on="0"/>
        <pt x="526" y="587" on="0"/>
        <pt x="508" y="599" on="0"/>
        <pt x="487" y="619" on="0"/>
        <pt x="472" y="630" on="0"/>
        <pt x="459" y="638" on="1"/>
        <pt x="434" y="652" on="0"/>
        <pt x="396" y="652" on="1"/>
        <pt x="322" y="652" on="0"/>
        <pt x="223" y="537" on="0"/>
      </contour>
    </TTGlyph>
    <TTGlyph name="F" xMin="25" yMin="-10" xMax="623" yMax="785">
      <contour>
        <pt x="170" y="48" on="1"/>
        <pt x="175" y="343" on="1"/>
        <pt x="109" y="354" on="0"/>
        <pt x="109" y="389" on="1"/>
        <pt x="109" y="405" on="0"/>
        <pt x="118" y="414" on="1"/>
        <pt x="128" y="424" on="0"/>
        <pt x="147" y="424" on="0"/>
        <pt x="175" y="418" on="1"/>
        <pt x="172" y="579" on="1"/>
        <pt x="105" y="587" on="0"/>
        <pt x="25" y="650" on="0"/>
        <pt x="25" y="697" on="1"/>
        <pt x="25" y="728" on="0"/>
        <pt x="75" y="785" on="0"/>
        <pt x="176" y="785" on="0"/>
        <pt x="236" y="710" on="0"/>
        <pt x="243" y="647" on="1"/>
        <pt x="417" y="647" on="0"/>
        <pt x="562" y="758" on="1"/>
        <pt x="586" y="774" on="0"/>
        <pt x="595" y="774" on="1"/>
        <pt x="619" y="774" on="0"/>
        <pt x="623" y="748" on="1"/>
        <pt x="623" y="706" on="0"/>
        <pt x="502" y="624" on="0"/>
        <pt x="326" y="573" on="0"/>
        <pt x="247" y="573" on="1"/>
        <pt x="247" y="408" on="1"/>
        <pt x="280" y="403" on="0"/>
        <pt x="371" y="403" on="0"/>
        <pt x="493" y="426" on="0"/>
        <pt x="508" y="426" on="0"/>
        <pt x="527" y="411" on="0"/>
        <pt x="527" y="398" on="1"/>
        <pt x="527" y="370" on="0"/>
        <pt x="384" y="334" on="0"/>
        <pt x="300" y="334" on="1"/>
        <pt x="274" y="334" on="0"/>
        <pt x="247" y="336" on="1"/>
        <pt x="252" y="48" on="1"/>
        <pt x="252" y="-10" on="0"/>
        <pt x="170" y="-10" on="0"/>
      </contour>
      <contour>
        <pt x="170" y="651" on="1"/>
        <pt x="162" y="720" on="0"/>
        <pt x="124" y="720" on="1"/>
        <pt x="112" y="720" on="0"/>
        <pt x="94" y="704" on="0"/>
        <pt x="94" y="694" on="1"/>
        <pt x="94" y="660" on="0"/>
      </contour>
    </TTGlyph>
    <TTGlyph name="G" xMin="57" yMin="-16" xMax="766" yMax="765">
      <contour>
        <pt x="585" y="341" on="1"/>
        <pt x="569" y="364" on="0"/>
        <pt x="508" y="375" on="1"/>
        <pt x="481" y="380" on="0"/>
        <pt x="439" y="380" on="0"/>
        <pt x="428" y="373" on="1"/>
        <pt x="397" y="363" on="0"/>
        <pt x="397" y="348" on="1"/>
        <pt x="397" y="322" on="0"/>
        <pt x="528" y="322" on="0"/>
      </contour>
      <contour>
        <pt x="595" y="281" on="1"/>
        <pt x="528" y="257" on="0"/>
        <pt x="396" y="257" on="0"/>
        <pt x="319" y="306" on="0"/>
        <pt x="319" y="381" on="0"/>
        <pt x="356" y="414" on="1"/>
        <pt x="394" y="447" on="0"/>
        <pt x="532" y="447" on="0"/>
        <pt x="630" y="396" on="0"/>
        <pt x="650" y="371" on="1"/>
        <pt x="668" y="378" on="0"/>
        <pt x="730" y="424" on="0"/>
        <pt x="740" y="424" on="1"/>
        <pt x="766" y="424" on="0"/>
        <pt x="766" y="394" on="1"/>
        <pt x="766" y="360" on="0"/>
        <pt x="670" y="309" on="1"/>
        <pt x="670" y="169" on="0"/>
        <pt x="507" y="-16" on="0"/>
        <pt x="383" y="-16" on="1"/>
        <pt x="242" y="-16" on="0"/>
        <pt x="149" y="98" on="1"/>
        <pt x="57" y="213" on="0"/>
        <pt x="57" y="539" on="0"/>
        <pt x="152" y="652" on="1"/>
        <pt x="248" y="765" on="0"/>
        <pt x="393" y="765" on="1"/>
        <pt x="482" y="765" on="0"/>
        <pt x="628" y="696" on="0"/>
        <pt x="628" y="654" on="1"/>
        <pt x="628" y="629" on="0"/>
        <pt x="608" y="622" on="1"/>
        <pt x="601" y="620" on="0"/>
        <pt x="590" y="620" on="1"/>
        <pt x="570" y="620" on="0"/>
        <pt x="520" y="657" on="1"/>
        <pt x="476" y="695" on="0"/>
        <pt x="393" y="695" on="1"/>
        <pt x="282" y="695" on="0"/>
        <pt x="138" y="506" on="0"/>
        <pt x="138" y="250" on="0"/>
        <pt x="276" y="55" on="0"/>
        <pt x="382" y="55" on="1"/>
        <pt x="470" y="55" on="0"/>
        <pt x="594" y="194" on="0"/>
      </contour>
    </TTGlyph>
    <TTGlyph name="H" xMin="45" yMin="-10" xMax="627" yMax="760">
      <contour>
        <pt x="45" y="397" on="1"/>
        <pt x="48" y="432" on="0"/>
        <pt x="72" y="432" on="1"/>
        <pt x="88" y="432" on="0"/>
        <pt x="113" y="416" on="1"/>
        <pt x="107" y="709" on="1"/>
        <pt x="107" y="731" on="0"/>
        <pt x="131" y="760" on="0"/>
        <pt x="165" y="760" on="0"/>
        <pt x="189" y="732" on="0"/>
        <pt x="189" y="686" on="0"/>
        <pt x="184" y="560" on="0"/>
        <pt x="184" y="389" on="1"/>
        <pt x="227" y="374" on="0"/>
        <pt x="299" y="374" on="1"/>
        <pt x="459" y="374" on="0"/>
        <pt x="537" y="472" on="1"/>
        <pt x="532" y="693" on="1"/>
        <pt x="532" y="760" on="0"/>
        <pt x="576" y="760" on="1"/>
        <pt x="611" y="760" on="0"/>
        <pt x="618" y="729" on="1"/>
        <pt x="626" y="700" on="0"/>
        <pt x="626" y="569" on="0"/>
        <pt x="607" y="437" on="1"/>
        <pt x="614" y="41" on="1"/>
        <pt x="615" y="10" on="0"/>
        <pt x="594" y="-3" on="1"/>
        <pt x="584" y="-10" on="0"/>
        <pt x="573" y="-10" on="1"/>
        <pt x="552" y="-3" on="1"/>
        <pt x="531" y="10" on="0"/>
        <pt x="532" y="41" on="1"/>
        <pt x="538" y="345" on="1"/>
        <pt x="538" y="377" on="1"/>
        <pt x="500" y="345" on="0"/>
        <pt x="361" y="307" on="0"/>
        <pt x="234" y="307" on="0"/>
        <pt x="184" y="317" on="1"/>
        <pt x="189" y="41" on="1"/>
        <pt x="190" y="10" on="0"/>
        <pt x="169" y="-3" on="1"/>
        <pt x="158" y="-10" on="0"/>
        <pt x="148" y="-10" on="1"/>
        <pt x="127" y="-3" on="1"/>
        <pt x="106" y="10" on="0"/>
        <pt x="107" y="41" on="1"/>
        <pt x="111" y="334" on="1"/>
        <pt x="45" y="356" on="0"/>
      </contour>
    </TTGlyph>
    <TTGlyph name="Hbar" xMin="17" yMin="-10" xMax="733" yMax="760">
      <contour>
        <pt x="375" y="610" on="1"/>
        <pt x="200" y="609" on="1"/>
        <pt x="198" y="495" on="0"/>
        <pt x="198" y="389" on="1"/>
        <pt x="242" y="374" on="0"/>
        <pt x="313" y="374" on="1"/>
        <pt x="473" y="374" on="0"/>
        <pt x="551" y="472" on="1"/>
        <pt x="549" y="609" on="1"/>
        <pt x="496" y="610" on="0"/>
      </contour>
      <contour>
        <pt x="121" y="41" on="1"/>
        <pt x="125" y="334" on="1"/>
        <pt x="59" y="356" on="0"/>
        <pt x="59" y="397" on="1"/>
        <pt x="59" y="414" on="0"/>
        <pt x="77" y="432" on="0"/>
        <pt x="100" y="432" on="0"/>
        <pt x="124" y="416" on="1"/>
        <pt x="124" y="607" on="1"/>
        <pt x="58" y="607" on="1"/>
        <pt x="40" y="607" on="0"/>
        <pt x="17" y="626" on="0"/>
        <pt x="17" y="655" on="0"/>
        <pt x="40" y="673" on="0"/>
        <pt x="93" y="673" on="0"/>
        <pt x="121" y="672" on="1"/>
        <pt x="121" y="709" on="1"/>
        <pt x="121" y="731" on="0"/>
        <pt x="145" y="760" on="0"/>
        <pt x="179" y="760" on="0"/>
        <pt x="203" y="731" on="0"/>
        <pt x="203" y="688" on="0"/>
        <pt x="202" y="671" on="1"/>
        <pt x="256" y="670" on="0"/>
        <pt x="493" y="670" on="0"/>
        <pt x="546" y="671" on="1"/>
        <pt x="546" y="709" on="1"/>
        <pt x="546" y="732" on="0"/>
        <pt x="568" y="760" on="0"/>
        <pt x="604" y="760" on="0"/>
        <pt x="625" y="744" on="0"/>
        <pt x="630" y="730" on="1"/>
        <pt x="637" y="705" on="0"/>
        <pt x="637" y="672" on="1"/>
        <pt x="661" y="673" on="0"/>
        <pt x="710" y="673" on="0"/>
        <pt x="733" y="655" on="0"/>
        <pt x="733" y="625" on="0"/>
        <pt x="710" y="607" on="0"/>
        <pt x="692" y="607" on="1"/>
        <pt x="637" y="607" on="1"/>
        <pt x="631" y="508" on="0"/>
        <pt x="621" y="437" on="1"/>
        <pt x="628" y="41" on="1"/>
        <pt x="628" y="19" on="0"/>
        <pt x="604" y="-10" on="0"/>
        <pt x="570" y="-10" on="0"/>
        <pt x="546" y="19" on="0"/>
        <pt x="546" y="41" on="1"/>
        <pt x="552" y="345" on="1"/>
        <pt x="552" y="377" on="1"/>
        <pt x="511" y="345" on="0"/>
        <pt x="378" y="307" on="0"/>
        <pt x="245" y="307" on="0"/>
        <pt x="198" y="317" on="1"/>
        <pt x="203" y="41" on="1"/>
        <pt x="203" y="19" on="0"/>
        <pt x="179" y="-10" on="0"/>
        <pt x="145" y="-10" on="0"/>
        <pt x="121" y="19" on="0"/>
      </contour>
    </TTGlyph>
    <TTGlyph name="I" xMin="37" yMin="-15" xMax="558" yMax="760">
      <contour>
        <pt x="487" y="444" on="1"/>
        <pt x="486" y="275" on="1"/>
        <pt x="486" y="127" on="0"/>
        <pt x="345" y="-15" on="0"/>
        <pt x="144" y="-15" on="0"/>
        <pt x="90" y="43" on="1"/>
        <pt x="37" y="102" on="0"/>
        <pt x="37" y="247" on="0"/>
        <pt x="129" y="338" on="0"/>
        <pt x="249" y="338" on="0"/>
        <pt x="319" y="262" on="0"/>
        <pt x="319" y="152" on="0"/>
        <pt x="282" y="127" on="1"/>
        <pt x="270" y="120" on="0"/>
        <pt x="262" y="120" on="1"/>
        <pt x="247" y="120" on="0"/>
        <pt x="249" y="135" on="1"/>
        <pt x="249" y="136" on="0"/>
        <pt x="252" y="146" on="1"/>
        <pt x="258" y="174" on="0"/>
        <pt x="258" y="226" on="0"/>
        <pt x="216" y="271" on="0"/>
        <pt x="152" y="271" on="0"/>
        <pt x="109" y="220" on="0"/>
        <pt x="109" y="133" on="0"/>
        <pt x="141" y="93" on="1"/>
        <pt x="174" y="55" on="0"/>
        <pt x="237" y="55" on="1"/>
        <pt x="320" y="55" on="0"/>
        <pt x="414" y="166" on="0"/>
        <pt x="414" y="266" on="1"/>
        <pt x="415" y="444" on="1"/>
        <pt x="415" y="583" on="0"/>
        <pt x="413" y="671" on="1"/>
        <pt x="354" y="662" on="0"/>
        <pt x="314" y="662" on="1"/>
        <pt x="98" y="662" on="0"/>
        <pt x="98" y="725" on="1"/>
        <pt x="98" y="760" on="0"/>
        <pt x="136" y="760" on="1"/>
        <pt x="141" y="760" on="0"/>
        <pt x="262" y="735" on="0"/>
        <pt x="366" y="735" on="0"/>
        <pt x="509" y="760" on="0"/>
        <pt x="516" y="760" on="1"/>
        <pt x="558" y="760" on="0"/>
        <pt x="558" y="693" on="0"/>
        <pt x="489" y="681" on="1"/>
        <pt x="487" y="587" on="0"/>
      </contour>
    </TTGlyph>
    <TTGlyph name="IJ" xMin="37" yMin="-235" xMax="1051" yMax="761">
      <contour>
        <pt x="980" y="485" on="1"/>
        <pt x="979" y="238" on="1"/>
        <pt x="979" y="75" on="1"/>
        <pt x="979" y="-81" on="0"/>
        <pt x="844" y="-235" on="0"/>
        <pt x="641" y="-235" on="0"/>
        <pt x="584" y="-171" on="1"/>
        <pt x="528" y="-106" on="0"/>
        <pt x="528" y="52" on="0"/>
        <pt x="624" y="157" on="0"/>
        <pt x="750" y="157" on="0"/>
        <pt x="825" y="81" on="0"/>
        <pt x="825" y="-29" on="0"/>
        <pt x="787" y="-54" on="1"/>
        <pt x="775" y="-61" on="0"/>
        <pt x="768" y="-61" on="1"/>
        <pt x="753" y="-61" on="0"/>
        <pt x="755" y="-46" on="1"/>
        <pt x="755" y="-45" on="0"/>
        <pt x="758" y="-34" on="1"/>
        <pt x="764" y="-7" on="0"/>
        <pt x="764" y="46" on="0"/>
        <pt x="720" y="91" on="0"/>
        <pt x="650" y="91" on="0"/>
        <pt x="600" y="22" on="0"/>
        <pt x="600" y="-83" on="0"/>
        <pt x="674" y="-167" on="0"/>
        <pt x="738" y="-167" on="1"/>
        <pt x="819" y="-167" on="0"/>
        <pt x="909" y="-38" on="0"/>
        <pt x="909" y="76" on="1"/>
        <pt x="909" y="349" on="0"/>
        <pt x="906" y="623" on="0"/>
        <pt x="906" y="672" on="1"/>
        <pt x="848" y="663" on="0"/>
        <pt x="807" y="663" on="1"/>
        <pt x="591" y="663" on="0"/>
        <pt x="591" y="726" on="1"/>
        <pt x="591" y="761" on="0"/>
        <pt x="629" y="761" on="1"/>
        <pt x="634" y="761" on="0"/>
        <pt x="755" y="736" on="0"/>
        <pt x="859" y="736" on="0"/>
        <pt x="1002" y="761" on="0"/>
        <pt x="1009" y="761" on="1"/>
        <pt x="1051" y="761" on="0"/>
        <pt x="1051" y="694" on="0"/>
        <pt x="982" y="682" on="1"/>
        <pt x="982" y="668" on="1"/>
      </contour>
      <contour>
        <pt x="487" y="444" on="1"/>
        <pt x="486" y="275" on="1"/>
        <pt x="486" y="127" on="0"/>
        <pt x="345" y="-15" on="0"/>
        <pt x="144" y="-15" on="0"/>
        <pt x="90" y="43" on="1"/>
        <pt x="37" y="102" on="0"/>
        <pt x="37" y="247" on="0"/>
        <pt x="129" y="338" on="0"/>
        <pt x="249" y="338" on="0"/>
        <pt x="319" y="262" on="0"/>
        <pt x="319" y="152" on="0"/>
        <pt x="282" y="127" on="1"/>
        <pt x="270" y="120" on="0"/>
        <pt x="262" y="120" on="1"/>
        <pt x="247" y="120" on="0"/>
        <pt x="249" y="135" on="1"/>
        <pt x="249" y="136" on="0"/>
        <pt x="252" y="146" on="1"/>
        <pt x="258" y="174" on="0"/>
        <pt x="258" y="226" on="0"/>
        <pt x="216" y="271" on="0"/>
        <pt x="152" y="271" on="0"/>
        <pt x="109" y="220" on="0"/>
        <pt x="109" y="133" on="0"/>
        <pt x="141" y="93" on="1"/>
        <pt x="174" y="55" on="0"/>
        <pt x="237" y="55" on="1"/>
        <pt x="320" y="55" on="0"/>
        <pt x="414" y="166" on="0"/>
        <pt x="414" y="266" on="1"/>
        <pt x="415" y="444" on="1"/>
        <pt x="415" y="583" on="0"/>
        <pt x="413" y="671" on="1"/>
        <pt x="354" y="662" on="0"/>
        <pt x="314" y="662" on="1"/>
        <pt x="98" y="662" on="0"/>
        <pt x="98" y="725" on="1"/>
        <pt x="98" y="760" on="0"/>
        <pt x="136" y="760" on="1"/>
        <pt x="141" y="760" on="0"/>
        <pt x="262" y="735" on="0"/>
        <pt x="366" y="735" on="0"/>
        <pt x="509" y="760" on="0"/>
        <pt x="516" y="760" on="1"/>
        <pt x="558" y="760" on="0"/>
        <pt x="558" y="693" on="0"/>
        <pt x="489" y="681" on="1"/>
        <pt x="487" y="587" on="0"/>
      </contour>
    </TTGlyph>
    <TTGlyph name="Iacute" xMin="37" yMin="-15" xMax="558" yMax="970">
      <contour>
        <pt x="487" y="444" on="1"/>
        <pt x="486" y="275" on="1"/>
        <pt x="486" y="127" on="0"/>
        <pt x="345" y="-15" on="0"/>
        <pt x="144" y="-15" on="0"/>
        <pt x="90" y="43" on="1"/>
        <pt x="37" y="102" on="0"/>
        <pt x="37" y="247" on="0"/>
        <pt x="129" y="338" on="0"/>
        <pt x="249" y="338" on="0"/>
        <pt x="319" y="262" on="0"/>
        <pt x="319" y="152" on="0"/>
        <pt x="282" y="127" on="1"/>
        <pt x="270" y="120" on="0"/>
        <pt x="262" y="120" on="1"/>
        <pt x="247" y="120" on="0"/>
        <pt x="249" y="135" on="1"/>
        <pt x="249" y="136" on="0"/>
        <pt x="252" y="146" on="1"/>
        <pt x="258" y="174" on="0"/>
        <pt x="258" y="226" on="0"/>
        <pt x="216" y="271" on="0"/>
        <pt x="152" y="271" on="0"/>
        <pt x="109" y="220" on="0"/>
        <pt x="109" y="133" on="0"/>
        <pt x="141" y="93" on="1"/>
        <pt x="174" y="55" on="0"/>
        <pt x="237" y="55" on="1"/>
        <pt x="320" y="55" on="0"/>
        <pt x="414" y="166" on="0"/>
        <pt x="414" y="266" on="1"/>
        <pt x="415" y="444" on="1"/>
        <pt x="415" y="583" on="0"/>
        <pt x="413" y="671" on="1"/>
        <pt x="354" y="662" on="0"/>
        <pt x="314" y="662" on="1"/>
        <pt x="98" y="662" on="0"/>
        <pt x="98" y="725" on="1"/>
        <pt x="98" y="760" on="0"/>
        <pt x="136" y="760" on="1"/>
        <pt x="141" y="760" on="0"/>
        <pt x="262" y="735" on="0"/>
        <pt x="366" y="735" on="0"/>
        <pt x="509" y="760" on="0"/>
        <pt x="516" y="760" on="1"/>
        <pt x="558" y="760" on="0"/>
        <pt x="558" y="693" on="0"/>
        <pt x="489" y="681" on="1"/>
        <pt x="487" y="587" on="0"/>
      </contour>
      <contour>
        <pt x="427" y="932" on="1"/>
        <pt x="427" y="889" on="0"/>
        <pt x="335" y="802" on="0"/>
        <pt x="283" y="802" on="0"/>
        <pt x="282" y="824" on="1"/>
        <pt x="282" y="837" on="0"/>
        <pt x="304" y="860" on="0"/>
        <pt x="321" y="881" on="1"/>
        <pt x="329" y="893" on="0"/>
        <pt x="351" y="944" on="0"/>
        <pt x="374" y="970" on="0"/>
        <pt x="408" y="970" on="0"/>
        <pt x="427" y="948" on="0"/>
      </contour>
    </TTGlyph>
    <TTGlyph name="Icircumflex" xMin="37" yMin="-15" xMax="558" yMax="985">
      <component glyphName="I" x="0" y="0" flags="0x1004"/>
      <component glyphName="circumflex" x="113" y="225" flags="0x1004"/>
    </TTGlyph>
    <TTGlyph name="Idieresis" xMin="37" yMin="-15" xMax="558" yMax="953">
      <contour>
        <pt x="487" y="444" on="1"/>
        <pt x="486" y="275" on="1"/>
        <pt x="486" y="127" on="0"/>
        <pt x="345" y="-15" on="0"/>
        <pt x="144" y="-15" on="0"/>
        <pt x="90" y="43" on="1"/>
        <pt x="37" y="102" on="0"/>
        <pt x="37" y="247" on="0"/>
        <pt x="129" y="338" on="0"/>
        <pt x="249" y="338" on="0"/>
        <pt x="319" y="262" on="0"/>
        <pt x="319" y="152" on="0"/>
        <pt x="282" y="127" on="1"/>
        <pt x="270" y="120" on="0"/>
        <pt x="262" y="120" on="1"/>
        <pt x="247" y="120" on="0"/>
        <pt x="249" y="135" on="1"/>
        <pt x="249" y="136" on="0"/>
        <pt x="252" y="146" on="1"/>
        <pt x="258" y="174" on="0"/>
        <pt x="258" y="226" on="0"/>
        <pt x="216" y="271" on="0"/>
        <pt x="152" y="271" on="0"/>
        <pt x="109" y="220" on="0"/>
        <pt x="109" y="133" on="0"/>
        <pt x="141" y="93" on="1"/>
        <pt x="174" y="55" on="0"/>
        <pt x="237" y="55" on="1"/>
        <pt x="320" y="55" on="0"/>
        <pt x="414" y="166" on="0"/>
        <pt x="414" y="266" on="1"/>
        <pt x="415" y="444" on="1"/>
        <pt x="415" y="583" on="0"/>
        <pt x="413" y="671" on="1"/>
        <pt x="354" y="662" on="0"/>
        <pt x="314" y="662" on="1"/>
        <pt x="98" y="662" on="0"/>
        <pt x="98" y="725" on="1"/>
        <pt x="98" y="760" on="0"/>
        <pt x="136" y="760" on="1"/>
        <pt x="141" y="760" on="0"/>
        <pt x="262" y="735" on="0"/>
        <pt x="366" y="735" on="0"/>
        <pt x="509" y="760" on="0"/>
        <pt x="516" y="760" on="1"/>
        <pt x="558" y="760" on="0"/>
        <pt x="558" y="693" on="0"/>
        <pt x="489" y="681" on="1"/>
        <pt x="487" y="587" on="0"/>
      </contour>
      <contour>
        <pt x="248" y="953" on="1"/>
        <pt x="289" y="953" on="0"/>
        <pt x="289" y="905" on="1"/>
        <pt x="289" y="883" on="0"/>
        <pt x="260" y="844" on="0"/>
        <pt x="240" y="844" on="1"/>
        <pt x="198" y="844" on="0"/>
        <pt x="198" y="895" on="1"/>
        <pt x="198" y="919" on="0"/>
        <pt x="227" y="953" on="0"/>
      </contour>
      <contour>
        <pt x="408" y="953" on="1"/>
        <pt x="449" y="953" on="0"/>
        <pt x="449" y="905" on="1"/>
        <pt x="449" y="883" on="0"/>
        <pt x="420" y="844" on="0"/>
        <pt x="400" y="844" on="1"/>
        <pt x="358" y="844" on="0"/>
        <pt x="358" y="895" on="1"/>
        <pt x="358" y="919" on="0"/>
        <pt x="387" y="953" on="0"/>
      </contour>
    </TTGlyph>
    <TTGlyph name="Idot" xMin="37" yMin="-15" xMax="558" yMax="955">
      <contour>
        <pt x="337" y="955" on="1"/>
        <pt x="378" y="955" on="0"/>
        <pt x="378" y="907" on="1"/>
        <pt x="378" y="885" on="0"/>
        <pt x="349" y="846" on="0"/>
        <pt x="329" y="846" on="1"/>
        <pt x="287" y="846" on="0"/>
        <pt x="287" y="897" on="1"/>
        <pt x="287" y="921" on="0"/>
        <pt x="316" y="955" on="0"/>
      </contour>
      <contour>
        <pt x="487" y="444" on="1"/>
        <pt x="486" y="275" on="1"/>
        <pt x="486" y="127" on="0"/>
        <pt x="345" y="-15" on="0"/>
        <pt x="144" y="-15" on="0"/>
        <pt x="90" y="43" on="1"/>
        <pt x="37" y="102" on="0"/>
        <pt x="37" y="247" on="0"/>
        <pt x="129" y="338" on="0"/>
        <pt x="249" y="338" on="0"/>
        <pt x="319" y="262" on="0"/>
        <pt x="319" y="152" on="0"/>
        <pt x="282" y="127" on="1"/>
        <pt x="270" y="120" on="0"/>
        <pt x="262" y="120" on="1"/>
        <pt x="247" y="120" on="0"/>
        <pt x="249" y="135" on="1"/>
        <pt x="249" y="136" on="0"/>
        <pt x="252" y="146" on="1"/>
        <pt x="258" y="174" on="0"/>
        <pt x="258" y="226" on="0"/>
        <pt x="216" y="271" on="0"/>
        <pt x="152" y="271" on="0"/>
        <pt x="109" y="220" on="0"/>
        <pt x="109" y="133" on="0"/>
        <pt x="141" y="93" on="1"/>
        <pt x="174" y="55" on="0"/>
        <pt x="237" y="55" on="1"/>
        <pt x="320" y="55" on="0"/>
        <pt x="414" y="166" on="0"/>
        <pt x="414" y="266" on="1"/>
        <pt x="415" y="444" on="1"/>
        <pt x="415" y="583" on="0"/>
        <pt x="413" y="671" on="1"/>
        <pt x="354" y="662" on="0"/>
        <pt x="314" y="662" on="1"/>
        <pt x="98" y="662" on="0"/>
        <pt x="98" y="725" on="1"/>
        <pt x="98" y="760" on="0"/>
        <pt x="136" y="760" on="1"/>
        <pt x="141" y="760" on="0"/>
        <pt x="262" y="735" on="0"/>
        <pt x="366" y="735" on="0"/>
        <pt x="509" y="760" on="0"/>
        <pt x="516" y="760" on="1"/>
        <pt x="558" y="760" on="0"/>
        <pt x="558" y="693" on="0"/>
        <pt x="489" y="681" on="1"/>
        <pt x="487" y="587" on="0"/>
      </contour>
    </TTGlyph>
    <TTGlyph name="Igrave" xMin="37" yMin="-15" xMax="558" yMax="970">
      <component glyphName="I" x="0" y="0" flags="0x1004"/>
      <component glyphName="grave" x="156" y="210" flags="0x1004"/>
    </TTGlyph>
    <TTGlyph name="Itilde" xMin="37" yMin="-15" xMax="558" yMax="935">
      <component glyphName="I" x="0" y="0" flags="0x1004"/>
      <component glyphName="tilde" x="68" y="220" flags="0x1004"/>
    </TTGlyph>
    <TTGlyph name="J" xMin="8" yMin="-235" xMax="531" yMax="761">
      <contour>
        <pt x="460" y="485" on="1"/>
        <pt x="459" y="238" on="1"/>
        <pt x="459" y="75" on="1"/>
        <pt x="459" y="-81" on="0"/>
        <pt x="324" y="-235" on="0"/>
        <pt x="121" y="-235" on="0"/>
        <pt x="64" y="-171" on="1"/>
        <pt x="8" y="-106" on="0"/>
        <pt x="8" y="52" on="0"/>
        <pt x="104" y="157" on="0"/>
        <pt x="231" y="157" on="0"/>
        <pt x="305" y="81" on="0"/>
        <pt x="305" y="-29" on="0"/>
        <pt x="267" y="-54" on="1"/>
        <pt x="255" y="-61" on="0"/>
        <pt x="248" y="-61" on="1"/>
        <pt x="233" y="-61" on="0"/>
        <pt x="235" y="-46" on="1"/>
        <pt x="235" y="-45" on="0"/>
        <pt x="238" y="-34" on="1"/>
        <pt x="244" y="-7" on="0"/>
        <pt x="244" y="46" on="0"/>
        <pt x="200" y="91" on="0"/>
        <pt x="130" y="91" on="0"/>
        <pt x="80" y="22" on="0"/>
        <pt x="80" y="-83" on="0"/>
        <pt x="154" y="-167" on="0"/>
        <pt x="218" y="-167" on="1"/>
        <pt x="299" y="-167" on="0"/>
        <pt x="389" y="-38" on="0"/>
        <pt x="389" y="76" on="1"/>
        <pt x="389" y="349" on="0"/>
        <pt x="386" y="623" on="0"/>
        <pt x="386" y="672" on="1"/>
        <pt x="328" y="663" on="0"/>
        <pt x="287" y="663" on="1"/>
        <pt x="71" y="663" on="0"/>
        <pt x="71" y="726" on="1"/>
        <pt x="71" y="761" on="0"/>
        <pt x="109" y="761" on="1"/>
        <pt x="114" y="761" on="0"/>
        <pt x="234" y="736" on="0"/>
        <pt x="339" y="736" on="0"/>
        <pt x="482" y="761" on="0"/>
        <pt x="489" y="761" on="1"/>
        <pt x="531" y="761" on="0"/>
        <pt x="531" y="694" on="0"/>
        <pt x="462" y="682" on="1"/>
        <pt x="462" y="668" on="1"/>
      </contour>
    </TTGlyph>
    <TTGlyph name="Jcircumflex" xMin="8" yMin="-235" xMax="531" yMax="985">
      <contour>
        <pt x="460" y="485" on="1"/>
        <pt x="459" y="238" on="1"/>
        <pt x="459" y="75" on="1"/>
        <pt x="459" y="-81" on="0"/>
        <pt x="324" y="-235" on="0"/>
        <pt x="121" y="-235" on="0"/>
        <pt x="64" y="-171" on="1"/>
        <pt x="8" y="-106" on="0"/>
        <pt x="8" y="52" on="0"/>
        <pt x="104" y="157" on="0"/>
        <pt x="231" y="157" on="0"/>
        <pt x="305" y="81" on="0"/>
        <pt x="305" y="-29" on="0"/>
        <pt x="267" y="-54" on="1"/>
        <pt x="255" y="-61" on="0"/>
        <pt x="248" y="-61" on="1"/>
        <pt x="233" y="-61" on="0"/>
        <pt x="235" y="-46" on="1"/>
        <pt x="235" y="-45" on="0"/>
        <pt x="238" y="-34" on="1"/>
        <pt x="244" y="-7" on="0"/>
        <pt x="244" y="46" on="0"/>
        <pt x="200" y="91" on="0"/>
        <pt x="130" y="91" on="0"/>
        <pt x="80" y="22" on="0"/>
        <pt x="80" y="-83" on="0"/>
        <pt x="154" y="-167" on="0"/>
        <pt x="218" y="-167" on="1"/>
        <pt x="299" y="-167" on="0"/>
        <pt x="389" y="-38" on="0"/>
        <pt x="389" y="76" on="1"/>
        <pt x="389" y="349" on="0"/>
        <pt x="386" y="623" on="0"/>
        <pt x="386" y="672" on="1"/>
        <pt x="328" y="663" on="0"/>
        <pt x="287" y="663" on="1"/>
        <pt x="71" y="663" on="0"/>
        <pt x="71" y="726" on="1"/>
        <pt x="71" y="761" on="0"/>
        <pt x="109" y="761" on="1"/>
        <pt x="114" y="761" on="0"/>
        <pt x="234" y="736" on="0"/>
        <pt x="339" y="736" on="0"/>
        <pt x="482" y="761" on="0"/>
        <pt x="489" y="761" on="1"/>
        <pt x="531" y="761" on="0"/>
        <pt x="531" y="694" on="0"/>
        <pt x="462" y="682" on="1"/>
        <pt x="462" y="668" on="1"/>
      </contour>
      <contour>
        <pt x="354" y="863" on="1"/>
        <pt x="314" y="911" on="0"/>
        <pt x="284" y="911" on="0"/>
        <pt x="243" y="863" on="1"/>
        <pt x="240" y="861" on="0"/>
        <pt x="205" y="813" on="0"/>
        <pt x="172" y="813" on="0"/>
        <pt x="162" y="821" on="1"/>
        <pt x="152" y="832" on="0"/>
        <pt x="152" y="856" on="0"/>
        <pt x="170" y="874" on="0"/>
        <pt x="183" y="885" on="1"/>
        <pt x="220" y="916" on="0"/>
        <pt x="239" y="944" on="1"/>
        <pt x="257" y="967" on="0"/>
        <pt x="268" y="976" on="1"/>
        <pt x="280" y="985" on="0"/>
        <pt x="316" y="985" on="0"/>
        <pt x="339" y="968" on="0"/>
        <pt x="378" y="919" on="0"/>
        <pt x="398" y="899" on="0"/>
        <pt x="412" y="888" on="1"/>
        <pt x="436" y="868" on="0"/>
        <pt x="440" y="858" on="1"/>
        <pt x="444" y="853" on="0"/>
        <pt x="444" y="839" on="0"/>
        <pt x="441" y="830" on="1"/>
        <pt x="434" y="813" on="0"/>
        <pt x="413" y="813" on="1"/>
        <pt x="411" y="813" on="0"/>
        <pt x="401" y="813" on="0"/>
        <pt x="379" y="831" on="0"/>
        <pt x="356" y="862" on="0"/>
      </contour>
    </TTGlyph>
    <TTGlyph name="K" xMin="42" yMin="-81" xMax="705" yMax="760">
      <contour>
        <pt x="238" y="437" on="1"/>
        <pt x="239" y="349" on="1"/>
        <pt x="303" y="355" on="0"/>
        <pt x="334" y="377" on="1"/>
        <pt x="301" y="426" on="0"/>
      </contour>
      <contour>
        <pt x="170" y="355" on="1"/>
        <pt x="170" y="441" on="1"/>
        <pt x="143" y="437" on="0"/>
        <pt x="111" y="414" on="0"/>
        <pt x="111" y="399" on="1"/>
        <pt x="111" y="369" on="0"/>
      </contour>
      <contour>
        <pt x="165" y="34" on="1"/>
        <pt x="168" y="283" on="1"/>
        <pt x="109" y="295" on="0"/>
        <pt x="42" y="360" on="0"/>
        <pt x="42" y="444" on="0"/>
        <pt x="110" y="508" on="0"/>
        <pt x="168" y="515" on="1"/>
        <pt x="163" y="709" on="1"/>
        <pt x="163" y="732" on="0"/>
        <pt x="185" y="760" on="0"/>
        <pt x="223" y="760" on="0"/>
        <pt x="245" y="732" on="0"/>
        <pt x="245" y="695" on="0"/>
        <pt x="240" y="512" on="1"/>
        <pt x="338" y="495" on="0"/>
        <pt x="390" y="426" on="1"/>
        <pt x="438" y="480" on="0"/>
        <pt x="507" y="635" on="0"/>
        <pt x="519" y="716" on="1"/>
        <pt x="527" y="760" on="0"/>
        <pt x="560" y="760" on="1"/>
        <pt x="575" y="760" on="0"/>
        <pt x="594" y="740" on="0"/>
        <pt x="594" y="723" on="1"/>
        <pt x="594" y="652" on="0"/>
        <pt x="494" y="438" on="0"/>
        <pt x="430" y="368" on="1"/>
        <pt x="530" y="163" on="0"/>
        <pt x="591" y="65" on="1"/>
        <pt x="632" y="-1" on="0"/>
        <pt x="680" y="-4" on="1"/>
        <pt x="688" y="-4" on="1"/>
        <pt x="705" y="-4" on="0"/>
        <pt x="705" y="-9" on="1"/>
        <pt x="705" y="-14" on="1"/>
        <pt x="705" y="-44" on="0"/>
        <pt x="670" y="-81" on="0"/>
        <pt x="622" y="-81" on="0"/>
        <pt x="589" y="-61" on="0"/>
        <pt x="576" y="-47" on="0"/>
        <pt x="562" y="-30" on="1"/>
        <pt x="533" y="3" on="0"/>
        <pt x="477" y="109" on="1"/>
        <pt x="369" y="321" on="1"/>
        <pt x="312" y="289" on="0"/>
        <pt x="240" y="280" on="1"/>
        <pt x="247" y="41" on="1"/>
        <pt x="247" y="37" on="0"/>
        <pt x="247" y="34" on="1"/>
        <pt x="247" y="8" on="0"/>
        <pt x="228" y="-4" on="1"/>
        <pt x="217" y="-10" on="0"/>
        <pt x="206" y="-10" on="1"/>
        <pt x="184" y="-4" on="1"/>
        <pt x="165" y="8" on="0"/>
      </contour>
    </TTGlyph>
    <TTGlyph name="Kcommaaccent" xMin="42" yMin="-235" xMax="705" yMax="760">
      <contour>
        <pt x="358" y="-99" on="1"/>
        <pt x="358" y="-142" on="0"/>
        <pt x="281" y="-235" on="0"/>
        <pt x="256" y="-235" on="1"/>
        <pt x="246" y="-235" on="0"/>
        <pt x="233" y="-223" on="0"/>
        <pt x="232" y="-210" on="0"/>
        <pt x="240" y="-192" on="0"/>
        <pt x="258" y="-163" on="0"/>
        <pt x="267" y="-143" on="0"/>
        <pt x="281" y="-84" on="0"/>
        <pt x="302" y="-54" on="0"/>
        <pt x="326" y="-54" on="0"/>
        <pt x="335" y="-58" on="1"/>
        <pt x="359" y="-69" on="0"/>
        <pt x="359" y="-92" on="1"/>
        <pt x="359" y="-95" on="0"/>
      </contour>
      <contour>
        <pt x="238" y="437" on="1"/>
        <pt x="239" y="349" on="1"/>
        <pt x="303" y="355" on="0"/>
        <pt x="334" y="377" on="1"/>
        <pt x="301" y="426" on="0"/>
      </contour>
      <contour>
        <pt x="170" y="355" on="1"/>
        <pt x="170" y="441" on="1"/>
        <pt x="143" y="437" on="0"/>
        <pt x="111" y="414" on="0"/>
        <pt x="111" y="399" on="1"/>
        <pt x="111" y="369" on="0"/>
      </contour>
      <contour>
        <pt x="165" y="34" on="1"/>
        <pt x="168" y="283" on="1"/>
        <pt x="109" y="295" on="0"/>
        <pt x="42" y="360" on="0"/>
        <pt x="42" y="444" on="0"/>
        <pt x="110" y="508" on="0"/>
        <pt x="168" y="515" on="1"/>
        <pt x="163" y="709" on="1"/>
        <pt x="163" y="732" on="0"/>
        <pt x="185" y="760" on="0"/>
        <pt x="223" y="760" on="0"/>
        <pt x="245" y="732" on="0"/>
        <pt x="245" y="695" on="0"/>
        <pt x="240" y="512" on="1"/>
        <pt x="338" y="495" on="0"/>
        <pt x="390" y="426" on="1"/>
        <pt x="438" y="480" on="0"/>
        <pt x="507" y="635" on="0"/>
        <pt x="519" y="716" on="1"/>
        <pt x="527" y="760" on="0"/>
        <pt x="560" y="760" on="1"/>
        <pt x="575" y="760" on="0"/>
        <pt x="594" y="740" on="0"/>
        <pt x="594" y="723" on="1"/>
        <pt x="594" y="652" on="0"/>
        <pt x="494" y="438" on="0"/>
        <pt x="430" y="368" on="1"/>
        <pt x="530" y="163" on="0"/>
        <pt x="591" y="65" on="1"/>
        <pt x="632" y="-1" on="0"/>
        <pt x="680" y="-4" on="1"/>
        <pt x="688" y="-4" on="1"/>
        <pt x="705" y="-4" on="0"/>
        <pt x="705" y="-9" on="1"/>
        <pt x="705" y="-14" on="1"/>
        <pt x="705" y="-44" on="0"/>
        <pt x="670" y="-81" on="0"/>
        <pt x="622" y="-81" on="0"/>
        <pt x="589" y="-61" on="0"/>
        <pt x="576" y="-47" on="0"/>
        <pt x="562" y="-30" on="1"/>
        <pt x="533" y="3" on="0"/>
        <pt x="477" y="109" on="1"/>
        <pt x="369" y="321" on="1"/>
        <pt x="312" y="289" on="0"/>
        <pt x="240" y="280" on="1"/>
        <pt x="247" y="41" on="1"/>
        <pt x="247" y="37" on="0"/>
        <pt x="247" y="34" on="1"/>
        <pt x="247" y="8" on="0"/>
        <pt x="228" y="-4" on="1"/>
        <pt x="217" y="-10" on="0"/>
        <pt x="206" y="-10" on="1"/>
        <pt x="184" y="-4" on="1"/>
        <pt x="165" y="8" on="0"/>
      </contour>
    </TTGlyph>
    <TTGlyph name="L" xMin="35" yMin="-16" xMax="587" yMax="762">
      <contour>
        <pt x="160" y="13" on="1"/>
        <pt x="113" y="-9" on="0"/>
        <pt x="67" y="-9" on="0"/>
        <pt x="35" y="24" on="0"/>
        <pt x="35" y="72" on="0"/>
        <pt x="50" y="88" on="1"/>
        <pt x="65" y="105" on="0"/>
        <pt x="103" y="105" on="0"/>
        <pt x="127" y="98" on="1"/>
        <pt x="147" y="164" on="0"/>
        <pt x="147" y="382" on="1"/>
        <pt x="147" y="497" on="0"/>
        <pt x="121" y="713" on="0"/>
        <pt x="121" y="738" on="0"/>
        <pt x="143" y="762" on="0"/>
        <pt x="160" y="762" on="1"/>
        <pt x="196" y="762" on="0"/>
        <pt x="204" y="711" on="1"/>
        <pt x="219" y="602" on="0"/>
        <pt x="219" y="167" on="0"/>
        <pt x="198" y="77" on="1"/>
        <pt x="267" y="55" on="0"/>
        <pt x="366" y="55" on="1"/>
        <pt x="426" y="55" on="0"/>
        <pt x="513" y="112" on="0"/>
        <pt x="513" y="159" on="1"/>
        <pt x="513" y="182" on="0"/>
        <pt x="484" y="215" on="0"/>
        <pt x="463" y="215" on="1"/>
        <pt x="424" y="215" on="0"/>
        <pt x="416" y="176" on="1"/>
        <pt x="406" y="137" on="0"/>
        <pt x="387" y="137" on="1"/>
        <pt x="375" y="137" on="0"/>
        <pt x="357" y="169" on="0"/>
        <pt x="357" y="188" on="1"/>
        <pt x="357" y="225" on="0"/>
        <pt x="418" y="281" on="0"/>
        <pt x="512" y="281" on="0"/>
        <pt x="587" y="215" on="0"/>
        <pt x="587" y="159" on="1"/>
        <pt x="587" y="80" on="0"/>
        <pt x="522" y="34" on="1"/>
        <pt x="453" y="-15" on="0"/>
        <pt x="269" y="-15" on="0"/>
      </contour>
    </TTGlyph>
    <TTGlyph name="Ldot" xMin="35" yMin="-16" xMax="587" yMax="762">
      <contour>
        <pt x="343" y="490" on="0"/>
        <pt x="385" y="490" on="0"/>
        <pt x="408" y="460" on="0"/>
        <pt x="408" y="411" on="0"/>
        <pt x="378" y="373" on="0"/>
        <pt x="338" y="373" on="0"/>
        <pt x="314" y="404" on="0"/>
        <pt x="314" y="452" on="0"/>
      </contour>
      <contour>
        <pt x="160" y="13" on="1"/>
        <pt x="113" y="-9" on="0"/>
        <pt x="67" y="-9" on="0"/>
        <pt x="35" y="24" on="0"/>
        <pt x="35" y="72" on="0"/>
        <pt x="50" y="88" on="1"/>
        <pt x="65" y="105" on="0"/>
        <pt x="103" y="105" on="0"/>
        <pt x="127" y="98" on="1"/>
        <pt x="147" y="164" on="0"/>
        <pt x="147" y="382" on="1"/>
        <pt x="147" y="497" on="0"/>
        <pt x="121" y="713" on="0"/>
        <pt x="121" y="738" on="0"/>
        <pt x="143" y="762" on="0"/>
        <pt x="160" y="762" on="1"/>
        <pt x="196" y="762" on="0"/>
        <pt x="204" y="711" on="1"/>
        <pt x="219" y="602" on="0"/>
        <pt x="219" y="167" on="0"/>
        <pt x="198" y="77" on="1"/>
        <pt x="267" y="55" on="0"/>
        <pt x="366" y="55" on="1"/>
        <pt x="426" y="55" on="0"/>
        <pt x="513" y="112" on="0"/>
        <pt x="513" y="159" on="1"/>
        <pt x="513" y="182" on="0"/>
        <pt x="484" y="215" on="0"/>
        <pt x="463" y="215" on="1"/>
        <pt x="424" y="215" on="0"/>
        <pt x="416" y="176" on="1"/>
        <pt x="406" y="137" on="0"/>
        <pt x="387" y="137" on="1"/>
        <pt x="375" y="137" on="0"/>
        <pt x="357" y="169" on="0"/>
        <pt x="357" y="188" on="1"/>
        <pt x="357" y="225" on="0"/>
        <pt x="418" y="281" on="0"/>
        <pt x="512" y="281" on="0"/>
        <pt x="587" y="215" on="0"/>
        <pt x="587" y="159" on="1"/>
        <pt x="587" y="80" on="0"/>
        <pt x="522" y="34" on="1"/>
        <pt x="453" y="-15" on="0"/>
        <pt x="269" y="-15" on="0"/>
      </contour>
    </TTGlyph>
    <TTGlyph name="Lslash" xMin="35" yMin="-15" xMax="587" yMax="762">
      <contour>
        <pt x="218" y="450" on="1"/>
        <pt x="219" y="382" on="1"/>
        <pt x="219" y="167" on="0"/>
        <pt x="198" y="77" on="1"/>
        <pt x="268" y="55" on="0"/>
        <pt x="366" y="55" on="1"/>
        <pt x="426" y="55" on="0"/>
        <pt x="513" y="112" on="0"/>
        <pt x="513" y="159" on="1"/>
        <pt x="513" y="182" on="0"/>
        <pt x="484" y="215" on="0"/>
        <pt x="442" y="215" on="0"/>
        <pt x="419" y="191" on="0"/>
        <pt x="416" y="176" on="1"/>
        <pt x="406" y="137" on="0"/>
        <pt x="387" y="137" on="1"/>
        <pt x="374" y="137" on="0"/>
        <pt x="357" y="169" on="0"/>
        <pt x="357" y="188" on="1"/>
        <pt x="357" y="224" on="0"/>
        <pt x="417" y="281" on="0"/>
        <pt x="511" y="281" on="0"/>
        <pt x="587" y="215" on="0"/>
        <pt x="587" y="159" on="1"/>
        <pt x="587" y="80" on="0"/>
        <pt x="452" y="-15" on="0"/>
        <pt x="280" y="-15" on="0"/>
        <pt x="160" y="13" on="1"/>
        <pt x="112" y="-9" on="0"/>
        <pt x="67" y="-9" on="0"/>
        <pt x="35" y="24" on="0"/>
        <pt x="35" y="73" on="0"/>
        <pt x="65" y="105" on="0"/>
        <pt x="99" y="105" on="0"/>
        <pt x="127" y="98" on="1"/>
        <pt x="146" y="160" on="0"/>
        <pt x="146" y="388" on="1"/>
        <pt x="104" y="350" on="1"/>
        <pt x="89" y="338" on="0"/>
        <pt x="62" y="338" on="0"/>
        <pt x="44" y="356" on="0"/>
        <pt x="44" y="386" on="0"/>
        <pt x="61" y="401" on="1"/>
        <pt x="66" y="406" on="0"/>
        <pt x="125" y="451" on="0"/>
        <pt x="146" y="468" on="1"/>
        <pt x="143" y="543" on="0"/>
        <pt x="121" y="710" on="0"/>
        <pt x="121" y="738" on="0"/>
        <pt x="143" y="762" on="0"/>
        <pt x="160" y="762" on="1"/>
        <pt x="197" y="762" on="0"/>
        <pt x="213" y="650" on="0"/>
        <pt x="217" y="524" on="1"/>
        <pt x="286" y="590" on="1"/>
        <pt x="301" y="602" on="0"/>
        <pt x="328" y="602" on="0"/>
        <pt x="346" y="584" on="0"/>
        <pt x="346" y="554" on="0"/>
        <pt x="329" y="539" on="1"/>
        <pt x="328" y="539" on="0"/>
        <pt x="246" y="474" on="0"/>
      </contour>
    </TTGlyph>
    <TTGlyph name="M" xMin="31" yMin="-10" xMax="943" yMax="759">
      <contour>
        <pt x="253" y="626" on="1"/>
        <pt x="251" y="716" on="1"/>
        <pt x="251" y="732" on="0"/>
        <pt x="262" y="745" on="1"/>
        <pt x="271" y="758" on="0"/>
        <pt x="289" y="758" on="1"/>
        <pt x="317" y="758" on="0"/>
        <pt x="333" y="723" on="1"/>
        <pt x="470" y="410" on="0"/>
        <pt x="560" y="230" on="1"/>
        <pt x="658" y="419" on="0"/>
        <pt x="740" y="620" on="1"/>
        <pt x="763" y="676" on="0"/>
        <pt x="786" y="728" on="1"/>
        <pt x="800" y="758" on="0"/>
        <pt x="827" y="758" on="1"/>
        <pt x="868" y="758" on="0"/>
        <pt x="868" y="707" on="1"/>
        <pt x="863" y="375" on="1"/>
        <pt x="863" y="125" on="0"/>
        <pt x="901" y="76" on="1"/>
        <pt x="906" y="71" on="0"/>
        <pt x="927" y="69" on="0"/>
        <pt x="943" y="67" on="0"/>
        <pt x="943" y="61" on="1"/>
        <pt x="943" y="31" on="0"/>
        <pt x="908" y="-7" on="0"/>
        <pt x="883" y="-7" on="1"/>
        <pt x="793" y="-7" on="0"/>
        <pt x="793" y="233" on="1"/>
        <pt x="793" y="569" on="1"/>
        <pt x="600" y="145" on="1"/>
        <pt x="586" y="114" on="0"/>
        <pt x="564" y="114" on="1"/>
        <pt x="541" y="114" on="0"/>
        <pt x="523" y="148" on="1"/>
        <pt x="522" y="150" on="0"/>
        <pt x="434" y="356" on="0"/>
        <pt x="328" y="573" on="1"/>
        <pt x="328" y="340" on="1"/>
        <pt x="328" y="181" on="0"/>
        <pt x="273" y="28" on="0"/>
        <pt x="225" y="4" on="1"/>
        <pt x="195" y="-10" on="0"/>
        <pt x="159" y="-10" on="1"/>
        <pt x="100" y="-10" on="0"/>
        <pt x="31" y="75" on="0"/>
        <pt x="31" y="185" on="0"/>
        <pt x="106" y="272" on="0"/>
        <pt x="158" y="272" on="1"/>
        <pt x="180" y="272" on="0"/>
        <pt x="209" y="251" on="0"/>
        <pt x="209" y="231" on="1"/>
        <pt x="209" y="194" on="0"/>
        <pt x="161" y="194" on="1"/>
        <pt x="139" y="194" on="0"/>
        <pt x="107" y="157" on="0"/>
        <pt x="107" y="102" on="0"/>
        <pt x="137" y="67" on="0"/>
        <pt x="164" y="67" on="1"/>
        <pt x="217" y="67" on="0"/>
        <pt x="256" y="219" on="0"/>
        <pt x="256" y="554" on="0"/>
      </contour>
    </TTGlyph>
    <TTGlyph name="N" xMin="31" yMin="-11" xMax="854" yMax="761">
      <contour>
        <pt x="159" y="-8" on="1"/>
        <pt x="100" y="-8" on="0"/>
        <pt x="31" y="77" on="0"/>
        <pt x="31" y="187" on="0"/>
        <pt x="106" y="274" on="0"/>
        <pt x="158" y="274" on="1"/>
        <pt x="180" y="274" on="0"/>
        <pt x="209" y="253" on="0"/>
        <pt x="209" y="233" on="1"/>
        <pt x="209" y="196" on="0"/>
        <pt x="161" y="196" on="1"/>
        <pt x="139" y="196" on="0"/>
        <pt x="107" y="159" on="0"/>
        <pt x="107" y="104" on="0"/>
        <pt x="137" y="69" on="0"/>
        <pt x="164" y="69" on="1"/>
        <pt x="257" y="69" on="0"/>
        <pt x="257" y="357" on="1"/>
        <pt x="257" y="436" on="0"/>
        <pt x="225" y="692" on="0"/>
        <pt x="225" y="735" on="0"/>
        <pt x="253" y="761" on="0"/>
        <pt x="272" y="761" on="1"/>
        <pt x="300" y="761" on="0"/>
        <pt x="317" y="726" on="1"/>
        <pt x="371" y="621" on="0"/>
        <pt x="571" y="269" on="0"/>
        <pt x="644" y="153" on="1"/>
        <pt x="640" y="153" on="0"/>
        <pt x="629" y="432" on="0"/>
        <pt x="629" y="476" on="1"/>
        <pt x="629" y="587" on="0"/>
        <pt x="651" y="665" on="1"/>
        <pt x="664" y="710" on="0"/>
        <pt x="723" y="761" on="0"/>
        <pt x="800" y="761" on="0"/>
        <pt x="854" y="720" on="0"/>
        <pt x="854" y="666" on="0"/>
        <pt x="831" y="666" on="1"/>
        <pt x="824" y="666" on="0"/>
        <pt x="780" y="684" on="0"/>
        <pt x="763" y="684" on="1"/>
        <pt x="700" y="684" on="0"/>
        <pt x="700" y="395" on="1"/>
        <pt x="700" y="327" on="0"/>
        <pt x="722" y="47" on="0"/>
        <pt x="722" y="15" on="0"/>
        <pt x="695" y="-11" on="0"/>
        <pt x="677" y="-11" on="1"/>
        <pt x="650" y="-11" on="0"/>
        <pt x="630" y="24" on="1"/>
        <pt x="580" y="113" on="0"/>
        <pt x="516" y="223" on="1"/>
        <pt x="389" y="450" on="1"/>
        <pt x="334" y="552" on="0"/>
        <pt x="313" y="584" on="1"/>
        <pt x="327" y="452" on="0"/>
        <pt x="327" y="333" on="1"/>
        <pt x="327" y="-8" on="0"/>
      </contour>
    </TTGlyph>
    <TTGlyph name="Nacute" xMin="31" yMin="-11" xMax="854" yMax="970">
      <contour>
        <pt x="159" y="-8" on="1"/>
        <pt x="100" y="-8" on="0"/>
        <pt x="31" y="77" on="0"/>
        <pt x="31" y="187" on="0"/>
        <pt x="106" y="274" on="0"/>
        <pt x="158" y="274" on="1"/>
        <pt x="180" y="274" on="0"/>
        <pt x="209" y="253" on="0"/>
        <pt x="209" y="233" on="1"/>
        <pt x="209" y="196" on="0"/>
        <pt x="161" y="196" on="1"/>
        <pt x="139" y="196" on="0"/>
        <pt x="107" y="159" on="0"/>
        <pt x="107" y="104" on="0"/>
        <pt x="137" y="69" on="0"/>
        <pt x="164" y="69" on="1"/>
        <pt x="257" y="69" on="0"/>
        <pt x="257" y="357" on="1"/>
        <pt x="257" y="436" on="0"/>
        <pt x="225" y="692" on="0"/>
        <pt x="225" y="735" on="0"/>
        <pt x="253" y="761" on="0"/>
        <pt x="272" y="761" on="1"/>
        <pt x="300" y="761" on="0"/>
        <pt x="317" y="726" on="1"/>
        <pt x="371" y="621" on="0"/>
        <pt x="571" y="269" on="0"/>
        <pt x="644" y="153" on="1"/>
        <pt x="640" y="153" on="0"/>
        <pt x="629" y="432" on="0"/>
        <pt x="629" y="476" on="1"/>
        <pt x="629" y="587" on="0"/>
        <pt x="651" y="665" on="1"/>
        <pt x="664" y="710" on="0"/>
        <pt x="723" y="761" on="0"/>
        <pt x="800" y="761" on="0"/>
        <pt x="854" y="720" on="0"/>
        <pt x="854" y="666" on="0"/>
        <pt x="831" y="666" on="1"/>
        <pt x="824" y="666" on="0"/>
        <pt x="780" y="684" on="0"/>
        <pt x="763" y="684" on="1"/>
        <pt x="700" y="684" on="0"/>
        <pt x="700" y="395" on="1"/>
        <pt x="700" y="327" on="0"/>
        <pt x="722" y="47" on="0"/>
        <pt x="722" y="15" on="0"/>
        <pt x="695" y="-11" on="0"/>
        <pt x="677" y="-11" on="1"/>
        <pt x="650" y="-11" on="0"/>
        <pt x="630" y="24" on="1"/>
        <pt x="580" y="113" on="0"/>
        <pt x="516" y="223" on="1"/>
        <pt x="389" y="450" on="1"/>
        <pt x="334" y="552" on="0"/>
        <pt x="313" y="584" on="1"/>
        <pt x="327" y="452" on="0"/>
        <pt x="327" y="333" on="1"/>
        <pt x="327" y="-8" on="0"/>
      </contour>
      <contour>
        <pt x="617" y="932" on="1"/>
        <pt x="617" y="889" on="0"/>
        <pt x="525" y="802" on="0"/>
        <pt x="473" y="802" on="0"/>
        <pt x="472" y="824" on="1"/>
        <pt x="472" y="837" on="0"/>
        <pt x="493" y="860" on="0"/>
        <pt x="511" y="881" on="1"/>
        <pt x="519" y="893" on="0"/>
        <pt x="541" y="944" on="0"/>
        <pt x="564" y="970" on="0"/>
        <pt x="598" y="970" on="0"/>
        <pt x="617" y="948" on="0"/>
      </contour>
    </TTGlyph>
    <TTGlyph name="Ntilde" xMin="31" yMin="-11" xMax="854" yMax="935">
      <component glyphName="N" x="0" y="0" flags="0x1004"/>
      <component glyphName="tilde" x="258" y="220" flags="0x1004"/>
    </TTGlyph>
    <TTGlyph name="O" xMin="55" yMin="-15" xMax="753" yMax="765">
      <contour>
        <pt x="462" y="695" on="1"/>
        <pt x="394" y="695" on="0"/>
        <pt x="290" y="596" on="0"/>
        <pt x="240" y="452" on="0"/>
        <pt x="240" y="350" on="0"/>
        <pt x="246" y="288" on="0"/>
        <pt x="251" y="253" on="0"/>
        <pt x="251" y="250" on="1"/>
        <pt x="251" y="225" on="0"/>
        <pt x="228" y="225" on="1"/>
        <pt x="208" y="225" on="0"/>
        <pt x="174" y="328" on="0"/>
        <pt x="174" y="384" on="1"/>
        <pt x="174" y="537" on="0"/>
        <pt x="332" y="765" on="0"/>
        <pt x="588" y="765" on="0"/>
        <pt x="753" y="545" on="0"/>
        <pt x="753" y="216" on="0"/>
        <pt x="564" y="-15" on="0"/>
        <pt x="261" y="-15" on="0"/>
        <pt x="55" y="203" on="0"/>
        <pt x="55" y="374" on="1"/>
        <pt x="55" y="444" on="0"/>
        <pt x="84" y="531" on="0"/>
        <pt x="113" y="531" on="1"/>
        <pt x="127" y="531" on="0"/>
        <pt x="145" y="512" on="0"/>
        <pt x="145" y="492" on="0"/>
        <pt x="132" y="407" on="0"/>
        <pt x="132" y="374" on="1"/>
        <pt x="132" y="227" on="0"/>
        <pt x="298" y="55" on="0"/>
        <pt x="410" y="55" on="1"/>
        <pt x="491" y="55" on="0"/>
        <pt x="616" y="145" on="0"/>
        <pt x="676" y="286" on="0"/>
        <pt x="676" y="364" on="1"/>
        <pt x="676" y="369" on="0"/>
        <pt x="676" y="374" on="1"/>
        <pt x="676" y="506" on="0"/>
        <pt x="559" y="695" on="0"/>
      </contour>
    </TTGlyph>
    <TTGlyph name="OE" xMin="55" yMin="-13" xMax="945" yMax="765">
      <contour>
        <pt x="558" y="-5" on="1"/>
        <pt x="390" y="-13" on="1"/>
        <pt x="250" y="-13" on="0"/>
        <pt x="55" y="205" on="0"/>
        <pt x="55" y="376" on="1"/>
        <pt x="55" y="442" on="0"/>
        <pt x="83" y="533" on="0"/>
        <pt x="113" y="533" on="1"/>
        <pt x="127" y="533" on="0"/>
        <pt x="145" y="514" on="0"/>
        <pt x="145" y="485" on="0"/>
        <pt x="132" y="419" on="0"/>
        <pt x="132" y="376" on="1"/>
        <pt x="132" y="229" on="0"/>
        <pt x="286" y="58" on="0"/>
        <pt x="492" y="58" on="0"/>
        <pt x="629" y="250" on="0"/>
        <pt x="629" y="499" on="0"/>
        <pt x="509" y="692" on="0"/>
        <pt x="370" y="692" on="0"/>
        <pt x="276" y="592" on="0"/>
        <pt x="240" y="456" on="0"/>
        <pt x="240" y="326" on="0"/>
        <pt x="251" y="262" on="0"/>
        <pt x="251" y="252" on="1"/>
        <pt x="251" y="227" on="0"/>
        <pt x="228" y="227" on="1"/>
        <pt x="208" y="227" on="0"/>
        <pt x="174" y="328" on="0"/>
        <pt x="174" y="462" on="0"/>
        <pt x="204" y="593" on="0"/>
        <pt x="265" y="702" on="0"/>
        <pt x="371" y="765" on="0"/>
        <pt x="441" y="765" on="1"/>
        <pt x="552" y="755" on="1"/>
        <pt x="745" y="750" on="1"/>
        <pt x="895" y="755" on="1"/>
        <pt x="945" y="755" on="0"/>
        <pt x="945" y="679" on="0"/>
        <pt x="895" y="679" on="1"/>
        <pt x="745" y="684" on="1"/>
        <pt x="632" y="684" on="0"/>
        <pt x="599" y="680" on="1"/>
        <pt x="689" y="587" on="0"/>
        <pt x="706" y="433" on="1"/>
        <pt x="826" y="438" on="0"/>
        <pt x="863" y="438" on="0"/>
        <pt x="890" y="417" on="0"/>
        <pt x="890" y="399" on="1"/>
        <pt x="890" y="362" on="0"/>
        <pt x="840" y="362" on="1"/>
        <pt x="838" y="362" on="0"/>
        <pt x="710" y="366" on="1"/>
        <pt x="709" y="277" on="0"/>
        <pt x="649" y="122" on="0"/>
        <pt x="598" y="69" on="1"/>
        <pt x="651" y="66" on="0"/>
        <pt x="733" y="66" on="1"/>
        <pt x="895" y="71" on="1"/>
        <pt x="945" y="71" on="0"/>
        <pt x="945" y="-5" on="0"/>
        <pt x="895" y="-5" on="1"/>
        <pt x="733" y="0" on="1"/>
      </contour>
    </TTGlyph>
    <TTGlyph name="Oacute" xMin="55" yMin="-15" xMax="753" yMax="970">
      <component glyphName="O" x="0" y="0" flags="0x1004"/>
      <component glyphName="acute" x="332" y="210" flags="0x1004"/>
    </TTGlyph>
    <TTGlyph name="Ocircumflex" xMin="55" yMin="-15" xMax="753" yMax="985">
      <contour>
        <pt x="462" y="695" on="1"/>
        <pt x="394" y="695" on="0"/>
        <pt x="290" y="596" on="0"/>
        <pt x="240" y="452" on="0"/>
        <pt x="240" y="350" on="0"/>
        <pt x="246" y="288" on="0"/>
        <pt x="251" y="253" on="0"/>
        <pt x="251" y="250" on="1"/>
        <pt x="251" y="225" on="0"/>
        <pt x="228" y="225" on="1"/>
        <pt x="208" y="225" on="0"/>
        <pt x="174" y="328" on="0"/>
        <pt x="174" y="384" on="1"/>
        <pt x="174" y="537" on="0"/>
        <pt x="332" y="765" on="0"/>
        <pt x="588" y="765" on="0"/>
        <pt x="753" y="545" on="0"/>
        <pt x="753" y="216" on="0"/>
        <pt x="564" y="-15" on="0"/>
        <pt x="261" y="-15" on="0"/>
        <pt x="55" y="203" on="0"/>
        <pt x="55" y="374" on="1"/>
        <pt x="55" y="444" on="0"/>
        <pt x="84" y="531" on="0"/>
        <pt x="113" y="531" on="1"/>
        <pt x="127" y="531" on="0"/>
        <pt x="145" y="512" on="0"/>
        <pt x="145" y="492" on="0"/>
        <pt x="132" y="407" on="0"/>
        <pt x="132" y="374" on="1"/>
        <pt x="132" y="227" on="0"/>
        <pt x="298" y="55" on="0"/>
        <pt x="410" y="55" on="1"/>
        <pt x="491" y="55" on="0"/>
        <pt x="616" y="145" on="0"/>
        <pt x="676" y="286" on="0"/>
        <pt x="676" y="364" on="1"/>
        <pt x="676" y="369" on="0"/>
        <pt x="676" y="374" on="1"/>
        <pt x="676" y="506" on="0"/>
        <pt x="559" y="695" on="0"/>
      </contour>
      <contour>
        <pt x="514" y="863" on="1"/>
        <pt x="474" y="911" on="0"/>
        <pt x="443" y="911" on="0"/>
        <pt x="403" y="863" on="1"/>
        <pt x="400" y="861" on="0"/>
        <pt x="365" y="813" on="0"/>
        <pt x="332" y="813" on="0"/>
        <pt x="322" y="821" on="1"/>
        <pt x="312" y="832" on="0"/>
        <pt x="312" y="856" on="0"/>
        <pt x="330" y="874" on="0"/>
        <pt x="343" y="885" on="1"/>
        <pt x="380" y="916" on="0"/>
        <pt x="399" y="944" on="1"/>
        <pt x="417" y="967" on="0"/>
        <pt x="428" y="976" on="1"/>
        <pt x="440" y="985" on="0"/>
        <pt x="476" y="985" on="0"/>
        <pt x="499" y="968" on="0"/>
        <pt x="538" y="919" on="0"/>
        <pt x="558" y="899" on="0"/>
        <pt x="572" y="888" on="1"/>
        <pt x="596" y="868" on="0"/>
        <pt x="600" y="858" on="1"/>
        <pt x="604" y="853" on="0"/>
        <pt x="604" y="839" on="0"/>
        <pt x="601" y="830" on="1"/>
        <pt x="594" y="813" on="0"/>
        <pt x="573" y="813" on="1"/>
        <pt x="571" y="813" on="0"/>
        <pt x="561" y="813" on="0"/>
        <pt x="539" y="831" on="0"/>
        <pt x="516" y="862" on="0"/>
      </contour>
    </TTGlyph>
    <TTGlyph name="Odieresis" xMin="55" yMin="-15" xMax="753" yMax="953">
      <component glyphName="O" x="0" y="0" flags="0x1004"/>
      <component glyphName="dieresis" x="248" y="228" flags="0x1004"/>
    </TTGlyph>
    <TTGlyph name="Ograve" xMin="55" yMin="-15" xMax="753" yMax="970">
      <component glyphName="O" x="0" y="0" flags="0x1004"/>
      <component glyphName="grave" x="276" y="210" flags="0x1004"/>
    </TTGlyph>
    <TTGlyph name="Omega" xMin="28" yMin="-8" xMax="802" yMax="715">
      <contour>
        <pt x="306" y="-6" on="1"/>
        <pt x="188" y="0" on="1"/>
        <pt x="76" y="-6" on="1"/>
        <pt x="73" y="-6" on="0"/>
        <pt x="71" y="-6" on="1"/>
        <pt x="45" y="-6" on="0"/>
        <pt x="34" y="12" on="1"/>
        <pt x="28" y="22" on="0"/>
        <pt x="28" y="42" on="0"/>
        <pt x="34" y="52" on="1"/>
        <pt x="45" y="71" on="0"/>
        <pt x="71" y="71" on="1"/>
        <pt x="73" y="71" on="0"/>
        <pt x="76" y="71" on="1"/>
        <pt x="188" y="66" on="1"/>
        <pt x="224" y="66" on="0"/>
        <pt x="234" y="67" on="1"/>
        <pt x="98" y="203" on="0"/>
        <pt x="98" y="378" on="1"/>
        <pt x="98" y="517" on="0"/>
        <pt x="286" y="715" on="0"/>
        <pt x="545" y="715" on="0"/>
        <pt x="732" y="520" on="0"/>
        <pt x="732" y="381" on="1"/>
        <pt x="732" y="203" on="0"/>
        <pt x="596" y="66" on="1"/>
        <pt x="605" y="65" on="0"/>
        <pt x="642" y="65" on="1"/>
        <pt x="754" y="70" on="1"/>
        <pt x="784" y="70" on="0"/>
        <pt x="796" y="51" on="1"/>
        <pt x="802" y="42" on="0"/>
        <pt x="802" y="22" on="0"/>
        <pt x="796" y="12" on="1"/>
        <pt x="784" y="-7" on="0"/>
        <pt x="754" y="-7" on="1"/>
        <pt x="642" y="-1" on="1"/>
        <pt x="523" y="-7" on="1"/>
        <pt x="520" y="-8" on="0"/>
        <pt x="507" y="-8" on="0"/>
        <pt x="482" y="15" on="0"/>
        <pt x="482" y="53" on="0"/>
        <pt x="506" y="66" on="1"/>
        <pt x="570" y="100" on="0"/>
        <pt x="654" y="285" on="0"/>
        <pt x="654" y="490" on="0"/>
        <pt x="519" y="645" on="0"/>
        <pt x="313" y="645" on="0"/>
        <pt x="176" y="487" on="0"/>
        <pt x="176" y="283" on="0"/>
        <pt x="260" y="101" on="0"/>
        <pt x="324" y="67" on="1"/>
        <pt x="349" y="53" on="0"/>
        <pt x="349" y="13" on="0"/>
        <pt x="334" y="4" on="1"/>
        <pt x="321" y="-6" on="0"/>
      </contour>
    </TTGlyph>
    <TTGlyph name="Oslash" xMin="50" yMin="-64" xMax="748" yMax="804">
      <contour>
        <pt x="339" y="63" on="1"/>
        <pt x="367" y="55" on="0"/>
        <pt x="405" y="55" on="1"/>
        <pt x="487" y="55" on="0"/>
        <pt x="611" y="146" on="0"/>
        <pt x="671" y="289" on="0"/>
        <pt x="671" y="459" on="0"/>
        <pt x="623" y="604" on="0"/>
        <pt x="577" y="646" on="1"/>
        <pt x="414" y="264" on="0"/>
      </contour>
      <contour>
        <pt x="315" y="-4" on="1"/>
        <pt x="313" y="-8" on="0"/>
        <pt x="305" y="-30" on="0"/>
        <pt x="299" y="-41" on="0"/>
        <pt x="294" y="-49" on="1"/>
        <pt x="285" y="-64" on="0"/>
        <pt x="250" y="-64" on="0"/>
        <pt x="227" y="-45" on="0"/>
        <pt x="227" y="-19" on="0"/>
        <pt x="245" y="24" on="1"/>
        <pt x="154" y="69" on="0"/>
        <pt x="50" y="251" on="0"/>
        <pt x="50" y="374" on="1"/>
        <pt x="50" y="440" on="0"/>
        <pt x="78" y="531" on="0"/>
        <pt x="108" y="531" on="1"/>
        <pt x="122" y="531" on="0"/>
        <pt x="140" y="512" on="0"/>
        <pt x="140" y="483" on="0"/>
        <pt x="127" y="417" on="0"/>
        <pt x="127" y="374" on="1"/>
        <pt x="127" y="273" on="0"/>
        <pt x="209" y="126" on="0"/>
        <pt x="277" y="88" on="1"/>
        <pt x="306" y="153" on="0"/>
        <pt x="396" y="382" on="1"/>
        <pt x="514" y="685" on="1"/>
        <pt x="490" y="695" on="0"/>
        <pt x="457" y="695" on="1"/>
        <pt x="389" y="695" on="0"/>
        <pt x="284" y="594" on="0"/>
        <pt x="235" y="451" on="0"/>
        <pt x="235" y="324" on="0"/>
        <pt x="246" y="260" on="0"/>
        <pt x="246" y="250" on="1"/>
        <pt x="246" y="225" on="0"/>
        <pt x="223" y="225" on="1"/>
        <pt x="203" y="225" on="0"/>
        <pt x="169" y="326" on="0"/>
        <pt x="169" y="384" on="1"/>
        <pt x="169" y="536" on="0"/>
        <pt x="328" y="765" on="0"/>
        <pt x="452" y="765" on="1"/>
        <pt x="497" y="765" on="0"/>
        <pt x="539" y="750" on="1"/>
        <pt x="559" y="804" on="0"/>
        <pt x="587" y="804" on="1"/>
        <pt x="604" y="804" on="0"/>
        <pt x="624" y="784" on="0"/>
        <pt x="624" y="759" on="0"/>
        <pt x="619" y="744" on="0"/>
        <pt x="608" y="720" on="0"/>
        <pt x="606" y="715" on="1"/>
        <pt x="674" y="666" on="0"/>
        <pt x="748" y="488" on="0"/>
        <pt x="748" y="374" on="1"/>
        <pt x="748" y="215" on="0"/>
        <pt x="559" y="-15" on="0"/>
        <pt x="405" y="-15" on="1"/>
        <pt x="356" y="-15" on="0"/>
      </contour>
    </TTGlyph>
    <TTGlyph name="Otilde" xMin="55" yMin="-15" xMax="753" yMax="935">
      <component glyphName="O" x="0" y="0" flags="0x1004"/>
      <component glyphName="tilde" x="208" y="220" flags="0x1004"/>
    </TTGlyph>
    <TTGlyph name="P" xMin="39" yMin="-11" xMax="657" yMax="760">
      <contour>
        <pt x="200" y="318" on="1"/>
        <pt x="200" y="426" on="0"/>
        <pt x="197" y="501" on="1"/>
        <pt x="156" y="496" on="0"/>
        <pt x="109" y="447" on="0"/>
        <pt x="109" y="390" on="0"/>
        <pt x="156" y="332" on="0"/>
      </contour>
      <contour>
        <pt x="269" y="238" on="1"/>
        <pt x="274" y="66" on="0"/>
        <pt x="274" y="19" on="0"/>
        <pt x="262" y="4" on="1"/>
        <pt x="250" y="-11" on="0"/>
        <pt x="227" y="-11" on="0"/>
        <pt x="218" y="-6" on="1"/>
        <pt x="192" y="7" on="0"/>
        <pt x="192" y="41" on="1"/>
        <pt x="199" y="250" on="1"/>
        <pt x="123" y="266" on="0"/>
        <pt x="80" y="314" on="1"/>
        <pt x="39" y="363" on="0"/>
        <pt x="39" y="473" on="0"/>
        <pt x="124" y="558" on="0"/>
        <pt x="194" y="568" on="1"/>
        <pt x="189" y="687" on="1"/>
        <pt x="191" y="722" on="0"/>
        <pt x="221" y="735" on="1"/>
        <pt x="283" y="760" on="0"/>
        <pt x="368" y="760" on="1"/>
        <pt x="492" y="760" on="0"/>
        <pt x="657" y="617" on="0"/>
        <pt x="657" y="425" on="0"/>
        <pt x="608" y="360" on="1"/>
        <pt x="516" y="237" on="0"/>
        <pt x="315" y="237" on="1"/>
        <pt x="279" y="237" on="0"/>
      </contour>
      <contour>
        <pt x="267" y="501" on="1"/>
        <pt x="268" y="475" on="0"/>
        <pt x="268" y="305" on="1"/>
        <pt x="274" y="304" on="0"/>
        <pt x="296" y="304" on="1"/>
        <pt x="419" y="304" on="0"/>
        <pt x="579" y="410" on="0"/>
        <pt x="579" y="518" on="1"/>
        <pt x="579" y="592" on="0"/>
        <pt x="454" y="691" on="0"/>
        <pt x="367" y="691" on="1"/>
        <pt x="306" y="691" on="0"/>
        <pt x="266" y="678" on="1"/>
        <pt x="266" y="642" on="0"/>
        <pt x="268" y="568" on="1"/>
        <pt x="330" y="560" on="0"/>
        <pt x="423" y="486" on="0"/>
        <pt x="423" y="448" on="1"/>
        <pt x="423" y="432" on="0"/>
        <pt x="404" y="414" on="0"/>
        <pt x="378" y="414" on="0"/>
        <pt x="361" y="434" on="1"/>
        <pt x="306" y="498" on="0"/>
      </contour>
    </TTGlyph>
    <TTGlyph name="Q" xMin="57" yMin="-129" xMax="771" yMax="765">
      <contour>
        <pt x="239" y="404" on="1"/>
        <pt x="239" y="338" on="0"/>
        <pt x="269" y="248" on="0"/>
        <pt x="269" y="241" on="1"/>
        <pt x="269" y="220" on="0"/>
        <pt x="248" y="220" on="1"/>
        <pt x="219" y="220" on="0"/>
        <pt x="169" y="341" on="0"/>
        <pt x="169" y="405" on="1"/>
        <pt x="169" y="555" on="0"/>
        <pt x="339" y="765" on="0"/>
        <pt x="599" y="765" on="0"/>
        <pt x="771" y="545" on="0"/>
        <pt x="771" y="384" on="1"/>
        <pt x="771" y="278" on="0"/>
        <pt x="683" y="97" on="0"/>
        <pt x="607" y="43" on="1"/>
        <pt x="684" y="-62" on="0"/>
        <pt x="694" y="-86" on="0"/>
        <pt x="694" y="-106" on="0"/>
        <pt x="675" y="-129" on="0"/>
        <pt x="663" y="-129" on="1"/>
        <pt x="640" y="-129" on="0"/>
        <pt x="624" y="-105" on="1"/>
        <pt x="620" y="-100" on="0"/>
        <pt x="580" y="-38" on="1"/>
        <pt x="549" y="11" on="1"/>
        <pt x="485" y="-15" on="0"/>
        <pt x="422" y="-15" on="1"/>
        <pt x="272" y="-15" on="0"/>
        <pt x="164" y="103" on="1"/>
        <pt x="57" y="222" on="0"/>
        <pt x="57" y="394" on="1"/>
        <pt x="57" y="521" on="0"/>
        <pt x="82" y="550" on="1"/>
        <pt x="94" y="565" on="0"/>
        <pt x="129" y="565" on="0"/>
        <pt x="138" y="553" on="1"/>
        <pt x="148" y="543" on="0"/>
        <pt x="148" y="519" on="0"/>
        <pt x="132" y="470" on="0"/>
        <pt x="132" y="386" on="1"/>
        <pt x="132" y="250" on="0"/>
        <pt x="302" y="57" on="0"/>
        <pt x="422" y="57" on="1"/>
        <pt x="482" y="57" on="0"/>
        <pt x="507" y="72" on="1"/>
        <pt x="428" y="184" on="0"/>
        <pt x="428" y="217" on="0"/>
        <pt x="446" y="242" on="0"/>
        <pt x="470" y="243" on="0"/>
        <pt x="490" y="229" on="0"/>
        <pt x="501" y="213" on="0"/>
        <pt x="534" y="156" on="0"/>
        <pt x="566" y="103" on="1"/>
        <pt x="626" y="146" on="0"/>
        <pt x="696" y="301" on="0"/>
        <pt x="696" y="391" on="1"/>
        <pt x="696" y="519" on="0"/>
        <pt x="566" y="691" on="0"/>
        <pt x="371" y="691" on="0"/>
        <pt x="239" y="529" on="0"/>
      </contour>
    </TTGlyph>
    <TTGlyph name="R" xMin="42" yMin="-83" xMax="715" yMax="765">
      <contour>
        <pt x="236" y="672" on="1"/>
        <pt x="236" y="615" on="0"/>
        <pt x="240" y="475" on="1"/>
        <pt x="297" y="469" on="0"/>
        <pt x="402" y="403" on="0"/>
        <pt x="433" y="358" on="1"/>
        <pt x="482" y="388" on="0"/>
        <pt x="540" y="483" on="0"/>
        <pt x="540" y="533" on="1"/>
        <pt x="540" y="608" on="0"/>
        <pt x="424" y="695" on="0"/>
        <pt x="338" y="695" on="1"/>
        <pt x="291" y="695" on="0"/>
      </contour>
      <contour>
        <pt x="239" y="410" on="1"/>
        <pt x="239" y="316" on="1"/>
        <pt x="262" y="314" on="0"/>
        <pt x="330" y="314" on="0"/>
        <pt x="364" y="327" on="1"/>
        <pt x="321" y="391" on="0"/>
      </contour>
      <contour>
        <pt x="170" y="323" on="1"/>
        <pt x="170" y="414" on="1"/>
        <pt x="111" y="406" on="0"/>
        <pt x="111" y="343" on="0"/>
      </contour>
      <contour>
        <pt x="698" y="-6" on="1"/>
        <pt x="715" y="-6" on="0"/>
        <pt x="715" y="-11" on="1"/>
        <pt x="715" y="-16" on="1"/>
        <pt x="715" y="-42" on="0"/>
        <pt x="680" y="-83" on="0"/>
        <pt x="644" y="-83" on="0"/>
        <pt x="600" y="-59" on="0"/>
        <pt x="529" y="39" on="0"/>
        <pt x="492" y="110" on="1"/>
        <pt x="400" y="271" on="1"/>
        <pt x="338" y="249" on="0"/>
        <pt x="273" y="249" on="1"/>
        <pt x="247" y="249" on="0"/>
        <pt x="240" y="250" on="1"/>
        <pt x="246" y="41" on="1"/>
        <pt x="246" y="18" on="0"/>
        <pt x="224" y="-10" on="0"/>
        <pt x="186" y="-10" on="0"/>
        <pt x="164" y="18" on="0"/>
        <pt x="164" y="91" on="0"/>
        <pt x="168" y="258" on="1"/>
        <pt x="106" y="272" on="0"/>
        <pt x="42" y="334" on="0"/>
        <pt x="42" y="414" on="0"/>
        <pt x="113" y="474" on="0"/>
        <pt x="168" y="479" on="1"/>
        <pt x="160" y="678" on="1"/>
        <pt x="160" y="721" on="0"/>
        <pt x="195" y="738" on="1"/>
        <pt x="255" y="765" on="0"/>
        <pt x="339" y="765" on="1"/>
        <pt x="461" y="765" on="0"/>
        <pt x="618" y="633" on="0"/>
        <pt x="618" y="535" on="1"/>
        <pt x="618" y="466" on="0"/>
        <pt x="537" y="339" on="0"/>
        <pt x="469" y="300" on="1"/>
        <pt x="582" y="96" on="0"/>
        <pt x="601" y="67" on="1"/>
        <pt x="647" y="-3" on="0"/>
        <pt x="690" y="-6" on="1"/>
      </contour>
    </TTGlyph>
    <TTGlyph name="Racute" xMin="42" yMin="-83" xMax="715" yMax="970">
      <contour>
        <pt x="236" y="672" on="1"/>
        <pt x="236" y="615" on="0"/>
        <pt x="240" y="475" on="1"/>
        <pt x="297" y="469" on="0"/>
        <pt x="402" y="403" on="0"/>
        <pt x="433" y="358" on="1"/>
        <pt x="482" y="388" on="0"/>
        <pt x="540" y="483" on="0"/>
        <pt x="540" y="533" on="1"/>
        <pt x="540" y="608" on="0"/>
        <pt x="424" y="695" on="0"/>
        <pt x="338" y="695" on="1"/>
        <pt x="291" y="695" on="0"/>
      </contour>
      <contour>
        <pt x="239" y="410" on="1"/>
        <pt x="239" y="316" on="1"/>
        <pt x="262" y="314" on="0"/>
        <pt x="330" y="314" on="0"/>
        <pt x="364" y="327" on="1"/>
        <pt x="321" y="391" on="0"/>
      </contour>
      <contour>
        <pt x="170" y="323" on="1"/>
        <pt x="170" y="414" on="1"/>
        <pt x="111" y="406" on="0"/>
        <pt x="111" y="343" on="0"/>
      </contour>
      <contour>
        <pt x="698" y="-6" on="1"/>
        <pt x="715" y="-6" on="0"/>
        <pt x="715" y="-11" on="1"/>
        <pt x="715" y="-16" on="1"/>
        <pt x="715" y="-42" on="0"/>
        <pt x="680" y="-83" on="0"/>
        <pt x="644" y="-83" on="0"/>
        <pt x="600" y="-59" on="0"/>
        <pt x="529" y="39" on="0"/>
        <pt x="492" y="110" on="1"/>
        <pt x="400" y="271" on="1"/>
        <pt x="338" y="249" on="0"/>
        <pt x="273" y="249" on="1"/>
        <pt x="247" y="249" on="0"/>
        <pt x="240" y="250" on="1"/>
        <pt x="246" y="41" on="1"/>
        <pt x="246" y="18" on="0"/>
        <pt x="224" y="-10" on="0"/>
        <pt x="186" y="-10" on="0"/>
        <pt x="164" y="18" on="0"/>
        <pt x="164" y="91" on="0"/>
        <pt x="168" y="258" on="1"/>
        <pt x="106" y="272" on="0"/>
        <pt x="42" y="334" on="0"/>
        <pt x="42" y="414" on="0"/>
        <pt x="113" y="474" on="0"/>
        <pt x="168" y="479" on="1"/>
        <pt x="160" y="678" on="1"/>
        <pt x="160" y="721" on="0"/>
        <pt x="195" y="738" on="1"/>
        <pt x="255" y="765" on="0"/>
        <pt x="339" y="765" on="1"/>
        <pt x="461" y="765" on="0"/>
        <pt x="618" y="633" on="0"/>
        <pt x="618" y="535" on="1"/>
        <pt x="618" y="466" on="0"/>
        <pt x="537" y="339" on="0"/>
        <pt x="469" y="300" on="1"/>
        <pt x="582" y="96" on="0"/>
        <pt x="601" y="67" on="1"/>
        <pt x="647" y="-3" on="0"/>
        <pt x="690" y="-6" on="1"/>
      </contour>
      <contour>
        <pt x="457" y="932" on="1"/>
        <pt x="457" y="889" on="0"/>
        <pt x="365" y="802" on="0"/>
        <pt x="313" y="802" on="0"/>
        <pt x="312" y="824" on="1"/>
        <pt x="312" y="837" on="0"/>
        <pt x="333" y="860" on="0"/>
        <pt x="351" y="881" on="1"/>
        <pt x="359" y="893" on="0"/>
        <pt x="381" y="944" on="0"/>
        <pt x="404" y="970" on="0"/>
        <pt x="438" y="970" on="0"/>
        <pt x="457" y="948" on="0"/>
      </contour>
    </TTGlyph>
    <TTGlyph name="Rcaron" xMin="42" yMin="-83" xMax="715" yMax="986">
      <contour>
        <pt x="236" y="672" on="1"/>
        <pt x="236" y="615" on="0"/>
        <pt x="240" y="475" on="1"/>
        <pt x="297" y="469" on="0"/>
        <pt x="402" y="403" on="0"/>
        <pt x="433" y="358" on="1"/>
        <pt x="482" y="388" on="0"/>
        <pt x="540" y="483" on="0"/>
        <pt x="540" y="533" on="1"/>
        <pt x="540" y="608" on="0"/>
        <pt x="424" y="695" on="0"/>
        <pt x="338" y="695" on="1"/>
        <pt x="291" y="695" on="0"/>
      </contour>
      <contour>
        <pt x="239" y="410" on="1"/>
        <pt x="239" y="316" on="1"/>
        <pt x="262" y="314" on="0"/>
        <pt x="330" y="314" on="0"/>
        <pt x="364" y="327" on="1"/>
        <pt x="321" y="391" on="0"/>
      </contour>
      <contour>
        <pt x="170" y="323" on="1"/>
        <pt x="170" y="414" on="1"/>
        <pt x="111" y="406" on="0"/>
        <pt x="111" y="343" on="0"/>
      </contour>
      <contour>
        <pt x="698" y="-6" on="1"/>
        <pt x="715" y="-6" on="0"/>
        <pt x="715" y="-11" on="1"/>
        <pt x="715" y="-16" on="1"/>
        <pt x="715" y="-42" on="0"/>
        <pt x="680" y="-83" on="0"/>
        <pt x="644" y="-83" on="0"/>
        <pt x="600" y="-59" on="0"/>
        <pt x="529" y="39" on="0"/>
        <pt x="492" y="110" on="1"/>
        <pt x="400" y="271" on="1"/>
        <pt x="338" y="249" on="0"/>
        <pt x="273" y="249" on="1"/>
        <pt x="247" y="249" on="0"/>
        <pt x="240" y="250" on="1"/>
        <pt x="246" y="41" on="1"/>
        <pt x="246" y="18" on="0"/>
        <pt x="224" y="-10" on="0"/>
        <pt x="186" y="-10" on="0"/>
        <pt x="164" y="18" on="0"/>
        <pt x="164" y="91" on="0"/>
        <pt x="168" y="258" on="1"/>
        <pt x="106" y="272" on="0"/>
        <pt x="42" y="334" on="0"/>
        <pt x="42" y="414" on="0"/>
        <pt x="113" y="474" on="0"/>
        <pt x="168" y="479" on="1"/>
        <pt x="160" y="678" on="1"/>
        <pt x="160" y="721" on="0"/>
        <pt x="195" y="738" on="1"/>
        <pt x="255" y="765" on="0"/>
        <pt x="339" y="765" on="1"/>
        <pt x="461" y="765" on="0"/>
        <pt x="618" y="633" on="0"/>
        <pt x="618" y="535" on="1"/>
        <pt x="618" y="466" on="0"/>
        <pt x="537" y="339" on="0"/>
        <pt x="469" y="300" on="1"/>
        <pt x="582" y="96" on="0"/>
        <pt x="601" y="67" on="1"/>
        <pt x="647" y="-3" on="0"/>
        <pt x="690" y="-6" on="1"/>
      </contour>
      <contour>
        <pt x="213" y="944" on="0"/>
        <pt x="213" y="963" on="0"/>
        <pt x="215" y="968" on="1"/>
        <pt x="223" y="986" on="0"/>
        <pt x="255" y="986" on="0"/>
        <pt x="276" y="971" on="0"/>
        <pt x="289" y="953" on="1"/>
        <pt x="303" y="936" on="1"/>
        <pt x="348" y="888" on="0"/>
        <pt x="369" y="888" on="0"/>
        <pt x="414" y="936" on="1"/>
        <pt x="427" y="954" on="1"/>
        <pt x="453" y="986" on="0"/>
        <pt x="486" y="986" on="0"/>
        <pt x="504" y="970" on="0"/>
        <pt x="504" y="941" on="0"/>
        <pt x="491" y="928" on="1"/>
        <pt x="458" y="904" on="0"/>
        <pt x="399" y="831" on="0"/>
        <pt x="376" y="814" on="0"/>
        <pt x="340" y="814" on="0"/>
        <pt x="328" y="823" on="1"/>
        <pt x="317" y="832" on="0"/>
        <pt x="281" y="879" on="0"/>
        <pt x="261" y="898" on="0"/>
        <pt x="228" y="927" on="0"/>
      </contour>
    </TTGlyph>
    <TTGlyph name="Rcommaaccent" xMin="42" yMin="-235" xMax="715" yMax="765">
      <contour>
        <pt x="236" y="672" on="1"/>
        <pt x="236" y="615" on="0"/>
        <pt x="240" y="475" on="1"/>
        <pt x="297" y="469" on="0"/>
        <pt x="402" y="403" on="0"/>
        <pt x="433" y="358" on="1"/>
        <pt x="482" y="388" on="0"/>
        <pt x="540" y="483" on="0"/>
        <pt x="540" y="533" on="1"/>
        <pt x="540" y="608" on="0"/>
        <pt x="424" y="695" on="0"/>
        <pt x="338" y="695" on="1"/>
        <pt x="291" y="695" on="0"/>
      </contour>
      <contour>
        <pt x="239" y="410" on="1"/>
        <pt x="239" y="316" on="1"/>
        <pt x="262" y="314" on="0"/>
        <pt x="330" y="314" on="0"/>
        <pt x="364" y="327" on="1"/>
        <pt x="321" y="391" on="0"/>
      </contour>
      <contour>
        <pt x="170" y="323" on="1"/>
        <pt x="170" y="414" on="1"/>
        <pt x="111" y="406" on="0"/>
        <pt x="111" y="343" on="0"/>
      </contour>
      <contour>
        <pt x="698" y="-6" on="1"/>
        <pt x="715" y="-6" on="0"/>
        <pt x="715" y="-11" on="1"/>
        <pt x="715" y="-16" on="1"/>
        <pt x="715" y="-42" on="0"/>
        <pt x="680" y="-83" on="0"/>
        <pt x="644" y="-83" on="0"/>
        <pt x="600" y="-59" on="0"/>
        <pt x="529" y="39" on="0"/>
        <pt x="492" y="110" on="1"/>
        <pt x="400" y="271" on="1"/>
        <pt x="338" y="249" on="0"/>
        <pt x="273" y="249" on="1"/>
        <pt x="247" y="249" on="0"/>
        <pt x="240" y="250" on="1"/>
        <pt x="246" y="41" on="1"/>
        <pt x="246" y="18" on="0"/>
        <pt x="224" y="-10" on="0"/>
        <pt x="186" y="-10" on="0"/>
        <pt x="164" y="18" on="0"/>
        <pt x="164" y="91" on="0"/>
        <pt x="168" y="258" on="1"/>
        <pt x="106" y="272" on="0"/>
        <pt x="42" y="334" on="0"/>
        <pt x="42" y="414" on="0"/>
        <pt x="113" y="474" on="0"/>
        <pt x="168" y="479" on="1"/>
        <pt x="160" y="678" on="1"/>
        <pt x="160" y="721" on="0"/>
        <pt x="195" y="738" on="1"/>
        <pt x="255" y="765" on="0"/>
        <pt x="339" y="765" on="1"/>
        <pt x="461" y="765" on="0"/>
        <pt x="618" y="633" on="0"/>
        <pt x="618" y="535" on="1"/>
        <pt x="618" y="466" on="0"/>
        <pt x="537" y="339" on="0"/>
        <pt x="469" y="300" on="1"/>
        <pt x="582" y="96" on="0"/>
        <pt x="601" y="67" on="1"/>
        <pt x="647" y="-3" on="0"/>
        <pt x="690" y="-6" on="1"/>
      </contour>
      <contour>
        <pt x="338" y="-99" on="1"/>
        <pt x="338" y="-142" on="0"/>
        <pt x="261" y="-235" on="0"/>
        <pt x="236" y="-235" on="1"/>
        <pt x="226" y="-235" on="0"/>
        <pt x="213" y="-223" on="0"/>
        <pt x="213" y="-210" on="0"/>
        <pt x="222" y="-193" on="0"/>
        <pt x="230" y="-179" on="1"/>
        <pt x="246" y="-149" on="0"/>
        <pt x="261" y="-84" on="0"/>
        <pt x="282" y="-54" on="0"/>
        <pt x="306" y="-54" on="0"/>
        <pt x="315" y="-58" on="1"/>
        <pt x="339" y="-69" on="0"/>
        <pt x="339" y="-92" on="1"/>
        <pt x="339" y="-95" on="0"/>
      </contour>
    </TTGlyph>
    <TTGlyph name="S" xMin="46" yMin="-15" xMax="539" yMax="765">
      <contour>
        <pt x="232" y="141" on="0"/>
        <pt x="212" y="151" on="0"/>
        <pt x="212" y="167" on="0"/>
        <pt x="222" y="188" on="0"/>
        <pt x="226" y="198" on="1"/>
        <pt x="236" y="222" on="0"/>
        <pt x="218" y="235" on="1"/>
        <pt x="197" y="249" on="0"/>
        <pt x="155" y="249" on="0"/>
        <pt x="118" y="214" on="0"/>
        <pt x="118" y="183" on="1"/>
        <pt x="118" y="138" on="0"/>
        <pt x="206" y="55" on="0"/>
        <pt x="358" y="55" on="0"/>
        <pt x="459" y="145" on="0"/>
        <pt x="459" y="210" on="1"/>
        <pt x="459" y="298" on="0"/>
        <pt x="327" y="365" on="1"/>
        <pt x="320" y="369" on="0"/>
        <pt x="272" y="392" on="0"/>
        <pt x="254" y="402" on="0"/>
        <pt x="213" y="424" on="0"/>
        <pt x="190" y="440" on="0"/>
        <pt x="174" y="451" on="1"/>
        <pt x="150" y="467" on="0"/>
        <pt x="123" y="497" on="1"/>
        <pt x="85" y="543" on="0"/>
        <pt x="85" y="668" on="0"/>
        <pt x="207" y="765" on="0"/>
        <pt x="372" y="765" on="0"/>
        <pt x="488" y="703" on="0"/>
        <pt x="488" y="664" on="1"/>
        <pt x="488" y="640" on="0"/>
        <pt x="468" y="632" on="1"/>
        <pt x="461" y="630" on="0"/>
        <pt x="439" y="630" on="0"/>
        <pt x="418" y="644" on="0"/>
        <pt x="391" y="668" on="0"/>
        <pt x="380" y="675" on="1"/>
        <pt x="350" y="695" on="0"/>
        <pt x="246" y="695" on="0"/>
        <pt x="165" y="641" on="0"/>
        <pt x="165" y="562" on="0"/>
        <pt x="203" y="528" on="1"/>
        <pt x="237" y="498" on="0"/>
        <pt x="383" y="419" on="0"/>
        <pt x="407" y="404" on="1"/>
        <pt x="466" y="369" on="0"/>
        <pt x="539" y="268" on="0"/>
        <pt x="539" y="210" on="1"/>
        <pt x="539" y="118" on="0"/>
        <pt x="396" y="-15" on="0"/>
        <pt x="174" y="-15" on="0"/>
        <pt x="46" y="101" on="0"/>
        <pt x="46" y="241" on="0"/>
        <pt x="120" y="318" on="0"/>
        <pt x="232" y="318" on="0"/>
        <pt x="292" y="262" on="0"/>
        <pt x="292" y="190" on="0"/>
        <pt x="273" y="167" on="1"/>
        <pt x="262" y="152" on="0"/>
      </contour>
    </TTGlyph>
    <TTGlyph name="T" xMin="20" yMin="-10" xMax="601" yMax="804">
      <contour>
        <pt x="322" y="17" on="0"/>
        <pt x="299" y="-10" on="0"/>
        <pt x="262" y="-10" on="0"/>
        <pt x="241" y="17" on="0"/>
        <pt x="240" y="39" on="0"/>
        <pt x="240" y="61" on="0"/>
        <pt x="244" y="190" on="0"/>
        <pt x="244" y="560" on="0"/>
        <pt x="255" y="624" on="1"/>
        <pt x="202" y="628" on="0"/>
        <pt x="138" y="647" on="1"/>
        <pt x="20" y="683" on="0"/>
        <pt x="20" y="725" on="1"/>
        <pt x="19" y="748" on="0"/>
        <pt x="40" y="759" on="1"/>
        <pt x="50" y="764" on="0"/>
        <pt x="69" y="764" on="0"/>
        <pt x="79" y="756" on="1"/>
        <pt x="94" y="748" on="0"/>
        <pt x="105" y="740" on="1"/>
        <pt x="144" y="713" on="0"/>
        <pt x="270" y="694" on="1"/>
        <pt x="296" y="747" on="0"/>
        <pt x="406" y="804" on="0"/>
        <pt x="531" y="804" on="0"/>
        <pt x="565" y="776" on="1"/>
        <pt x="601" y="749" on="0"/>
        <pt x="601" y="676" on="0"/>
        <pt x="519" y="614" on="0"/>
        <pt x="415" y="614" on="1"/>
        <pt x="358" y="614" on="0"/>
        <pt x="326" y="617" on="1"/>
        <pt x="316" y="587" on="0"/>
        <pt x="316" y="245" on="0"/>
        <pt x="322" y="39" on="0"/>
      </contour>
      <contour>
        <pt x="461" y="734" on="1"/>
        <pt x="377" y="734" on="0"/>
        <pt x="343" y="686" on="1"/>
        <pt x="369" y="681" on="0"/>
        <pt x="431" y="681" on="0"/>
        <pt x="526" y="699" on="0"/>
        <pt x="526" y="713" on="1"/>
        <pt x="526" y="734" on="0"/>
      </contour>
    </TTGlyph>
    <TTGlyph name="Th" xMin="27" yMin="-11" xMax="999" yMax="756">
      <contour>
        <pt x="75" y="755" on="1"/>
        <pt x="267" y="750" on="1"/>
        <pt x="558" y="756" on="1"/>
        <pt x="581" y="756" on="0"/>
        <pt x="609" y="735" on="0"/>
        <pt x="609" y="702" on="0"/>
        <pt x="604" y="442" on="0"/>
        <pt x="604" y="382" on="1"/>
        <pt x="674" y="509" on="0"/>
        <pt x="784" y="509" on="1"/>
        <pt x="864" y="509" on="0"/>
        <pt x="952" y="394" on="0"/>
        <pt x="952" y="314" on="1"/>
        <pt x="947" y="157" on="1"/>
        <pt x="947" y="114" on="1"/>
        <pt x="949" y="73" on="0"/>
        <pt x="967" y="65" on="1"/>
        <pt x="974" y="63" on="0"/>
        <pt x="992" y="60" on="0"/>
        <pt x="999" y="56" on="0"/>
        <pt x="999" y="50" on="1"/>
        <pt x="999" y="24" on="0"/>
        <pt x="966" y="-11" on="0"/>
        <pt x="944" y="-11" on="1"/>
        <pt x="906" y="-11" on="0"/>
        <pt x="877" y="45" on="0"/>
        <pt x="878" y="168" on="0"/>
        <pt x="881" y="291" on="1"/>
        <pt x="881" y="359" on="0"/>
        <pt x="821" y="443" on="0"/>
        <pt x="720" y="443" on="0"/>
        <pt x="623" y="328" on="0"/>
        <pt x="605" y="257" on="1"/>
        <pt x="608" y="40" on="1"/>
        <pt x="608" y="-11" on="0"/>
        <pt x="570" y="-11" on="1"/>
        <pt x="524" y="-11" on="0"/>
        <pt x="524" y="126" on="0"/>
        <pt x="544" y="257" on="1"/>
        <pt x="544" y="361" on="0"/>
        <pt x="539" y="501" on="1"/>
        <pt x="533" y="669" on="0"/>
        <pt x="533" y="678" on="1"/>
        <pt x="308" y="683" on="1"/>
        <pt x="303" y="433" on="0"/>
        <pt x="303" y="372" on="1"/>
        <pt x="308" y="41" on="1"/>
        <pt x="308" y="37" on="0"/>
        <pt x="308" y="34" on="1"/>
        <pt x="308" y="8" on="0"/>
        <pt x="289" y="-4" on="1"/>
        <pt x="278" y="-10" on="0"/>
        <pt x="267" y="-10" on="1"/>
        <pt x="245" y="-4" on="1"/>
        <pt x="226" y="8" on="0"/>
        <pt x="226" y="34" on="1"/>
        <pt x="226" y="37" on="0"/>
        <pt x="226" y="41" on="1"/>
        <pt x="231" y="372" on="1"/>
        <pt x="231" y="434" on="0"/>
        <pt x="226" y="684" on="1"/>
        <pt x="75" y="679" on="1"/>
        <pt x="27" y="679" on="0"/>
        <pt x="27" y="755" on="0"/>
      </contour>
    </TTGlyph>
    <TTGlyph name="Thorn" xMin="98" yMin="-10" xMax="539" yMax="760">
      <contour>
        <pt x="98" y="40" on="1"/>
        <pt x="103" y="375" on="1"/>
        <pt x="98" y="710" on="1"/>
        <pt x="98" y="760" on="0"/>
        <pt x="174" y="760" on="0"/>
        <pt x="174" y="710" on="1"/>
        <pt x="174" y="692" on="0"/>
        <pt x="171" y="605" on="1"/>
        <pt x="220" y="622" on="0"/>
        <pt x="289" y="622" on="1"/>
        <pt x="401" y="622" on="0"/>
        <pt x="539" y="502" on="0"/>
        <pt x="539" y="321" on="0"/>
        <pt x="401" y="201" on="0"/>
        <pt x="288" y="201" on="1"/>
        <pt x="219" y="201" on="0"/>
        <pt x="170" y="218" on="1"/>
        <pt x="174" y="40" on="1"/>
        <pt x="174" y="-10" on="0"/>
        <pt x="98" y="-10" on="0"/>
      </contour>
      <contour>
        <pt x="172" y="543" on="1"/>
        <pt x="170" y="487" on="0"/>
        <pt x="170" y="308" on="0"/>
        <pt x="171" y="280" on="1"/>
        <pt x="222" y="264" on="0"/>
        <pt x="365" y="264" on="0"/>
        <pt x="464" y="345" on="0"/>
        <pt x="464" y="478" on="0"/>
        <pt x="365" y="559" on="0"/>
        <pt x="223" y="559" on="0"/>
      </contour>
    </TTGlyph>
    <TTGlyph name="U" xMin="28" yMin="-16" xMax="755" yMax="765">
      <contour>
        <pt x="152" y="690" on="1"/>
        <pt x="129" y="690" on="0"/>
        <pt x="98" y="654" on="0"/>
        <pt x="98" y="606" on="0"/>
        <pt x="116" y="573" on="0"/>
        <pt x="134" y="555" on="0"/>
        <pt x="134" y="550" on="1"/>
        <pt x="134" y="526" on="0"/>
        <pt x="78" y="526" on="0"/>
        <pt x="28" y="588" on="0"/>
        <pt x="28" y="672" on="0"/>
        <pt x="54" y="716" on="1"/>
        <pt x="86" y="765" on="0"/>
        <pt x="218" y="765" on="0"/>
        <pt x="288" y="674" on="0"/>
        <pt x="288" y="563" on="0"/>
        <pt x="237" y="292" on="0"/>
        <pt x="237" y="256" on="1"/>
        <pt x="237" y="163" on="0"/>
        <pt x="297" y="55" on="0"/>
        <pt x="416" y="55" on="0"/>
        <pt x="521" y="197" on="0"/>
        <pt x="575" y="370" on="0"/>
        <pt x="580" y="452" on="1"/>
        <pt x="577" y="522" on="0"/>
        <pt x="577" y="694" on="1"/>
        <pt x="577" y="760" on="0"/>
        <pt x="620" y="760" on="1"/>
        <pt x="672" y="760" on="0"/>
        <pt x="672" y="677" on="1"/>
        <pt x="672" y="657" on="0"/>
        <pt x="646" y="421" on="1"/>
        <pt x="648" y="313" on="0"/>
        <pt x="688" y="91" on="0"/>
        <pt x="707" y="71" on="1"/>
        <pt x="713" y="64" on="0"/>
        <pt x="755" y="61" on="0"/>
        <pt x="755" y="51" on="1"/>
        <pt x="755" y="23" on="0"/>
        <pt x="736" y="4" on="1"/>
        <pt x="716" y="-16" on="0"/>
        <pt x="677" y="-16" on="0"/>
        <pt x="670" y="-10" on="1"/>
        <pt x="655" y="-2" on="0"/>
        <pt x="638" y="26" on="1"/>
        <pt x="623" y="54" on="0"/>
        <pt x="605" y="153" on="0"/>
        <pt x="603" y="164" on="0"/>
        <pt x="596" y="219" on="0"/>
        <pt x="594" y="227" on="1"/>
        <pt x="570" y="134" on="0"/>
        <pt x="451" y="-15" on="0"/>
        <pt x="252" y="-15" on="0"/>
        <pt x="202" y="62" on="1"/>
        <pt x="158" y="133" on="0"/>
        <pt x="158" y="304" on="0"/>
        <pt x="213" y="556" on="0"/>
        <pt x="213" y="609" on="1"/>
        <pt x="213" y="690" on="0"/>
      </contour>
    </TTGlyph>
    <TTGlyph name="Uacute" xMin="28" yMin="-16" xMax="755" yMax="970">
      <component glyphName="U" x="0" y="0" flags="0x1004"/>
      <component glyphName="acute" x="302" y="210" flags="0x1004"/>
    </TTGlyph>
    <TTGlyph name="Ucircumflex" xMin="28" yMin="-16" xMax="755" yMax="985">
      <contour>
        <pt x="152" y="690" on="1"/>
        <pt x="129" y="690" on="0"/>
        <pt x="98" y="654" on="0"/>
        <pt x="98" y="606" on="0"/>
        <pt x="116" y="573" on="0"/>
        <pt x="134" y="555" on="0"/>
        <pt x="134" y="550" on="1"/>
        <pt x="134" y="526" on="0"/>
        <pt x="78" y="526" on="0"/>
        <pt x="28" y="588" on="0"/>
        <pt x="28" y="672" on="0"/>
        <pt x="54" y="716" on="1"/>
        <pt x="86" y="765" on="0"/>
        <pt x="218" y="765" on="0"/>
        <pt x="288" y="674" on="0"/>
        <pt x="288" y="563" on="0"/>
        <pt x="237" y="292" on="0"/>
        <pt x="237" y="256" on="1"/>
        <pt x="237" y="163" on="0"/>
        <pt x="297" y="55" on="0"/>
        <pt x="416" y="55" on="0"/>
        <pt x="521" y="197" on="0"/>
        <pt x="575" y="370" on="0"/>
        <pt x="580" y="452" on="1"/>
        <pt x="577" y="522" on="0"/>
        <pt x="577" y="694" on="1"/>
        <pt x="577" y="760" on="0"/>
        <pt x="620" y="760" on="1"/>
        <pt x="672" y="760" on="0"/>
        <pt x="672" y="677" on="1"/>
        <pt x="672" y="657" on="0"/>
        <pt x="646" y="421" on="1"/>
        <pt x="648" y="313" on="0"/>
        <pt x="688" y="91" on="0"/>
        <pt x="707" y="71" on="1"/>
        <pt x="713" y="64" on="0"/>
        <pt x="755" y="61" on="0"/>
        <pt x="755" y="51" on="1"/>
        <pt x="755" y="23" on="0"/>
        <pt x="736" y="4" on="1"/>
        <pt x="716" y="-16" on="0"/>
        <pt x="677" y="-16" on="0"/>
        <pt x="670" y="-10" on="1"/>
        <pt x="655" y="-2" on="0"/>
        <pt x="638" y="26" on="1"/>
        <pt x="623" y="54" on="0"/>
        <pt x="605" y="153" on="0"/>
        <pt x="603" y="164" on="0"/>
        <pt x="596" y="219" on="0"/>
        <pt x="594" y="227" on="1"/>
        <pt x="570" y="134" on="0"/>
        <pt x="451" y="-15" on="0"/>
        <pt x="252" y="-15" on="0"/>
        <pt x="202" y="62" on="1"/>
        <pt x="158" y="133" on="0"/>
        <pt x="158" y="304" on="0"/>
        <pt x="213" y="556" on="0"/>
        <pt x="213" y="609" on="1"/>
        <pt x="213" y="690" on="0"/>
      </contour>
      <contour>
        <pt x="484" y="863" on="1"/>
        <pt x="443" y="911" on="0"/>
        <pt x="414" y="911" on="0"/>
        <pt x="373" y="863" on="1"/>
        <pt x="370" y="861" on="0"/>
        <pt x="335" y="813" on="0"/>
        <pt x="302" y="813" on="0"/>
        <pt x="292" y="821" on="1"/>
        <pt x="282" y="832" on="0"/>
        <pt x="282" y="856" on="0"/>
        <pt x="300" y="874" on="0"/>
        <pt x="313" y="885" on="1"/>
        <pt x="350" y="916" on="0"/>
        <pt x="369" y="944" on="1"/>
        <pt x="387" y="967" on="0"/>
        <pt x="398" y="976" on="1"/>
        <pt x="410" y="985" on="0"/>
        <pt x="446" y="985" on="0"/>
        <pt x="469" y="968" on="0"/>
        <pt x="508" y="919" on="0"/>
        <pt x="528" y="899" on="0"/>
        <pt x="542" y="888" on="1"/>
        <pt x="566" y="868" on="0"/>
        <pt x="570" y="858" on="1"/>
        <pt x="574" y="853" on="0"/>
        <pt x="574" y="839" on="0"/>
        <pt x="571" y="830" on="1"/>
        <pt x="564" y="813" on="0"/>
        <pt x="543" y="813" on="1"/>
        <pt x="541" y="813" on="0"/>
        <pt x="531" y="813" on="0"/>
        <pt x="509" y="831" on="0"/>
        <pt x="486" y="862" on="0"/>
      </contour>
    </TTGlyph>
    <TTGlyph name="Udieresis" xMin="28" yMin="-16" xMax="755" yMax="954">
      <contour>
        <pt x="152" y="690" on="1"/>
        <pt x="129" y="690" on="0"/>
        <pt x="98" y="654" on="0"/>
        <pt x="98" y="606" on="0"/>
        <pt x="116" y="573" on="0"/>
        <pt x="134" y="555" on="0"/>
        <pt x="134" y="550" on="1"/>
        <pt x="134" y="526" on="0"/>
        <pt x="78" y="526" on="0"/>
        <pt x="28" y="588" on="0"/>
        <pt x="28" y="672" on="0"/>
        <pt x="54" y="716" on="1"/>
        <pt x="86" y="765" on="0"/>
        <pt x="218" y="765" on="0"/>
        <pt x="288" y="674" on="0"/>
        <pt x="288" y="563" on="0"/>
        <pt x="237" y="292" on="0"/>
        <pt x="237" y="256" on="1"/>
        <pt x="237" y="163" on="0"/>
        <pt x="297" y="55" on="0"/>
        <pt x="416" y="55" on="0"/>
        <pt x="521" y="197" on="0"/>
        <pt x="575" y="370" on="0"/>
        <pt x="580" y="452" on="1"/>
        <pt x="577" y="522" on="0"/>
        <pt x="577" y="694" on="1"/>
        <pt x="577" y="760" on="0"/>
        <pt x="620" y="760" on="1"/>
        <pt x="672" y="760" on="0"/>
        <pt x="672" y="677" on="1"/>
        <pt x="672" y="657" on="0"/>
        <pt x="646" y="421" on="1"/>
        <pt x="648" y="313" on="0"/>
        <pt x="688" y="91" on="0"/>
        <pt x="707" y="71" on="1"/>
        <pt x="713" y="64" on="0"/>
        <pt x="755" y="61" on="0"/>
        <pt x="755" y="51" on="1"/>
        <pt x="755" y="23" on="0"/>
        <pt x="736" y="4" on="1"/>
        <pt x="716" y="-16" on="0"/>
        <pt x="677" y="-16" on="0"/>
        <pt x="670" y="-10" on="1"/>
        <pt x="655" y="-2" on="0"/>
        <pt x="638" y="26" on="1"/>
        <pt x="623" y="54" on="0"/>
        <pt x="605" y="153" on="0"/>
        <pt x="603" y="164" on="0"/>
        <pt x="596" y="219" on="0"/>
        <pt x="594" y="227" on="1"/>
        <pt x="570" y="134" on="0"/>
        <pt x="451" y="-15" on="0"/>
        <pt x="252" y="-15" on="0"/>
        <pt x="202" y="62" on="1"/>
        <pt x="158" y="133" on="0"/>
        <pt x="158" y="304" on="0"/>
        <pt x="213" y="556" on="0"/>
        <pt x="213" y="609" on="1"/>
        <pt x="213" y="690" on="0"/>
      </contour>
      <contour>
        <pt x="345" y="954" on="1"/>
        <pt x="386" y="954" on="0"/>
        <pt x="386" y="906" on="1"/>
        <pt x="386" y="884" on="0"/>
        <pt x="357" y="845" on="0"/>
        <pt x="337" y="845" on="1"/>
        <pt x="295" y="845" on="0"/>
        <pt x="295" y="896" on="1"/>
        <pt x="295" y="920" on="0"/>
        <pt x="324" y="954" on="0"/>
      </contour>
      <contour>
        <pt x="505" y="954" on="1"/>
        <pt x="546" y="954" on="0"/>
        <pt x="546" y="906" on="1"/>
        <pt x="546" y="884" on="0"/>
        <pt x="517" y="845" on="0"/>
        <pt x="497" y="845" on="1"/>
        <pt x="455" y="845" on="0"/>
        <pt x="455" y="896" on="1"/>
        <pt x="455" y="920" on="0"/>
        <pt x="484" y="954" on="0"/>
      </contour>
    </TTGlyph>
    <TTGlyph name="Ugrave" xMin="28" yMin="-16" xMax="755" yMax="970">
      <component glyphName="U" x="0" y="0" flags="0x1004"/>
      <component glyphName="grave" x="246" y="210" flags="0x1004"/>
    </TTGlyph>
    <TTGlyph name="V" xMin="24" yMin="-15" xMax="710" yMax="765">
      <contour>
        <pt x="210" y="358" on="1"/>
        <pt x="213" y="528" on="1"/>
        <pt x="213" y="691" on="0"/>
        <pt x="139" y="691" on="1"/>
        <pt x="118" y="691" on="0"/>
        <pt x="92" y="666" on="0"/>
        <pt x="94" y="639" on="0"/>
        <pt x="102" y="630" on="1"/>
        <pt x="108" y="626" on="0"/>
        <pt x="123" y="620" on="1"/>
        <pt x="155" y="607" on="0"/>
        <pt x="155" y="584" on="1"/>
        <pt x="155" y="549" on="0"/>
        <pt x="79" y="549" on="0"/>
        <pt x="24" y="610" on="0"/>
        <pt x="24" y="696" on="0"/>
        <pt x="84" y="765" on="0"/>
        <pt x="134" y="765" on="1"/>
        <pt x="230" y="765" on="0"/>
        <pt x="262" y="698" on="1"/>
        <pt x="290" y="643" on="0"/>
        <pt x="290" y="536" on="1"/>
        <pt x="289" y="478" on="0"/>
        <pt x="286" y="362" on="1"/>
        <pt x="286" y="223" on="0"/>
        <pt x="340" y="60" on="0"/>
        <pt x="387" y="60" on="1"/>
        <pt x="420" y="60" on="0"/>
        <pt x="473" y="174" on="0"/>
        <pt x="551" y="443" on="0"/>
        <pt x="580" y="545" on="1"/>
        <pt x="625" y="709" on="0"/>
        <pt x="628" y="717" on="1"/>
        <pt x="642" y="759" on="0"/>
        <pt x="672" y="759" on="1"/>
        <pt x="691" y="759" on="0"/>
        <pt x="710" y="733" on="0"/>
        <pt x="710" y="705" on="0"/>
        <pt x="653" y="524" on="0"/>
        <pt x="540" y="141" on="0"/>
        <pt x="511" y="82" on="1"/>
        <pt x="463" y="-15" on="0"/>
        <pt x="299" y="-15" on="0"/>
        <pt x="210" y="180" on="0"/>
      </contour>
    </TTGlyph>
    <TTGlyph name="W" xMin="24" yMin="-15" xMax="1039" yMax="765">
      <contour>
        <pt x="209" y="358" on="1"/>
        <pt x="212" y="528" on="1"/>
        <pt x="212" y="691" on="0"/>
        <pt x="138" y="691" on="1"/>
        <pt x="117" y="691" on="0"/>
        <pt x="92" y="666" on="0"/>
        <pt x="94" y="638" on="0"/>
        <pt x="102" y="629" on="1"/>
        <pt x="108" y="625" on="0"/>
        <pt x="123" y="619" on="1"/>
        <pt x="155" y="606" on="0"/>
        <pt x="155" y="583" on="1"/>
        <pt x="155" y="548" on="0"/>
        <pt x="79" y="548" on="0"/>
        <pt x="24" y="609" on="0"/>
        <pt x="24" y="696" on="0"/>
        <pt x="84" y="765" on="0"/>
        <pt x="133" y="765" on="1"/>
        <pt x="229" y="765" on="0"/>
        <pt x="261" y="698" on="1"/>
        <pt x="289" y="643" on="0"/>
        <pt x="289" y="536" on="1"/>
        <pt x="285" y="362" on="1"/>
        <pt x="285" y="222" on="0"/>
        <pt x="334" y="60" on="0"/>
        <pt x="376" y="60" on="1"/>
        <pt x="425" y="60" on="0"/>
        <pt x="507" y="227" on="0"/>
        <pt x="507" y="323" on="1"/>
        <pt x="505" y="546" on="1"/>
        <pt x="505" y="612" on="0"/>
        <pt x="548" y="612" on="1"/>
        <pt x="600" y="612" on="0"/>
        <pt x="600" y="529" on="1"/>
        <pt x="600" y="503" on="0"/>
        <pt x="580" y="317" on="1"/>
        <pt x="581" y="225" on="0"/>
        <pt x="663" y="64" on="0"/>
        <pt x="711" y="64" on="1"/>
        <pt x="755" y="64" on="0"/>
        <pt x="805" y="224" on="0"/>
        <pt x="805" y="365" on="1"/>
        <pt x="801" y="536" on="1"/>
        <pt x="801" y="641" on="0"/>
        <pt x="826" y="698" on="1"/>
        <pt x="854" y="765" on="0"/>
        <pt x="945" y="765" on="1"/>
        <pt x="982" y="765" on="0"/>
        <pt x="1039" y="717" on="0"/>
        <pt x="1039" y="669" on="0"/>
        <pt x="1017" y="669" on="1"/>
        <pt x="1010" y="669" on="0"/>
        <pt x="968" y="691" on="0"/>
        <pt x="952" y="691" on="1"/>
        <pt x="878" y="691" on="0"/>
        <pt x="878" y="528" on="1"/>
        <pt x="881" y="361" on="1"/>
        <pt x="881" y="182" on="0"/>
        <pt x="794" y="-10" on="0"/>
        <pt x="708" y="-10" on="1"/>
        <pt x="653" y="-10" on="0"/>
        <pt x="569" y="89" on="0"/>
        <pt x="544" y="176" on="1"/>
        <pt x="520" y="87" on="0"/>
        <pt x="435" y="-15" on="0"/>
        <pt x="379" y="-15" on="1"/>
        <pt x="294" y="-15" on="0"/>
        <pt x="209" y="177" on="0"/>
      </contour>
    </TTGlyph>
    <TTGlyph name="X" xMin="28" yMin="-16" xMax="719" yMax="765">
      <contour>
        <pt x="365" y="321" on="1"/>
        <pt x="264" y="159" on="0"/>
        <pt x="224" y="90" on="1"/>
        <pt x="179" y="14" on="1"/>
        <pt x="162" y="-10" on="0"/>
        <pt x="140" y="-10" on="1"/>
        <pt x="100" y="-10" on="0"/>
        <pt x="100" y="25" on="1"/>
        <pt x="100" y="42" on="0"/>
        <pt x="109" y="55" on="1"/>
        <pt x="153" y="122" on="1"/>
        <pt x="228" y="231" on="0"/>
        <pt x="330" y="391" on="1"/>
        <pt x="276" y="535" on="0"/>
        <pt x="175" y="693" on="0"/>
        <pt x="136" y="693" on="1"/>
        <pt x="108" y="693" on="0"/>
        <pt x="99" y="667" on="1"/>
        <pt x="96" y="658" on="0"/>
        <pt x="96" y="637" on="0"/>
        <pt x="112" y="626" on="0"/>
        <pt x="127" y="620" on="1"/>
        <pt x="159" y="607" on="0"/>
        <pt x="159" y="584" on="1"/>
        <pt x="159" y="549" on="0"/>
        <pt x="84" y="549" on="0"/>
        <pt x="55" y="579" on="1"/>
        <pt x="28" y="606" on="0"/>
        <pt x="28" y="652" on="1"/>
        <pt x="28" y="711" on="0"/>
        <pt x="74" y="744" on="1"/>
        <pt x="100" y="764" on="0"/>
        <pt x="135" y="764" on="1"/>
        <pt x="137" y="764" on="0"/>
        <pt x="139" y="764" on="1"/>
        <pt x="207" y="764" on="0"/>
        <pt x="260" y="693" on="1"/>
        <pt x="315" y="622" on="0"/>
        <pt x="376" y="463" on="1"/>
        <pt x="411" y="519" on="0"/>
        <pt x="532" y="728" on="0"/>
        <pt x="542" y="744" on="1"/>
        <pt x="554" y="760" on="0"/>
        <pt x="594" y="760" on="0"/>
        <pt x="610" y="739" on="0"/>
        <pt x="610" y="713" on="0"/>
        <pt x="595" y="682" on="0"/>
        <pt x="569" y="639" on="1"/>
        <pt x="413" y="390" on="1"/>
        <pt x="532" y="55" on="0"/>
        <pt x="611" y="55" on="1"/>
        <pt x="631" y="55" on="0"/>
        <pt x="653" y="80" on="0"/>
        <pt x="653" y="117" on="0"/>
        <pt x="627" y="137" on="0"/>
        <pt x="610" y="138" on="1"/>
        <pt x="568" y="141" on="0"/>
        <pt x="568" y="177" on="0"/>
        <pt x="602" y="195" on="0"/>
        <pt x="623" y="195" on="1"/>
        <pt x="662" y="195" on="0"/>
        <pt x="719" y="137" on="0"/>
        <pt x="719" y="50" on="0"/>
        <pt x="658" y="-16" on="0"/>
        <pt x="554" y="-16" on="0"/>
        <pt x="504" y="40" on="1"/>
        <pt x="446" y="109" on="0"/>
      </contour>
    </TTGlyph>
    <TTGlyph name="Y" xMin="21" yMin="-85" xMax="556" yMax="764">
      <contour>
        <pt x="21" y="713" on="1"/>
        <pt x="21" y="760" on="0"/>
        <pt x="57" y="760" on="1"/>
        <pt x="67" y="760" on="0"/>
        <pt x="87" y="741" on="0"/>
        <pt x="96" y="714" on="0"/>
        <pt x="112" y="651" on="0"/>
        <pt x="124" y="611" on="1"/>
        <pt x="158" y="497" on="0"/>
        <pt x="218" y="422" on="1"/>
        <pt x="251" y="381" on="0"/>
        <pt x="281" y="381" on="1"/>
        <pt x="296" y="381" on="0"/>
        <pt x="303" y="385" on="1"/>
        <pt x="347" y="664" on="0"/>
        <pt x="418" y="734" on="1"/>
        <pt x="448" y="764" on="0"/>
        <pt x="519" y="764" on="0"/>
        <pt x="556" y="719" on="0"/>
        <pt x="556" y="681" on="1"/>
        <pt x="556" y="598" on="0"/>
        <pt x="441" y="409" on="0"/>
        <pt x="373" y="342" on="1"/>
        <pt x="365" y="292" on="0"/>
        <pt x="365" y="122" on="0"/>
        <pt x="375" y="-29" on="0"/>
        <pt x="375" y="-59" on="0"/>
        <pt x="352" y="-85" on="0"/>
        <pt x="334" y="-85" on="1"/>
        <pt x="296" y="-85" on="0"/>
        <pt x="290" y="8" on="1"/>
        <pt x="289" y="32" on="0"/>
        <pt x="289" y="154" on="0"/>
        <pt x="301" y="310" on="1"/>
        <pt x="289" y="308" on="0"/>
        <pt x="275" y="308" on="1"/>
        <pt x="224" y="308" on="0"/>
        <pt x="141" y="385" on="0"/>
        <pt x="64" y="549" on="0"/>
        <pt x="21" y="684" on="0"/>
      </contour>
      <contour>
        <pt x="477" y="692" on="1"/>
        <pt x="456" y="692" on="0"/>
        <pt x="380" y="484" on="0"/>
        <pt x="376" y="434" on="1"/>
        <pt x="414" y="478" on="0"/>
        <pt x="488" y="628" on="0"/>
        <pt x="488" y="671" on="1"/>
        <pt x="488" y="692" on="0"/>
      </contour>
    </TTGlyph>
    <TTGlyph name="Yacute" xMin="21" yMin="-85" xMax="556" yMax="970">
      <contour>
        <pt x="21" y="713" on="1"/>
        <pt x="21" y="760" on="0"/>
        <pt x="57" y="760" on="1"/>
        <pt x="67" y="760" on="0"/>
        <pt x="87" y="741" on="0"/>
        <pt x="96" y="714" on="0"/>
        <pt x="112" y="651" on="0"/>
        <pt x="124" y="611" on="1"/>
        <pt x="158" y="497" on="0"/>
        <pt x="218" y="422" on="1"/>
        <pt x="251" y="381" on="0"/>
        <pt x="281" y="381" on="1"/>
        <pt x="296" y="381" on="0"/>
        <pt x="303" y="385" on="1"/>
        <pt x="347" y="664" on="0"/>
        <pt x="418" y="734" on="1"/>
        <pt x="448" y="764" on="0"/>
        <pt x="519" y="764" on="0"/>
        <pt x="556" y="719" on="0"/>
        <pt x="556" y="681" on="1"/>
        <pt x="556" y="598" on="0"/>
        <pt x="441" y="409" on="0"/>
        <pt x="373" y="342" on="1"/>
        <pt x="365" y="292" on="0"/>
        <pt x="365" y="122" on="0"/>
        <pt x="375" y="-29" on="0"/>
        <pt x="375" y="-59" on="0"/>
        <pt x="352" y="-85" on="0"/>
        <pt x="334" y="-85" on="1"/>
        <pt x="296" y="-85" on="0"/>
        <pt x="290" y="8" on="1"/>
        <pt x="289" y="32" on="0"/>
        <pt x="289" y="154" on="0"/>
        <pt x="301" y="310" on="1"/>
        <pt x="289" y="308" on="0"/>
        <pt x="275" y="308" on="1"/>
        <pt x="224" y="308" on="0"/>
        <pt x="141" y="385" on="0"/>
        <pt x="64" y="549" on="0"/>
        <pt x="21" y="684" on="0"/>
      </contour>
      <contour>
        <pt x="477" y="692" on="1"/>
        <pt x="456" y="692" on="0"/>
        <pt x="380" y="484" on="0"/>
        <pt x="376" y="434" on="1"/>
        <pt x="414" y="478" on="0"/>
        <pt x="488" y="628" on="0"/>
        <pt x="488" y="671" on="1"/>
        <pt x="488" y="692" on="0"/>
      </contour>
      <contour>
        <pt x="388" y="932" on="1"/>
        <pt x="388" y="889" on="0"/>
        <pt x="296" y="802" on="0"/>
        <pt x="243" y="802" on="0"/>
        <pt x="243" y="824" on="1"/>
        <pt x="243" y="837" on="0"/>
        <pt x="265" y="860" on="0"/>
        <pt x="282" y="881" on="1"/>
        <pt x="290" y="893" on="0"/>
        <pt x="312" y="944" on="0"/>
        <pt x="335" y="970" on="0"/>
        <pt x="369" y="970" on="0"/>
        <pt x="388" y="948" on="0"/>
      </contour>
    </TTGlyph>
    <TTGlyph name="Ydieresis" xMin="21" yMin="-85" xMax="556" yMax="954">
      <component glyphName="Y" x="0" y="0" flags="0x1004"/>
      <component glyphName="dieresis" x="93" y="229" flags="0x1004"/>
    </TTGlyph>
    <TTGlyph name="Z" xMin="12" yMin="-15" xMax="589" yMax="765">
      <contour>
        <pt x="93" y="111" on="1"/>
        <pt x="139" y="186" on="0"/>
        <pt x="347" y="533" on="0"/>
        <pt x="422" y="686" on="1"/>
        <pt x="352" y="669" on="0"/>
        <pt x="243" y="669" on="0"/>
        <pt x="165" y="674" on="0"/>
        <pt x="104" y="686" on="0"/>
        <pt x="55" y="713" on="0"/>
        <pt x="57" y="732" on="1"/>
        <pt x="57" y="765" on="0"/>
        <pt x="92" y="765" on="1"/>
        <pt x="96" y="765" on="0"/>
        <pt x="214" y="739" on="0"/>
        <pt x="338" y="739" on="0"/>
        <pt x="470" y="765" on="0"/>
        <pt x="480" y="765" on="1"/>
        <pt x="527" y="765" on="0"/>
        <pt x="527" y="726" on="1"/>
        <pt x="527" y="705" on="0"/>
        <pt x="465" y="592" on="0"/>
        <pt x="357" y="409" on="0"/>
        <pt x="318" y="344" on="1"/>
        <pt x="204" y="157" on="0"/>
        <pt x="169" y="94" on="1"/>
        <pt x="294" y="55" on="0"/>
        <pt x="438" y="55" on="0"/>
        <pt x="519" y="107" on="0"/>
        <pt x="519" y="198" on="0"/>
        <pt x="484" y="212" on="1"/>
        <pt x="472" y="218" on="0"/>
        <pt x="442" y="218" on="0"/>
        <pt x="429" y="201" on="1"/>
        <pt x="406" y="178" on="0"/>
        <pt x="421" y="135" on="1"/>
        <pt x="424" y="126" on="0"/>
        <pt x="424" y="125" on="1"/>
        <pt x="425" y="107" on="0"/>
        <pt x="377" y="115" on="0"/>
        <pt x="363" y="146" on="1"/>
        <pt x="356" y="162" on="0"/>
        <pt x="356" y="183" on="0"/>
        <pt x="356" y="186" on="1"/>
        <pt x="356" y="220" on="0"/>
        <pt x="418" y="283" on="0"/>
        <pt x="514" y="283" on="0"/>
        <pt x="589" y="212" on="0"/>
        <pt x="589" y="78" on="0"/>
        <pt x="470" y="-15" on="0"/>
        <pt x="286" y="-15" on="0"/>
        <pt x="137" y="30" on="1"/>
        <pt x="109" y="-6" on="0"/>
        <pt x="42" y="-6" on="0"/>
        <pt x="29" y="8" on="1"/>
        <pt x="13" y="25" on="0"/>
        <pt x="13" y="58" on="0"/>
        <pt x="24" y="85" on="0"/>
        <pt x="64" y="109" on="0"/>
      </contour>
    </TTGlyph>
    <TTGlyph name="a" xMin="48" yMin="-10" xMax="534" yMax="510">
      <contour>
        <pt x="467" y="242" on="1"/>
        <pt x="467" y="169" on="0"/>
        <pt x="488" y="72" on="0"/>
        <pt x="504" y="66" on="1"/>
        <pt x="510" y="63" on="0"/>
        <pt x="527" y="61" on="0"/>
        <pt x="534" y="57" on="0"/>
        <pt x="534" y="51" on="1"/>
        <pt x="534" y="23" on="0"/>
        <pt x="504" y="-10" on="0"/>
        <pt x="447" y="-10" on="0"/>
        <pt x="415" y="63" on="0"/>
        <pt x="415" y="122" on="1"/>
        <pt x="388" y="64" on="0"/>
        <pt x="292" y="-10" on="0"/>
        <pt x="171" y="-10" on="0"/>
        <pt x="128" y="30" on="1"/>
        <pt x="48" y="104" on="0"/>
        <pt x="48" y="239" on="1"/>
        <pt x="48" y="348" on="0"/>
        <pt x="174" y="510" on="0"/>
        <pt x="273" y="510" on="1"/>
        <pt x="348" y="510" on="0"/>
        <pt x="403" y="459" on="1"/>
        <pt x="403" y="510" on="0"/>
        <pt x="441" y="510" on="1"/>
        <pt x="487" y="510" on="0"/>
        <pt x="487" y="373" on="0"/>
      </contour>
      <contour>
        <pt x="409" y="233" on="1"/>
        <pt x="404" y="387" on="1"/>
        <pt x="345" y="445" on="0"/>
        <pt x="213" y="445" on="0"/>
        <pt x="119" y="327" on="0"/>
        <pt x="119" y="160" on="0"/>
        <pt x="181" y="55" on="0"/>
        <pt x="291" y="55" on="0"/>
        <pt x="384" y="153" on="0"/>
      </contour>
    </TTGlyph>
    <TTGlyph name="aacute" xMin="48" yMin="-10" xMax="534" yMax="760">
      <contour>
        <pt x="467" y="242" on="1"/>
        <pt x="467" y="169" on="0"/>
        <pt x="488" y="72" on="0"/>
        <pt x="504" y="66" on="1"/>
        <pt x="510" y="63" on="0"/>
        <pt x="527" y="61" on="0"/>
        <pt x="534" y="57" on="0"/>
        <pt x="534" y="51" on="1"/>
        <pt x="534" y="23" on="0"/>
        <pt x="504" y="-10" on="0"/>
        <pt x="447" y="-10" on="0"/>
        <pt x="415" y="63" on="0"/>
        <pt x="415" y="122" on="1"/>
        <pt x="388" y="64" on="0"/>
        <pt x="292" y="-10" on="0"/>
        <pt x="171" y="-10" on="0"/>
        <pt x="128" y="30" on="1"/>
        <pt x="48" y="104" on="0"/>
        <pt x="48" y="239" on="1"/>
        <pt x="48" y="348" on="0"/>
        <pt x="174" y="510" on="0"/>
        <pt x="273" y="510" on="1"/>
        <pt x="348" y="510" on="0"/>
        <pt x="403" y="459" on="1"/>
        <pt x="403" y="510" on="0"/>
        <pt x="441" y="510" on="1"/>
        <pt x="487" y="510" on="0"/>
        <pt x="487" y="373" on="0"/>
      </contour>
      <contour>
        <pt x="409" y="233" on="1"/>
        <pt x="404" y="387" on="1"/>
        <pt x="345" y="445" on="0"/>
        <pt x="213" y="445" on="0"/>
        <pt x="119" y="327" on="0"/>
        <pt x="119" y="160" on="0"/>
        <pt x="181" y="55" on="0"/>
        <pt x="291" y="55" on="0"/>
        <pt x="384" y="153" on="0"/>
      </contour>
      <contour>
        <pt x="388" y="722" on="1"/>
        <pt x="388" y="679" on="0"/>
        <pt x="296" y="592" on="0"/>
        <pt x="243" y="592" on="0"/>
        <pt x="243" y="614" on="1"/>
        <pt x="243" y="627" on="0"/>
        <pt x="265" y="650" on="0"/>
        <pt x="282" y="671" on="1"/>
        <pt x="290" y="683" on="0"/>
        <pt x="312" y="734" on="0"/>
        <pt x="335" y="760" on="0"/>
        <pt x="369" y="760" on="0"/>
        <pt x="388" y="738" on="0"/>
      </contour>
    </TTGlyph>
    <TTGlyph name="acircumflex" xMin="48" yMin="-10" xMax="534" yMax="760">
      <contour>
        <pt x="467" y="242" on="1"/>
        <pt x="467" y="169" on="0"/>
        <pt x="488" y="72" on="0"/>
        <pt x="504" y="66" on="1"/>
        <pt x="510" y="63" on="0"/>
        <pt x="527" y="61" on="0"/>
        <pt x="534" y="57" on="0"/>
        <pt x="534" y="51" on="1"/>
        <pt x="534" y="23" on="0"/>
        <pt x="504" y="-10" on="0"/>
        <pt x="447" y="-10" on="0"/>
        <pt x="415" y="63" on="0"/>
        <pt x="415" y="122" on="1"/>
        <pt x="388" y="64" on="0"/>
        <pt x="292" y="-10" on="0"/>
        <pt x="171" y="-10" on="0"/>
        <pt x="128" y="30" on="1"/>
        <pt x="48" y="104" on="0"/>
        <pt x="48" y="239" on="1"/>
        <pt x="48" y="348" on="0"/>
        <pt x="174" y="510" on="0"/>
        <pt x="273" y="510" on="1"/>
        <pt x="348" y="510" on="0"/>
        <pt x="403" y="459" on="1"/>
        <pt x="403" y="510" on="0"/>
        <pt x="441" y="510" on="1"/>
        <pt x="487" y="510" on="0"/>
        <pt x="487" y="373" on="0"/>
      </contour>
      <contour>
        <pt x="409" y="233" on="1"/>
        <pt x="404" y="387" on="1"/>
        <pt x="345" y="445" on="0"/>
        <pt x="213" y="445" on="0"/>
        <pt x="119" y="327" on="0"/>
        <pt x="119" y="160" on="0"/>
        <pt x="181" y="55" on="0"/>
        <pt x="291" y="55" on="0"/>
        <pt x="384" y="153" on="0"/>
      </contour>
      <contour>
        <pt x="341" y="638" on="1"/>
        <pt x="301" y="686" on="0"/>
        <pt x="270" y="686" on="0"/>
        <pt x="230" y="638" on="1"/>
        <pt x="227" y="636" on="0"/>
        <pt x="192" y="588" on="0"/>
        <pt x="159" y="588" on="0"/>
        <pt x="149" y="596" on="1"/>
        <pt x="140" y="605" on="0"/>
        <pt x="140" y="616" on="1"/>
        <pt x="140" y="632" on="0"/>
        <pt x="157" y="649" on="0"/>
        <pt x="170" y="660" on="1"/>
        <pt x="207" y="691" on="0"/>
        <pt x="226" y="719" on="1"/>
        <pt x="244" y="742" on="0"/>
        <pt x="255" y="751" on="1"/>
        <pt x="267" y="760" on="0"/>
        <pt x="303" y="760" on="0"/>
        <pt x="326" y="743" on="0"/>
        <pt x="365" y="694" on="0"/>
        <pt x="385" y="674" on="0"/>
        <pt x="399" y="662" on="1"/>
        <pt x="423" y="643" on="0"/>
        <pt x="427" y="633" on="1"/>
        <pt x="431" y="627" on="0"/>
        <pt x="431" y="613" on="0"/>
        <pt x="428" y="605" on="1"/>
        <pt x="421" y="588" on="0"/>
        <pt x="400" y="588" on="1"/>
        <pt x="398" y="588" on="0"/>
        <pt x="388" y="588" on="0"/>
        <pt x="366" y="606" on="0"/>
        <pt x="343" y="637" on="0"/>
      </contour>
    </TTGlyph>
    <TTGlyph name="acute" xMin="70" yMin="592" xMax="215" yMax="760">
      <contour>
        <pt x="215" y="722" on="1"/>
        <pt x="215" y="679" on="0"/>
        <pt x="123" y="592" on="0"/>
        <pt x="70" y="592" on="0"/>
        <pt x="70" y="614" on="1"/>
        <pt x="70" y="627" on="0"/>
        <pt x="92" y="650" on="0"/>
        <pt x="109" y="671" on="1"/>
        <pt x="117" y="683" on="0"/>
        <pt x="139" y="734" on="0"/>
        <pt x="162" y="760" on="0"/>
        <pt x="196" y="760" on="0"/>
        <pt x="215" y="738" on="0"/>
      </contour>
    </TTGlyph>
    <TTGlyph name="adieresis" xMin="48" yMin="-10" xMax="534" yMax="725">
      <contour>
        <pt x="467" y="242" on="1"/>
        <pt x="467" y="169" on="0"/>
        <pt x="488" y="72" on="0"/>
        <pt x="504" y="66" on="1"/>
        <pt x="510" y="63" on="0"/>
        <pt x="527" y="61" on="0"/>
        <pt x="534" y="57" on="0"/>
        <pt x="534" y="51" on="1"/>
        <pt x="534" y="23" on="0"/>
        <pt x="504" y="-10" on="0"/>
        <pt x="447" y="-10" on="0"/>
        <pt x="415" y="63" on="0"/>
        <pt x="415" y="122" on="1"/>
        <pt x="388" y="64" on="0"/>
        <pt x="292" y="-10" on="0"/>
        <pt x="171" y="-10" on="0"/>
        <pt x="128" y="30" on="1"/>
        <pt x="48" y="104" on="0"/>
        <pt x="48" y="239" on="1"/>
        <pt x="48" y="348" on="0"/>
        <pt x="174" y="510" on="0"/>
        <pt x="273" y="510" on="1"/>
        <pt x="348" y="510" on="0"/>
        <pt x="403" y="459" on="1"/>
        <pt x="403" y="510" on="0"/>
        <pt x="441" y="510" on="1"/>
        <pt x="487" y="510" on="0"/>
        <pt x="487" y="373" on="0"/>
      </contour>
      <contour>
        <pt x="409" y="233" on="1"/>
        <pt x="404" y="387" on="1"/>
        <pt x="345" y="445" on="0"/>
        <pt x="213" y="445" on="0"/>
        <pt x="119" y="327" on="0"/>
        <pt x="119" y="160" on="0"/>
        <pt x="181" y="55" on="0"/>
        <pt x="291" y="55" on="0"/>
        <pt x="384" y="153" on="0"/>
      </contour>
      <contour>
        <pt x="210" y="725" on="1"/>
        <pt x="251" y="725" on="0"/>
        <pt x="251" y="677" on="1"/>
        <pt x="251" y="655" on="0"/>
        <pt x="222" y="616" on="0"/>
        <pt x="202" y="616" on="1"/>
        <pt x="160" y="616" on="0"/>
        <pt x="160" y="667" on="1"/>
        <pt x="160" y="691" on="0"/>
        <pt x="189" y="725" on="0"/>
      </contour>
      <contour>
        <pt x="370" y="725" on="1"/>
        <pt x="411" y="725" on="0"/>
        <pt x="411" y="677" on="1"/>
        <pt x="411" y="655" on="0"/>
        <pt x="382" y="616" on="0"/>
        <pt x="362" y="616" on="1"/>
        <pt x="320" y="616" on="0"/>
        <pt x="320" y="667" on="1"/>
        <pt x="320" y="691" on="0"/>
        <pt x="349" y="725" on="0"/>
      </contour>
    </TTGlyph>
    <TTGlyph name="ae" xMin="39" yMin="-15" xMax="788" yMax="515">
      <contour>
        <pt x="368" y="227" on="1"/>
        <pt x="300" y="251" on="0"/>
        <pt x="178" y="251" on="0"/>
        <pt x="110" y="192" on="0"/>
        <pt x="110" y="107" on="0"/>
        <pt x="176" y="51" on="0"/>
        <pt x="280" y="51" on="0"/>
        <pt x="368" y="144" on="0"/>
      </contour>
      <contour>
        <pt x="445" y="217" on="1"/>
        <pt x="451" y="148" on="0"/>
        <pt x="543" y="50" on="0"/>
        <pt x="668" y="50" on="0"/>
        <pt x="748" y="111" on="0"/>
        <pt x="773" y="111" on="0"/>
        <pt x="788" y="96" on="0"/>
        <pt x="788" y="85" on="1"/>
        <pt x="788" y="57" on="0"/>
        <pt x="673" y="-15" on="0"/>
        <pt x="606" y="-15" on="1"/>
        <pt x="472" y="-15" on="0"/>
        <pt x="408" y="106" on="1"/>
        <pt x="347" y="-15" on="0"/>
        <pt x="217" y="-15" on="1"/>
        <pt x="142" y="-15" on="0"/>
        <pt x="90" y="31" on="1"/>
        <pt x="39" y="78" on="0"/>
        <pt x="39" y="220" on="0"/>
        <pt x="91" y="266" on="1"/>
        <pt x="147" y="316" on="0"/>
        <pt x="294" y="316" on="0"/>
        <pt x="370" y="291" on="1"/>
        <pt x="370" y="372" on="0"/>
        <pt x="300" y="449" on="0"/>
        <pt x="185" y="449" on="0"/>
        <pt x="122" y="390" on="0"/>
        <pt x="105" y="390" on="1"/>
        <pt x="71" y="390" on="0"/>
        <pt x="71" y="452" on="0"/>
        <pt x="172" y="515" on="0"/>
        <pt x="302" y="515" on="0"/>
        <pt x="396" y="456" on="0"/>
        <pt x="421" y="404" on="1"/>
        <pt x="493" y="515" on="0"/>
        <pt x="615" y="515" on="1"/>
        <pt x="688" y="515" on="0"/>
        <pt x="788" y="425" on="0"/>
        <pt x="788" y="280" on="0"/>
        <pt x="664" y="206" on="0"/>
        <pt x="503" y="206" on="0"/>
      </contour>
      <contour>
        <pt x="615" y="450" on="1"/>
        <pt x="549" y="450" on="0"/>
        <pt x="460" y="350" on="0"/>
        <pt x="446" y="282" on="1"/>
        <pt x="497" y="269" on="0"/>
        <pt x="635" y="269" on="0"/>
        <pt x="717" y="315" on="0"/>
        <pt x="717" y="395" on="0"/>
        <pt x="662" y="450" on="0"/>
      </contour>
    </TTGlyph>
    <TTGlyph name="agrave" xMin="48" yMin="-10" xMax="534" yMax="760">
      <component glyphName="a" x="0" y="0" flags="0x1004"/>
      <component glyphName="grave" x="123" y="0" flags="0x1004"/>
    </TTGlyph>
    <TTGlyph name="ampersand" xMin="47" yMin="-15" xMax="743" yMax="745">
      <contour>
        <pt x="410" y="354" on="1"/>
        <pt x="535" y="349" on="1"/>
        <pt x="587" y="349" on="0"/>
        <pt x="675" y="401" on="0"/>
        <pt x="675" y="450" on="1"/>
        <pt x="675" y="525" on="0"/>
        <pt x="599" y="550" on="1"/>
        <pt x="569" y="560" on="0"/>
        <pt x="545" y="578" on="0"/>
        <pt x="545" y="593" on="1"/>
        <pt x="545" y="626" on="0"/>
        <pt x="583" y="626" on="1"/>
        <pt x="638" y="626" on="0"/>
        <pt x="743" y="517" on="0"/>
        <pt x="743" y="394" on="0"/>
        <pt x="706" y="356" on="1"/>
        <pt x="642" y="286" on="0"/>
        <pt x="508" y="286" on="1"/>
        <pt x="535" y="241" on="0"/>
        <pt x="535" y="113" on="0"/>
        <pt x="408" y="-15" on="0"/>
        <pt x="188" y="-15" on="0"/>
        <pt x="47" y="126" on="0"/>
        <pt x="47" y="232" on="1"/>
        <pt x="47" y="292" on="0"/>
        <pt x="116" y="405" on="0"/>
        <pt x="174" y="444" on="1"/>
        <pt x="141" y="473" on="0"/>
        <pt x="98" y="551" on="0"/>
        <pt x="98" y="590" on="1"/>
        <pt x="98" y="654" on="0"/>
        <pt x="190" y="745" on="0"/>
        <pt x="270" y="745" on="1"/>
        <pt x="322" y="745" on="0"/>
        <pt x="410" y="699" on="0"/>
        <pt x="410" y="672" on="1"/>
        <pt x="410" y="657" on="0"/>
        <pt x="392" y="639" on="0"/>
        <pt x="368" y="639" on="0"/>
        <pt x="307" y="680" on="0"/>
        <pt x="224" y="680" on="0"/>
        <pt x="168" y="632" on="0"/>
        <pt x="168" y="560" on="0"/>
        <pt x="202" y="495" on="0"/>
        <pt x="228" y="477" on="1"/>
        <pt x="245" y="484" on="0"/>
        <pt x="282" y="484" on="0"/>
        <pt x="300" y="479" on="1"/>
        <pt x="340" y="469" on="0"/>
        <pt x="340" y="404" on="0"/>
        <pt x="298" y="394" on="1"/>
        <pt x="283" y="390" on="0"/>
        <pt x="243" y="390" on="0"/>
        <pt x="222" y="401" on="1"/>
        <pt x="119" y="350" on="0"/>
        <pt x="119" y="235" on="1"/>
        <pt x="119" y="158" on="0"/>
        <pt x="169" y="105" on="1"/>
        <pt x="220" y="53" on="0"/>
        <pt x="372" y="53" on="0"/>
        <pt x="465" y="137" on="0"/>
        <pt x="465" y="194" on="1"/>
        <pt x="465" y="281" on="0"/>
        <pt x="415" y="281" on="1"/>
        <pt x="407" y="281" on="0"/>
        <pt x="357" y="263" on="0"/>
        <pt x="332" y="263" on="0"/>
        <pt x="313" y="284" on="0"/>
        <pt x="313" y="323" on="0"/>
        <pt x="369" y="354" on="0"/>
      </contour>
    </TTGlyph>
    <TTGlyph name="approxequal" xMin="78" yMin="117" xMax="516" yMax="395">
      <contour>
        <pt x="78" y="304" on="1"/>
        <pt x="78" y="337" on="0"/>
        <pt x="121" y="365" on="1"/>
        <pt x="164" y="395" on="0"/>
        <pt x="264" y="395" on="0"/>
        <pt x="375" y="336" on="0"/>
        <pt x="422" y="336" on="0"/>
        <pt x="446" y="354" on="0"/>
        <pt x="458" y="364" on="1"/>
        <pt x="481" y="386" on="0"/>
        <pt x="490" y="386" on="1"/>
        <pt x="513" y="386" on="0"/>
        <pt x="513" y="334" on="0"/>
        <pt x="441" y="274" on="0"/>
        <pt x="364" y="274" on="0"/>
        <pt x="257" y="332" on="0"/>
        <pt x="198" y="332" on="0"/>
        <pt x="168" y="303" on="1"/>
        <pt x="136" y="271" on="0"/>
        <pt x="94" y="271" on="0"/>
        <pt x="78" y="291" on="0"/>
      </contour>
      <contour>
        <pt x="81" y="150" on="1"/>
        <pt x="81" y="183" on="0"/>
        <pt x="124" y="211" on="1"/>
        <pt x="168" y="241" on="0"/>
        <pt x="266" y="241" on="0"/>
        <pt x="378" y="182" on="0"/>
        <pt x="424" y="182" on="0"/>
        <pt x="449" y="200" on="0"/>
        <pt x="460" y="210" on="1"/>
        <pt x="484" y="232" on="0"/>
        <pt x="493" y="232" on="1"/>
        <pt x="516" y="232" on="0"/>
        <pt x="516" y="180" on="0"/>
        <pt x="480" y="150" on="1"/>
        <pt x="444" y="120" on="0"/>
        <pt x="367" y="120" on="0"/>
        <pt x="260" y="178" on="0"/>
        <pt x="201" y="178" on="0"/>
        <pt x="172" y="149" on="1"/>
        <pt x="139" y="117" on="0"/>
        <pt x="97" y="117" on="0"/>
        <pt x="81" y="137" on="0"/>
      </contour>
    </TTGlyph>
    <TTGlyph name="aring" xMin="48" yMin="-10" xMax="534" yMax="765">
      <component glyphName="a" x="0" y="0" flags="0x1004"/>
      <component glyphName="ring" x="190" y="0" flags="0x1004"/>
    </TTGlyph>
    <TTGlyph name="arrowdown" xMin="13" yMin="-10" xMax="561" yMax="755">
      <contour>
        <pt x="251" y="619" on="1"/>
        <pt x="249" y="711" on="1"/>
        <pt x="249" y="727" on="0"/>
        <pt x="270" y="755" on="0"/>
        <pt x="304" y="755" on="0"/>
        <pt x="325" y="726" on="0"/>
        <pt x="325" y="681" on="0"/>
        <pt x="320" y="555" on="0"/>
        <pt x="320" y="375" on="1"/>
        <pt x="320" y="92" on="1"/>
        <pt x="430" y="222" on="1"/>
        <pt x="481" y="285" on="0"/>
        <pt x="511" y="315" on="0"/>
        <pt x="550" y="315" on="0"/>
        <pt x="558" y="294" on="1"/>
        <pt x="561" y="288" on="0"/>
        <pt x="561" y="264" on="0"/>
        <pt x="545" y="243" on="1"/>
        <pt x="500" y="193" on="0"/>
        <pt x="400" y="93" on="0"/>
        <pt x="367" y="56" on="1"/>
        <pt x="326" y="10" on="1"/>
        <pt x="306" y="-10" on="0"/>
        <pt x="287" y="-10" on="1"/>
        <pt x="248" y="10" on="1"/>
        <pt x="206" y="56" on="1"/>
        <pt x="181" y="84" on="0"/>
        <pt x="55" y="213" on="0"/>
        <pt x="29" y="243" on="1"/>
        <pt x="13" y="264" on="0"/>
        <pt x="13" y="276" on="1"/>
        <pt x="13" y="315" on="0"/>
        <pt x="48" y="315" on="1"/>
        <pt x="65" y="315" on="0"/>
        <pt x="84" y="294" on="1"/>
        <pt x="91" y="287" on="0"/>
        <pt x="105" y="270" on="1"/>
        <pt x="254" y="92" on="1"/>
        <pt x="254" y="375" on="1"/>
        <pt x="254" y="542" on="0"/>
      </contour>
    </TTGlyph>
    <TTGlyph name="arrowleft" xMin="20" yMin="72" xMax="785" yMax="620">
      <contour>
        <pt x="122" y="379" on="1"/>
        <pt x="405" y="379" on="1"/>
        <pt x="734" y="384" on="1"/>
        <pt x="756" y="384" on="0"/>
        <pt x="785" y="363" on="0"/>
        <pt x="785" y="329" on="0"/>
        <pt x="756" y="308" on="0"/>
        <pt x="734" y="308" on="1"/>
        <pt x="405" y="313" on="1"/>
        <pt x="122" y="313" on="1"/>
        <pt x="203" y="245" on="1"/>
        <pt x="237" y="216" on="0"/>
        <pt x="318" y="149" on="0"/>
        <pt x="345" y="122" on="0"/>
        <pt x="345" y="83" on="0"/>
        <pt x="324" y="74" on="1"/>
        <pt x="318" y="72" on="0"/>
        <pt x="294" y="72" on="0"/>
        <pt x="273" y="88" on="1"/>
        <pt x="223" y="133" on="0"/>
        <pt x="133" y="223" on="0"/>
        <pt x="86" y="265" on="1"/>
        <pt x="40" y="307" on="1"/>
        <pt x="20" y="326" on="0"/>
        <pt x="20" y="366" on="0"/>
        <pt x="40" y="385" on="1"/>
        <pt x="86" y="426" on="1"/>
        <pt x="123" y="459" on="0"/>
        <pt x="223" y="559" on="0"/>
        <pt x="273" y="604" on="1"/>
        <pt x="294" y="620" on="0"/>
        <pt x="306" y="620" on="1"/>
        <pt x="345" y="620" on="0"/>
        <pt x="345" y="585" on="1"/>
        <pt x="345" y="568" on="0"/>
        <pt x="324" y="548" on="1"/>
        <pt x="317" y="542" on="0"/>
        <pt x="300" y="528" on="1"/>
      </contour>
    </TTGlyph>
    <TTGlyph name="arrowright" xMin="29" yMin="72" xMax="794" yMax="620">
      <contour>
        <pt x="80" y="384" on="1"/>
        <pt x="409" y="379" on="1"/>
        <pt x="692" y="379" on="1"/>
        <pt x="611" y="447" on="1"/>
        <pt x="577" y="476" on="0"/>
        <pt x="496" y="543" on="0"/>
        <pt x="469" y="570" on="0"/>
        <pt x="469" y="609" on="0"/>
        <pt x="490" y="618" on="1"/>
        <pt x="496" y="620" on="0"/>
        <pt x="520" y="620" on="0"/>
        <pt x="541" y="604" on="1"/>
        <pt x="591" y="559" on="0"/>
        <pt x="691" y="459" on="0"/>
        <pt x="728" y="426" on="1"/>
        <pt x="774" y="385" on="1"/>
        <pt x="794" y="366" on="0"/>
        <pt x="794" y="326" on="0"/>
        <pt x="774" y="307" on="1"/>
        <pt x="728" y="265" on="1"/>
        <pt x="700" y="240" on="0"/>
        <pt x="571" y="114" on="0"/>
        <pt x="541" y="88" on="1"/>
        <pt x="520" y="72" on="0"/>
        <pt x="508" y="72" on="1"/>
        <pt x="469" y="72" on="0"/>
        <pt x="469" y="107" on="1"/>
        <pt x="469" y="124" on="0"/>
        <pt x="490" y="144" on="1"/>
        <pt x="497" y="150" on="0"/>
        <pt x="514" y="164" on="1"/>
        <pt x="692" y="313" on="1"/>
        <pt x="409" y="313" on="1"/>
        <pt x="80" y="308" on="1"/>
        <pt x="58" y="308" on="0"/>
        <pt x="29" y="329" on="0"/>
        <pt x="29" y="363" on="0"/>
        <pt x="58" y="384" on="0"/>
      </contour>
    </TTGlyph>
    <TTGlyph name="arrowup" xMin="13" yMin="-10" xMax="561" yMax="755">
      <contour>
        <pt x="259" y="4" on="1"/>
        <pt x="249" y="18" on="0"/>
        <pt x="249" y="64" on="0"/>
        <pt x="254" y="190" on="0"/>
        <pt x="254" y="370" on="1"/>
        <pt x="254" y="653" on="1"/>
        <pt x="144" y="522" on="1"/>
        <pt x="91" y="458" on="0"/>
        <pt x="63" y="430" on="0"/>
        <pt x="24" y="430" on="0"/>
        <pt x="16" y="452" on="1"/>
        <pt x="13" y="458" on="0"/>
        <pt x="13" y="482" on="0"/>
        <pt x="29" y="502" on="1"/>
        <pt x="74" y="552" on="0"/>
        <pt x="164" y="642" on="0"/>
        <pt x="206" y="689" on="1"/>
        <pt x="248" y="735" on="1"/>
        <pt x="268" y="754" on="0"/>
        <pt x="287" y="754" on="1"/>
        <pt x="326" y="735" on="1"/>
        <pt x="367" y="689" on="1"/>
        <pt x="400" y="652" on="0"/>
        <pt x="500" y="552" on="0"/>
        <pt x="545" y="502" on="1"/>
        <pt x="561" y="482" on="0"/>
        <pt x="561" y="470" on="1"/>
        <pt x="561" y="430" on="0"/>
        <pt x="526" y="430" on="1"/>
        <pt x="509" y="430" on="0"/>
        <pt x="490" y="451" on="1"/>
        <pt x="483" y="458" on="0"/>
        <pt x="469" y="475" on="1"/>
        <pt x="320" y="653" on="1"/>
        <pt x="320" y="370" on="1"/>
        <pt x="320" y="227" on="0"/>
        <pt x="325" y="48" on="0"/>
        <pt x="325" y="20" on="0"/>
        <pt x="304" y="-10" on="0"/>
        <pt x="270" y="-10" on="0"/>
      </contour>
    </TTGlyph>
    <TTGlyph name="asciicircum" xMin="42" yMin="367" xMax="481" yMax="760">
      <contour>
        <pt x="481" y="395" on="1"/>
        <pt x="483" y="387" on="0"/>
        <pt x="463" y="368" on="0"/>
        <pt x="428" y="368" on="0"/>
        <pt x="415" y="392" on="1"/>
        <pt x="415" y="394" on="0"/>
        <pt x="377" y="465" on="1"/>
        <pt x="271" y="672" on="0"/>
        <pt x="260" y="672" on="1"/>
        <pt x="253" y="672" on="0"/>
        <pt x="105" y="395" on="0"/>
        <pt x="105" y="392" on="1"/>
        <pt x="92" y="368" on="0"/>
        <pt x="75" y="368" on="1"/>
        <pt x="42" y="368" on="0"/>
        <pt x="42" y="397" on="1"/>
        <pt x="42" y="416" on="0"/>
        <pt x="96" y="506" on="1"/>
        <pt x="141" y="582" on="1"/>
        <pt x="156" y="608" on="0"/>
        <pt x="174" y="642" on="1"/>
        <pt x="225" y="737" on="1"/>
        <pt x="238" y="760" on="0"/>
        <pt x="285" y="760" on="0"/>
        <pt x="298" y="738" on="1"/>
        <pt x="328" y="676" on="0"/>
        <pt x="471" y="430" on="0"/>
        <pt x="481" y="404" on="0"/>
      </contour>
    </TTGlyph>
    <TTGlyph name="asciitilde" xMin="59" yMin="205" xMax="495" yMax="329">
      <contour>
        <pt x="59" y="238" on="1"/>
        <pt x="59" y="271" on="0"/>
        <pt x="102" y="299" on="1"/>
        <pt x="146" y="329" on="0"/>
        <pt x="244" y="329" on="0"/>
        <pt x="356" y="270" on="0"/>
        <pt x="402" y="270" on="0"/>
        <pt x="427" y="288" on="0"/>
        <pt x="438" y="298" on="1"/>
        <pt x="462" y="320" on="0"/>
        <pt x="471" y="320" on="1"/>
        <pt x="494" y="320" on="0"/>
        <pt x="494" y="268" on="0"/>
        <pt x="422" y="208" on="0"/>
        <pt x="345" y="208" on="0"/>
        <pt x="238" y="266" on="0"/>
        <pt x="179" y="266" on="0"/>
        <pt x="150" y="237" on="1"/>
        <pt x="117" y="205" on="0"/>
        <pt x="75" y="205" on="0"/>
        <pt x="59" y="225" on="0"/>
      </contour>
    </TTGlyph>
    <TTGlyph name="asterisk" xMin="63" yMin="422" xMax="361" yMax="761">
      <contour>
        <pt x="234" y="555" on="1"/>
        <pt x="245" y="465" on="1"/>
        <pt x="245" y="438" on="0"/>
        <pt x="224" y="427" on="1"/>
        <pt x="217" y="423" on="0"/>
        <pt x="198" y="423" on="0"/>
        <pt x="179" y="447" on="0"/>
        <pt x="179" y="474" on="0"/>
        <pt x="190" y="548" on="0"/>
        <pt x="190" y="555" on="1"/>
        <pt x="178" y="547" on="0"/>
        <pt x="123" y="503" on="0"/>
        <pt x="104" y="492" on="0"/>
        <pt x="82" y="492" on="0"/>
        <pt x="72" y="501" on="1"/>
        <pt x="63" y="510" on="0"/>
        <pt x="63" y="523" on="1"/>
        <pt x="63" y="546" on="0"/>
        <pt x="88" y="557" on="1"/>
        <pt x="137" y="573" on="0"/>
        <pt x="170" y="591" on="1"/>
        <pt x="137" y="609" on="0"/>
        <pt x="88" y="625" on="1"/>
        <pt x="63" y="635" on="0"/>
        <pt x="63" y="659" on="1"/>
        <pt x="63" y="671" on="0"/>
        <pt x="81" y="689" on="0"/>
        <pt x="106" y="689" on="0"/>
        <pt x="124" y="678" on="0"/>
        <pt x="179" y="634" on="0"/>
        <pt x="190" y="627" on="1"/>
        <pt x="186" y="658" on="0"/>
        <pt x="179" y="719" on="1"/>
        <pt x="179" y="746" on="0"/>
        <pt x="200" y="757" on="1"/>
        <pt x="207" y="761" on="0"/>
        <pt x="226" y="761" on="0"/>
        <pt x="245" y="738" on="0"/>
        <pt x="245" y="715" on="0"/>
        <pt x="235" y="648" on="0"/>
        <pt x="234" y="627" on="1"/>
        <pt x="245" y="634" on="0"/>
        <pt x="300" y="678" on="0"/>
        <pt x="320" y="689" on="0"/>
        <pt x="342" y="689" on="0"/>
        <pt x="361" y="672" on="0"/>
        <pt x="361" y="659" on="1"/>
        <pt x="361" y="636" on="0"/>
        <pt x="335" y="625" on="1"/>
        <pt x="273" y="601" on="0"/>
        <pt x="254" y="591" on="1"/>
        <pt x="273" y="581" on="0"/>
        <pt x="335" y="557" on="1"/>
        <pt x="361" y="548" on="0"/>
        <pt x="361" y="523" on="1"/>
        <pt x="361" y="511" on="0"/>
        <pt x="342" y="493" on="0"/>
        <pt x="318" y="493" on="0"/>
        <pt x="301" y="503" on="0"/>
        <pt x="246" y="547" on="0"/>
      </contour>
    </TTGlyph>
    <TTGlyph name="at" xMin="58" yMin="-230" xMax="954" yMax="711">
      <contour>
        <pt x="710" y="413" on="1"/>
        <pt x="710" y="401" on="0"/>
        <pt x="690" y="243" on="1"/>
        <pt x="690" y="199" on="1"/>
        <pt x="690" y="58" on="0"/>
        <pt x="766" y="58" on="1"/>
        <pt x="810" y="58" on="0"/>
        <pt x="879" y="161" on="0"/>
        <pt x="879" y="387" on="0"/>
        <pt x="826" y="473" on="1"/>
        <pt x="775" y="558" on="0"/>
        <pt x="609" y="644" on="0"/>
        <pt x="507" y="644" on="1"/>
        <pt x="353" y="644" on="0"/>
        <pt x="134" y="395" on="0"/>
        <pt x="134" y="50" on="0"/>
        <pt x="324" y="-164" on="0"/>
        <pt x="454" y="-164" on="1"/>
        <pt x="559" y="-164" on="0"/>
        <pt x="688" y="-85" on="0"/>
        <pt x="713" y="-85" on="0"/>
        <pt x="718" y="-93" on="1"/>
        <pt x="726" y="-102" on="0"/>
        <pt x="726" y="-128" on="0"/>
        <pt x="705" y="-147" on="1"/>
        <pt x="676" y="-178" on="0"/>
        <pt x="533" y="-230" on="0"/>
        <pt x="449" y="-230" on="1"/>
        <pt x="283" y="-230" on="0"/>
        <pt x="59" y="20" on="0"/>
        <pt x="59" y="218" on="1"/>
        <pt x="59" y="224" on="0"/>
        <pt x="59" y="231" on="1"/>
        <pt x="59" y="354" on="0"/>
        <pt x="174" y="577" on="0"/>
        <pt x="381" y="710" on="0"/>
        <pt x="501" y="710" on="1"/>
        <pt x="504" y="710" on="0"/>
        <pt x="508" y="710" on="1"/>
        <pt x="701" y="710" on="0"/>
        <pt x="954" y="472" on="0"/>
        <pt x="954" y="267" on="1"/>
        <pt x="954" y="148" on="0"/>
        <pt x="845" y="-9" on="0"/>
        <pt x="767" y="-9" on="1"/>
        <pt x="656" y="-9" on="0"/>
        <pt x="636" y="117" on="1"/>
        <pt x="612" y="64" on="0"/>
        <pt x="524" y="-9" on="0"/>
        <pt x="400" y="-9" on="0"/>
        <pt x="359" y="31" on="1"/>
        <pt x="285" y="102" on="0"/>
        <pt x="285" y="226" on="1"/>
        <pt x="285" y="329" on="0"/>
        <pt x="408" y="482" on="0"/>
        <pt x="505" y="482" on="1"/>
        <pt x="566" y="482" on="0"/>
        <pt x="629" y="437" on="1"/>
        <pt x="636" y="482" on="0"/>
        <pt x="671" y="482" on="1"/>
        <pt x="710" y="482" on="0"/>
      </contour>
      <contour>
        <pt x="630" y="216" on="1"/>
        <pt x="630" y="365" on="1"/>
        <pt x="578" y="416" on="0"/>
        <pt x="445" y="416" on="0"/>
        <pt x="355" y="310" on="0"/>
        <pt x="355" y="159" on="0"/>
        <pt x="412" y="54" on="0"/>
        <pt x="517" y="54" on="0"/>
        <pt x="604" y="147" on="0"/>
      </contour>
    </TTGlyph>
    <TTGlyph name="atilde" xMin="48" yMin="-10" xMax="534" yMax="715">
      <contour>
        <pt x="467" y="242" on="1"/>
        <pt x="467" y="169" on="0"/>
        <pt x="488" y="72" on="0"/>
        <pt x="504" y="66" on="1"/>
        <pt x="510" y="63" on="0"/>
        <pt x="527" y="61" on="0"/>
        <pt x="534" y="57" on="0"/>
        <pt x="534" y="51" on="1"/>
        <pt x="534" y="23" on="0"/>
        <pt x="504" y="-10" on="0"/>
        <pt x="447" y="-10" on="0"/>
        <pt x="415" y="63" on="0"/>
        <pt x="415" y="122" on="1"/>
        <pt x="388" y="64" on="0"/>
        <pt x="292" y="-10" on="0"/>
        <pt x="171" y="-10" on="0"/>
        <pt x="128" y="30" on="1"/>
        <pt x="48" y="104" on="0"/>
        <pt x="48" y="239" on="1"/>
        <pt x="48" y="348" on="0"/>
        <pt x="174" y="510" on="0"/>
        <pt x="273" y="510" on="1"/>
        <pt x="348" y="510" on="0"/>
        <pt x="403" y="459" on="1"/>
        <pt x="403" y="510" on="0"/>
        <pt x="441" y="510" on="1"/>
        <pt x="487" y="510" on="0"/>
        <pt x="487" y="373" on="0"/>
      </contour>
      <contour>
        <pt x="409" y="233" on="1"/>
        <pt x="404" y="387" on="1"/>
        <pt x="345" y="445" on="0"/>
        <pt x="213" y="445" on="0"/>
        <pt x="119" y="327" on="0"/>
        <pt x="119" y="160" on="0"/>
        <pt x="181" y="55" on="0"/>
        <pt x="291" y="55" on="0"/>
        <pt x="384" y="153" on="0"/>
      </contour>
      <contour>
        <pt x="484" y="682" on="1"/>
        <pt x="484" y="648" on="0"/>
        <pt x="433" y="597" on="0"/>
        <pt x="364" y="597" on="0"/>
        <pt x="269" y="652" on="0"/>
        <pt x="235" y="652" on="0"/>
        <pt x="209" y="634" on="0"/>
        <pt x="202" y="625" on="0"/>
        <pt x="188" y="606" on="1"/>
        <pt x="175" y="591" on="0"/>
        <pt x="155" y="591" on="0"/>
        <pt x="148" y="594" on="1"/>
        <pt x="127" y="604" on="0"/>
        <pt x="127" y="662" on="0"/>
        <pt x="190" y="715" on="0"/>
        <pt x="275" y="715" on="0"/>
        <pt x="377" y="659" on="0"/>
        <pt x="421" y="659" on="0"/>
        <pt x="454" y="710" on="0"/>
        <pt x="472" y="710" on="0"/>
        <pt x="484" y="693" on="0"/>
      </contour>
    </TTGlyph>
    <TTGlyph name="b" xMin="66" yMin="-10" xMax="505" yMax="761">
      <contour>
        <pt x="505" y="261" on="1"/>
        <pt x="505" y="152" on="0"/>
        <pt x="379" y="-10" on="0"/>
        <pt x="280" y="-10" on="1"/>
        <pt x="206" y="-10" on="0"/>
        <pt x="150" y="41" on="1"/>
        <pt x="150" y="-10" on="0"/>
        <pt x="112" y="-10" on="1"/>
        <pt x="66" y="-10" on="0"/>
        <pt x="66" y="127" on="0"/>
        <pt x="86" y="258" on="1"/>
        <pt x="86" y="326" on="0"/>
        <pt x="68" y="703" on="0"/>
        <pt x="68" y="733" on="0"/>
        <pt x="89" y="761" on="0"/>
        <pt x="112" y="761" on="0"/>
        <pt x="122" y="756" on="1"/>
        <pt x="146" y="745" on="0"/>
        <pt x="146" y="717" on="1"/>
        <pt x="146" y="713" on="0"/>
        <pt x="146" y="710" on="1"/>
        <pt x="146" y="394" on="1"/>
        <pt x="173" y="446" on="0"/>
        <pt x="265" y="510" on="0"/>
        <pt x="381" y="510" on="0"/>
        <pt x="424" y="470" on="1"/>
        <pt x="505" y="396" on="0"/>
      </contour>
      <contour>
        <pt x="144" y="267" on="1"/>
        <pt x="149" y="113" on="1"/>
        <pt x="208" y="55" on="0"/>
        <pt x="340" y="55" on="0"/>
        <pt x="434" y="173" on="0"/>
        <pt x="434" y="340" on="0"/>
        <pt x="372" y="445" on="0"/>
        <pt x="262" y="445" on="0"/>
        <pt x="169" y="347" on="0"/>
      </contour>
    </TTGlyph>
    <TTGlyph name="backslash" xMin="57" yMin="-152" xMax="307" yMax="760">
      <contour>
        <pt x="307" y="-112" on="1"/>
        <pt x="307" y="-152" on="0"/>
        <pt x="271" y="-152" on="1"/>
        <pt x="238" y="-152" on="0"/>
        <pt x="231" y="-110" on="1"/>
        <pt x="218" y="-41" on="1"/>
        <pt x="141" y="376" on="0"/>
        <pt x="69" y="651" on="1"/>
        <pt x="57" y="704" on="0"/>
        <pt x="57" y="718" on="1"/>
        <pt x="57" y="760" on="0"/>
        <pt x="93" y="760" on="1"/>
        <pt x="124" y="760" on="0"/>
        <pt x="133" y="718" on="1"/>
        <pt x="146" y="649" on="1"/>
        <pt x="196" y="378" on="0"/>
        <pt x="239" y="195" on="1"/>
        <pt x="295" y="-44" on="1"/>
        <pt x="307" y="-97" on="0"/>
      </contour>
    </TTGlyph>
    <TTGlyph name="bar" xMin="75" yMin="-270" xMax="145" yMax="800">
      <contour>
        <pt x="144" y="750" on="1"/>
        <pt x="140" y="255" on="1"/>
        <pt x="140" y="-19" on="0"/>
        <pt x="142" y="-96" on="1"/>
        <pt x="145" y="-212" on="0"/>
        <pt x="145" y="-220" on="1"/>
        <pt x="145" y="-270" on="0"/>
        <pt x="75" y="-270" on="0"/>
        <pt x="75" y="-220" on="1"/>
        <pt x="75" y="-184" on="0"/>
        <pt x="80" y="2" on="0"/>
        <pt x="80" y="255" on="1"/>
        <pt x="76" y="750" on="1"/>
        <pt x="76" y="800" on="0"/>
        <pt x="144" y="800" on="0"/>
      </contour>
    </TTGlyph>
    <TTGlyph name="braceleft" xMin="14" yMin="-230" xMax="266" yMax="760">
      <contour>
        <pt x="228" y="-230" on="1"/>
        <pt x="183" y="-230" on="0"/>
        <pt x="120" y="-172" on="0"/>
        <pt x="120" y="-122" on="1"/>
        <pt x="120" y="-92" on="0"/>
        <pt x="135" y="41" on="0"/>
        <pt x="135" y="123" on="0"/>
        <pt x="119" y="208" on="0"/>
        <pt x="104" y="215" on="1"/>
        <pt x="87" y="206" on="0"/>
        <pt x="72" y="206" on="1"/>
        <pt x="14" y="206" on="0"/>
        <pt x="14" y="256" on="1"/>
        <pt x="12" y="281" on="0"/>
        <pt x="48" y="313" on="0"/>
        <pt x="90" y="313" on="0"/>
        <pt x="104" y="307" on="1"/>
        <pt x="115" y="321" on="0"/>
        <pt x="136" y="407" on="0"/>
        <pt x="136" y="487" on="0"/>
        <pt x="121" y="620" on="0"/>
        <pt x="121" y="650" on="1"/>
        <pt x="121" y="700" on="0"/>
        <pt x="184" y="760" on="0"/>
        <pt x="229" y="760" on="1"/>
        <pt x="253" y="760" on="0"/>
        <pt x="262" y="742" on="1"/>
        <pt x="266" y="734" on="0"/>
        <pt x="266" y="715" on="0"/>
        <pt x="260" y="706" on="1"/>
        <pt x="251" y="687" on="0"/>
        <pt x="229" y="687" on="1"/>
        <pt x="191" y="687" on="0"/>
        <pt x="191" y="640" on="1"/>
        <pt x="191" y="621" on="0"/>
        <pt x="206" y="495" on="0"/>
        <pt x="206" y="448" on="1"/>
        <pt x="206" y="333" on="0"/>
        <pt x="157" y="269" on="1"/>
        <pt x="177" y="241" on="0"/>
        <pt x="189" y="219" on="0"/>
        <pt x="205" y="137" on="0"/>
        <pt x="205" y="33" on="0"/>
        <pt x="190" y="-93" on="0"/>
        <pt x="190" y="-112" on="1"/>
        <pt x="190" y="-157" on="0"/>
        <pt x="228" y="-157" on="1"/>
        <pt x="250" y="-157" on="0"/>
        <pt x="260" y="-176" on="1"/>
        <pt x="264" y="-185" on="0"/>
        <pt x="264" y="-203" on="0"/>
        <pt x="260" y="-212" on="1"/>
        <pt x="251" y="-230" on="0"/>
      </contour>
    </TTGlyph>
    <TTGlyph name="braceright" xMin="41" yMin="-230" xMax="293" yMax="760">
      <contour>
        <pt x="203" y="215" on="1"/>
        <pt x="187" y="208" on="0"/>
        <pt x="172" y="128" on="0"/>
        <pt x="172" y="33" on="0"/>
        <pt x="187" y="-101" on="0"/>
        <pt x="187" y="-122" on="1"/>
        <pt x="187" y="-172" on="0"/>
        <pt x="124" y="-230" on="0"/>
        <pt x="79" y="-230" on="1"/>
        <pt x="56" y="-230" on="0"/>
        <pt x="47" y="-212" on="1"/>
        <pt x="43" y="-203" on="0"/>
        <pt x="43" y="-185" on="0"/>
        <pt x="48" y="-176" on="1"/>
        <pt x="57" y="-157" on="0"/>
        <pt x="79" y="-157" on="1"/>
        <pt x="117" y="-157" on="0"/>
        <pt x="117" y="-112" on="1"/>
        <pt x="117" y="-101" on="0"/>
        <pt x="102" y="25" on="0"/>
        <pt x="102" y="84" on="1"/>
        <pt x="102" y="191" on="0"/>
        <pt x="125" y="232" on="1"/>
        <pt x="130" y="241" on="0"/>
        <pt x="150" y="269" on="1"/>
        <pt x="101" y="333" on="0"/>
        <pt x="101" y="448" on="1"/>
        <pt x="101" y="503" on="0"/>
        <pt x="116" y="629" on="0"/>
        <pt x="116" y="640" on="1"/>
        <pt x="116" y="687" on="0"/>
        <pt x="78" y="687" on="1"/>
        <pt x="56" y="687" on="0"/>
        <pt x="46" y="706" on="1"/>
        <pt x="41" y="715" on="0"/>
        <pt x="41" y="734" on="0"/>
        <pt x="46" y="742" on="1"/>
        <pt x="54" y="760" on="0"/>
        <pt x="78" y="760" on="1"/>
        <pt x="123" y="760" on="0"/>
        <pt x="186" y="700" on="0"/>
        <pt x="186" y="650" on="1"/>
        <pt x="186" y="629" on="0"/>
        <pt x="171" y="495" on="0"/>
        <pt x="171" y="407" on="0"/>
        <pt x="192" y="321" on="0"/>
        <pt x="203" y="307" on="1"/>
        <pt x="215" y="313" on="0"/>
        <pt x="261" y="313" on="0"/>
        <pt x="293" y="281" on="0"/>
        <pt x="293" y="256" on="1"/>
        <pt x="293" y="220" on="0"/>
        <pt x="262" y="210" on="1"/>
        <pt x="250" y="206" on="0"/>
        <pt x="220" y="206" on="0"/>
      </contour>
    </TTGlyph>
    <TTGlyph name="bracketleft" xMin="76" yMin="-224" xMax="322" yMax="754">
      <contour>
        <pt x="150" y="-160" on="1"/>
        <pt x="194" y="-160" on="1"/>
        <pt x="281" y="-157" on="1"/>
        <pt x="284" y="-157" on="0"/>
        <pt x="286" y="-157" on="1"/>
        <pt x="307" y="-157" on="0"/>
        <pt x="322" y="-181" on="0"/>
        <pt x="322" y="-199" on="0"/>
        <pt x="307" y="-223" on="0"/>
        <pt x="286" y="-223" on="1"/>
        <pt x="284" y="-223" on="0"/>
        <pt x="281" y="-223" on="1"/>
        <pt x="194" y="-220" on="1"/>
        <pt x="117" y="-224" on="1"/>
        <pt x="99" y="-224" on="0"/>
        <pt x="76" y="-206" on="0"/>
        <pt x="76" y="-182" on="0"/>
        <pt x="82" y="114" on="0"/>
        <pt x="82" y="416" on="0"/>
        <pt x="76" y="712" on="0"/>
        <pt x="76" y="736" on="0"/>
        <pt x="99" y="754" on="0"/>
        <pt x="117" y="754" on="1"/>
        <pt x="194" y="750" on="1"/>
        <pt x="281" y="753" on="1"/>
        <pt x="284" y="753" on="0"/>
        <pt x="286" y="753" on="1"/>
        <pt x="307" y="753" on="0"/>
        <pt x="322" y="729" on="0"/>
        <pt x="322" y="711" on="0"/>
        <pt x="307" y="687" on="0"/>
        <pt x="286" y="687" on="1"/>
        <pt x="284" y="687" on="0"/>
        <pt x="281" y="687" on="1"/>
        <pt x="194" y="690" on="1"/>
        <pt x="150" y="690" on="1"/>
        <pt x="144" y="348" on="0"/>
        <pt x="144" y="182" on="0"/>
      </contour>
    </TTGlyph>
    <TTGlyph name="bracketright" xMin="26" yMin="-224" xMax="272" yMax="754">
      <contour>
        <pt x="154" y="750" on="1"/>
        <pt x="231" y="754" on="1"/>
        <pt x="249" y="754" on="0"/>
        <pt x="272" y="736" on="0"/>
        <pt x="272" y="712" on="0"/>
        <pt x="266" y="415" on="0"/>
        <pt x="266" y="114" on="0"/>
        <pt x="272" y="-183" on="0"/>
        <pt x="272" y="-206" on="0"/>
        <pt x="249" y="-224" on="0"/>
        <pt x="231" y="-224" on="1"/>
        <pt x="154" y="-220" on="1"/>
        <pt x="67" y="-223" on="1"/>
        <pt x="64" y="-223" on="0"/>
        <pt x="62" y="-223" on="1"/>
        <pt x="41" y="-223" on="0"/>
        <pt x="26" y="-199" on="0"/>
        <pt x="26" y="-181" on="0"/>
        <pt x="41" y="-157" on="0"/>
        <pt x="62" y="-157" on="1"/>
        <pt x="64" y="-157" on="0"/>
        <pt x="67" y="-157" on="1"/>
        <pt x="154" y="-160" on="1"/>
        <pt x="198" y="-160" on="1"/>
        <pt x="204" y="182" on="0"/>
        <pt x="204" y="348" on="0"/>
        <pt x="198" y="690" on="1"/>
        <pt x="154" y="690" on="1"/>
        <pt x="67" y="687" on="1"/>
        <pt x="64" y="687" on="0"/>
        <pt x="62" y="687" on="1"/>
        <pt x="41" y="687" on="0"/>
        <pt x="26" y="711" on="0"/>
        <pt x="26" y="729" on="0"/>
        <pt x="41" y="753" on="0"/>
        <pt x="62" y="753" on="1"/>
        <pt x="64" y="753" on="0"/>
        <pt x="67" y="753" on="1"/>
      </contour>
    </TTGlyph>
    <TTGlyph name="breve" xMin="60" yMin="598" xMax="355" yMax="760">
      <contour>
        <pt x="325" y="760" on="1"/>
        <pt x="355" y="760" on="0"/>
        <pt x="355" y="684" on="0"/>
        <pt x="271" y="598" on="0"/>
        <pt x="143" y="598" on="0"/>
        <pt x="101" y="640" on="1"/>
        <pt x="60" y="684" on="0"/>
        <pt x="60" y="760" on="0"/>
        <pt x="90" y="760" on="1"/>
        <pt x="115" y="760" on="0"/>
        <pt x="136" y="710" on="1"/>
        <pt x="143" y="690" on="0"/>
        <pt x="182" y="661" on="0"/>
        <pt x="232" y="661" on="0"/>
        <pt x="270" y="690" on="0"/>
        <pt x="279" y="710" on="1"/>
        <pt x="300" y="760" on="0"/>
      </contour>
    </TTGlyph>
    <TTGlyph name="brokenbar" xMin="81" yMin="-230" xMax="151" yMax="727">
      <contour>
        <pt x="150" y="684" on="1"/>
        <pt x="146" y="533" on="1"/>
        <pt x="151" y="385" on="1"/>
        <pt x="151" y="339" on="0"/>
        <pt x="115" y="339" on="1"/>
        <pt x="81" y="339" on="0"/>
        <pt x="81" y="385" on="1"/>
        <pt x="86" y="533" on="1"/>
        <pt x="85" y="583" on="0"/>
        <pt x="82" y="684" on="1"/>
        <pt x="82" y="727" on="0"/>
        <pt x="115" y="727" on="1"/>
        <pt x="150" y="727" on="0"/>
      </contour>
      <contour>
        <pt x="150" y="115" on="1"/>
        <pt x="146" y="-36" on="1"/>
        <pt x="151" y="-184" on="1"/>
        <pt x="151" y="-230" on="0"/>
        <pt x="115" y="-230" on="1"/>
        <pt x="81" y="-230" on="0"/>
        <pt x="81" y="-184" on="1"/>
        <pt x="86" y="-36" on="1"/>
        <pt x="82" y="115" on="1"/>
        <pt x="82" y="158" on="0"/>
        <pt x="115" y="158" on="1"/>
        <pt x="150" y="158" on="0"/>
      </contour>
    </TTGlyph>
    <TTGlyph name="bullet" xMin="51" yMin="276" xMax="239" yMax="510">
      <contour>
        <pt x="51" y="434" on="0"/>
        <pt x="109" y="510" on="0"/>
        <pt x="194" y="510" on="0"/>
        <pt x="239" y="450" on="0"/>
        <pt x="239" y="354" on="0"/>
        <pt x="210" y="314" on="1"/>
        <pt x="181" y="276" on="0"/>
        <pt x="98" y="276" on="0"/>
        <pt x="51" y="339" on="0"/>
      </contour>
    </TTGlyph>
    <TTGlyph name="c" xMin="46" yMin="-15" xMax="471" yMax="515">
      <contour>
        <pt x="446" y="103" on="1"/>
        <pt x="471" y="103" on="0"/>
        <pt x="471" y="50" on="0"/>
        <pt x="413" y="17" on="1"/>
        <pt x="354" y="-15" on="0"/>
        <pt x="291" y="-15" on="1"/>
        <pt x="187" y="-15" on="0"/>
        <pt x="116" y="62" on="1"/>
        <pt x="46" y="139" on="0"/>
        <pt x="46" y="361" on="0"/>
        <pt x="186" y="515" on="0"/>
        <pt x="302" y="515" on="1"/>
        <pt x="364" y="515" on="0"/>
        <pt x="462" y="458" on="0"/>
        <pt x="462" y="402" on="0"/>
        <pt x="442" y="394" on="1"/>
        <pt x="436" y="392" on="0"/>
        <pt x="415" y="392" on="0"/>
        <pt x="399" y="406" on="1"/>
        <pt x="346" y="450" on="0"/>
        <pt x="293" y="450" on="1"/>
        <pt x="224" y="450" on="0"/>
        <pt x="172" y="392" on="1"/>
        <pt x="121" y="334" on="0"/>
        <pt x="121" y="167" on="0"/>
        <pt x="226" y="50" on="0"/>
        <pt x="302" y="50" on="1"/>
        <pt x="362" y="50" on="0"/>
        <pt x="417" y="90" on="1"/>
        <pt x="436" y="103" on="0"/>
      </contour>
    </TTGlyph>
    <TTGlyph name="caron" xMin="59" yMin="588" xMax="351" yMax="760">
      <contour>
        <pt x="60" y="718" on="0"/>
        <pt x="60" y="737" on="0"/>
        <pt x="62" y="742" on="1"/>
        <pt x="70" y="760" on="0"/>
        <pt x="102" y="760" on="0"/>
        <pt x="123" y="745" on="0"/>
        <pt x="136" y="727" on="1"/>
        <pt x="150" y="710" on="1"/>
        <pt x="195" y="662" on="0"/>
        <pt x="216" y="662" on="0"/>
        <pt x="261" y="710" on="1"/>
        <pt x="274" y="728" on="1"/>
        <pt x="300" y="760" on="0"/>
        <pt x="333" y="760" on="0"/>
        <pt x="351" y="744" on="0"/>
        <pt x="351" y="715" on="0"/>
        <pt x="338" y="702" on="1"/>
        <pt x="305" y="678" on="0"/>
        <pt x="246" y="605" on="0"/>
        <pt x="223" y="588" on="0"/>
        <pt x="187" y="588" on="0"/>
        <pt x="175" y="597" on="1"/>
        <pt x="164" y="606" on="0"/>
        <pt x="128" y="653" on="0"/>
        <pt x="108" y="672" on="0"/>
        <pt x="75" y="701" on="0"/>
      </contour>
    </TTGlyph>
    <TTGlyph name="ccedilla" xMin="46" yMin="-230" xMax="471" yMax="515">
      <contour>
        <pt x="293" y="-15" on="1"/>
        <pt x="296" y="-43" on="0"/>
        <pt x="398" y="-96" on="0"/>
        <pt x="398" y="-176" on="0"/>
        <pt x="328" y="-230" on="0"/>
        <pt x="233" y="-230" on="0"/>
        <pt x="170" y="-186" on="0"/>
        <pt x="170" y="-160" on="1"/>
        <pt x="170" y="-153" on="0"/>
        <pt x="180" y="-141" on="0"/>
        <pt x="196" y="-141" on="0"/>
        <pt x="250" y="-167" on="0"/>
        <pt x="293" y="-167" on="0"/>
        <pt x="326" y="-147" on="0"/>
        <pt x="326" y="-125" on="0"/>
        <pt x="310" y="-112" on="1"/>
        <pt x="308" y="-110" on="0"/>
        <pt x="267" y="-82" on="0"/>
        <pt x="249" y="-65" on="0"/>
        <pt x="229" y="-28" on="0"/>
        <pt x="229" y="-6" on="1"/>
        <pt x="148" y="15" on="0"/>
        <pt x="96" y="86" on="1"/>
        <pt x="46" y="157" on="0"/>
        <pt x="46" y="361" on="0"/>
        <pt x="186" y="515" on="0"/>
        <pt x="302" y="515" on="1"/>
        <pt x="364" y="515" on="0"/>
        <pt x="462" y="458" on="0"/>
        <pt x="462" y="402" on="0"/>
        <pt x="442" y="394" on="1"/>
        <pt x="436" y="392" on="0"/>
        <pt x="415" y="392" on="0"/>
        <pt x="399" y="406" on="1"/>
        <pt x="346" y="450" on="0"/>
        <pt x="293" y="450" on="1"/>
        <pt x="224" y="450" on="0"/>
        <pt x="172" y="392" on="1"/>
        <pt x="121" y="334" on="0"/>
        <pt x="121" y="167" on="0"/>
        <pt x="226" y="50" on="0"/>
        <pt x="302" y="50" on="1"/>
        <pt x="362" y="50" on="0"/>
        <pt x="417" y="90" on="1"/>
        <pt x="436" y="103" on="0"/>
        <pt x="446" y="103" on="1"/>
        <pt x="471" y="103" on="0"/>
        <pt x="471" y="50" on="0"/>
        <pt x="357" y="-14" on="0"/>
      </contour>
    </TTGlyph>
    <TTGlyph name="cedilla" xMin="43" yMin="-230" xMax="271" yMax="12">
      <contour>
        <pt x="166" y="-10" on="1"/>
        <pt x="166" y="-40" on="0"/>
        <pt x="271" y="-97" on="0"/>
        <pt x="271" y="-176" on="0"/>
        <pt x="201" y="-230" on="0"/>
        <pt x="106" y="-230" on="0"/>
        <pt x="43" y="-186" on="0"/>
        <pt x="43" y="-160" on="1"/>
        <pt x="43" y="-153" on="0"/>
        <pt x="53" y="-141" on="0"/>
        <pt x="70" y="-141" on="0"/>
        <pt x="123" y="-167" on="0"/>
        <pt x="166" y="-167" on="0"/>
        <pt x="199" y="-147" on="0"/>
        <pt x="199" y="-125" on="0"/>
        <pt x="183" y="-112" on="1"/>
        <pt x="182" y="-112" on="0"/>
        <pt x="125" y="-77" on="0"/>
        <pt x="102" y="-47" on="0"/>
        <pt x="102" y="-26" on="1"/>
        <pt x="102" y="12" on="1"/>
        <pt x="166" y="12" on="1"/>
      </contour>
    </TTGlyph>
    <TTGlyph name="cent" xMin="57" yMin="-135" xMax="482" yMax="645">
      <contour>
        <pt x="326" y="594" on="1"/>
        <pt x="324" y="514" on="1"/>
        <pt x="385" y="511" on="0"/>
        <pt x="428" y="483" on="1"/>
        <pt x="473" y="456" on="0"/>
        <pt x="473" y="428" on="1"/>
        <pt x="473" y="413" on="0"/>
        <pt x="453" y="391" on="0"/>
        <pt x="428" y="391" on="0"/>
        <pt x="393" y="417" on="1"/>
        <pt x="359" y="445" on="0"/>
        <pt x="323" y="449" on="1"/>
        <pt x="322" y="414" on="0"/>
        <pt x="322" y="200" on="0"/>
        <pt x="324" y="50" on="1"/>
        <pt x="368" y="53" on="0"/>
        <pt x="448" y="103" on="0"/>
        <pt x="457" y="103" on="1"/>
        <pt x="482" y="103" on="0"/>
        <pt x="482" y="53" on="0"/>
        <pt x="433" y="22" on="1"/>
        <pt x="384" y="-8" on="0"/>
        <pt x="325" y="-14" on="1"/>
        <pt x="327" y="-84" on="1"/>
        <pt x="327" y="-135" on="0"/>
        <pt x="257" y="-135" on="0"/>
        <pt x="257" y="-35" on="0"/>
        <pt x="258" y="-11" on="1"/>
        <pt x="167" y="6" on="0"/>
        <pt x="57" y="152" on="0"/>
        <pt x="57" y="346" on="0"/>
        <pt x="111" y="419" on="1"/>
        <pt x="166" y="492" on="0"/>
        <pt x="259" y="510" on="1"/>
        <pt x="258" y="538" on="0"/>
        <pt x="258" y="598" on="1"/>
        <pt x="258" y="645" on="0"/>
        <pt x="326" y="645" on="0"/>
      </contour>
      <contour>
        <pt x="260" y="58" on="1"/>
        <pt x="262" y="204" on="0"/>
        <pt x="262" y="317" on="0"/>
        <pt x="261" y="358" on="1"/>
        <pt x="261" y="443" on="1"/>
        <pt x="208" y="427" on="0"/>
        <pt x="132" y="321" on="0"/>
        <pt x="132" y="185" on="0"/>
        <pt x="167" y="130" on="1"/>
        <pt x="203" y="78" on="0"/>
      </contour>
    </TTGlyph>
    <TTGlyph name="circumflex" xMin="60" yMin="587" xMax="352" yMax="760">
      <contour>
        <pt x="261" y="638" on="1"/>
        <pt x="220" y="686" on="0"/>
        <pt x="190" y="686" on="0"/>
        <pt x="150" y="638" on="1"/>
        <pt x="147" y="636" on="0"/>
        <pt x="112" y="588" on="0"/>
        <pt x="79" y="588" on="0"/>
        <pt x="69" y="596" on="1"/>
        <pt x="60" y="605" on="0"/>
        <pt x="60" y="616" on="1"/>
        <pt x="60" y="632" on="0"/>
        <pt x="77" y="649" on="0"/>
        <pt x="90" y="660" on="1"/>
        <pt x="127" y="691" on="0"/>
        <pt x="146" y="719" on="1"/>
        <pt x="164" y="742" on="0"/>
        <pt x="175" y="751" on="1"/>
        <pt x="187" y="760" on="0"/>
        <pt x="223" y="760" on="0"/>
        <pt x="246" y="743" on="0"/>
        <pt x="285" y="694" on="0"/>
        <pt x="305" y="674" on="0"/>
        <pt x="319" y="662" on="1"/>
        <pt x="343" y="643" on="0"/>
        <pt x="347" y="633" on="1"/>
        <pt x="351" y="627" on="0"/>
        <pt x="351" y="613" on="0"/>
        <pt x="348" y="605" on="1"/>
        <pt x="341" y="588" on="0"/>
        <pt x="320" y="588" on="1"/>
        <pt x="318" y="588" on="0"/>
        <pt x="308" y="588" on="0"/>
        <pt x="286" y="606" on="0"/>
        <pt x="263" y="637" on="0"/>
      </contour>
    </TTGlyph>
</ttFont>
